<svg width="125" height="97" viewBox="0 0 125 97" fill="none" xmlns="http://www.w3.org/2000/svg">
<g clip-path="url(#clip0_186_444)">
<path d="M40.2977 96.9433H7.33336C3.34931 96.9268 -0.0165194 93.5532 6.09983e-05 89.5961L0.350619 7.13515C0.3672 3.17572 3.61223 -0.0191043 7.59864 -0.000283481L40.7145 0.152635C44.6986 0.171456 47.9128 3.39216 47.8939 7.34688L47.5433 89.8078C47.5267 93.7673 44.2817 96.9621 40.2977 96.9433Z" fill="#263238"/>
<path d="M40.6644 3.28657L34.243 3.25834C33.3832 3.25363 32.6797 3.97588 32.6773 4.86987L32.6726 6.02735C32.6702 6.92134 31.9667 7.64358 31.1069 7.63888L18.5911 7.57771C17.7312 7.57301 17.0349 6.84605 17.0396 5.95207L17.0443 4.79459C17.0491 3.9006 16.3527 3.17129 15.4929 3.16894L13.2356 3.15953L7.6148 3.13365C4.82454 3.12189 2.55065 5.35921 2.53881 8.13057L2.19536 88.62C2.18352 91.3914 4.43372 93.6475 7.22397 93.6593L40.2735 93.8099C43.0638 93.8216 45.3377 91.5843 45.3495 88.8129L45.693 8.32348C45.7048 5.55448 43.4546 3.29833 40.6644 3.28657Z" fill="#F5F5F5"/>
<path d="M26.6355 78.6003C26.5976 79.5719 26.562 80.4847 26.5312 81.2423H31.278L30.6977 78.3462L26.6355 78.6003Z" fill="#F5F5F5"/>
<path d="M7.34375 79.8119L7.38402 81.2399H26.0607C26.0915 80.4377 26.127 79.5461 26.1626 78.6285L7.34375 79.8119Z" fill="#F5F5F5"/>
<path d="M30.9375 78.3298L31.5226 81.2423H40.2747L40.1681 77.751L30.9375 78.3298Z" fill="#F5F5F5"/>
<path d="M27.1086 37.6321L28.7643 28.1018L24.4297 27.7818V37.6321H27.1086Z" fill="#F5F5F5"/>
<path d="M6.95507 74.5209L2.24859 76.3512L2.23438 79.6613L7.09482 79.3555L6.95507 74.5209Z" fill="#F5F5F5"/>
<path d="M6.92806 73.7775L6.67224 64.9011H6.66751V61.7698L2.30685 62.2286L2.25 75.5937L6.92806 73.7728V73.7775Z" fill="#F5F5F5"/>
<path d="M6.67079 54.7826L2.34329 54.2156L2.3125 61.5204L6.67079 61.0617V54.7826Z" fill="#F5F5F5"/>
<path d="M38.9267 61.9015L38.7443 64.4471L33.6328 64.9929L34.0284 67.0067L39.8315 66.5715L39.7439 63.6848L40.2058 61.7745L38.9267 61.9015Z" fill="#F5F5F5"/>
<path d="M29.7133 67.329L33.7897 67.0255L32.9014 62.5062L29.3438 62.8638L29.7133 67.329Z" fill="#F5F5F5"/>
<path d="M29.7578 67.7995L30.0681 71.566L30.6224 76.7323L30.8498 77.8639L40.1585 77.2805L39.8506 67.042L29.7578 67.7995Z" fill="#F5F5F5"/>
<path d="M13.7298 50.0115L14.0874 50.6209L6.90811 54.7802V64.647L14.4854 64.1154L29.0904 62.652L28.5551 56.1848L14.6014 54.3732L14.6938 53.6745L28.4959 55.4649L27.591 44.5182L13.9311 45.8239L13.8861 45.3557L27.5531 44.05L27.0818 38.3379H13.9406L2.4006 40.4247L2.34375 53.5051L6.71388 54.0768L13.7298 50.0115ZM7.64239 63.706C7.64239 63.706 7.69687 55.5707 7.64239 55.2649L13.5024 52.1689L14.2627 63.2896L7.64239 63.706Z" fill="#F5F5F5"/>
<path d="M38.4487 61.951L33.1406 62.4826L33.5433 64.5294L38.2995 64.0212L38.4487 61.951Z" fill="#F5F5F5"/>
<path d="M26.706 76.857C26.6894 77.2852 26.6728 77.7087 26.6562 78.1274L30.6071 77.8781L30.4034 76.8664L26.706 76.857Z" fill="#F5F5F5"/>
<path d="M18.1979 37.6321L18.8943 34.4985H24.1977V27.7653L7.61251 26.5443V32.8658L2.42994 34.0303L2.40625 39.7048L13.8799 37.6321H18.1979Z" fill="#F5F5F5"/>
<path d="M29.2635 18.8984L29.1214 18.322L35.4551 15.833L31.3361 7.61769C31.2627 7.62946 31.1869 7.63651 31.1087 7.63651L24.1094 7.60358L24.2989 19.0984L29.2635 18.8984Z" fill="#F5F5F5"/>
<path d="M38.8643 14.492L38.8572 3.27715L34.2478 3.25597C33.388 3.25127 32.6845 3.97352 32.6822 4.8675L32.6774 6.02498C32.6751 6.57784 32.4074 7.06248 32 7.35185L36.1214 15.5718L38.8643 14.492Z" fill="#F5F5F5"/>
<path d="M15.0465 14.9743L14.5135 3.16657L13.2297 3.15951L8.22008 3.13599L6.08594 13.6968L15.0465 14.9743ZM13.9048 4.36169L14.0753 13.9791L7.41711 13.0122L8.87619 4.36404L13.9048 4.36169Z" fill="#F5F5F5"/>
<path d="M15.2931 15.0096L15.2955 15.1107C15.3073 16.033 15.3263 17.6915 15.3405 19.4654L24.0642 19.1125L23.8747 7.60594L18.595 7.58242C17.7352 7.57771 17.0388 6.85076 17.0435 5.95677L17.0483 4.79929C17.053 3.90531 16.3566 3.176 15.4968 3.17365L14.7578 3.1713L15.2931 15.0119V15.0096Z" fill="#F5F5F5"/>
<path d="M5.38404 13.5956L7.49687 3.13834C4.75872 3.18774 2.54879 5.39683 2.53694 8.13055L2.51562 13.3439L2.53694 13.191L5.38404 13.5956Z" fill="#F5F5F5"/>
<path d="M6.89693 26.4926L2.46048 26.1656L2.42969 33.3057L6.89693 32.3012V26.4926Z" fill="#F5F5F5"/>
<path d="M5.33954 13.8262L2.51612 13.4239L2.46875 24.9869L3.07512 25.0316L5.33954 13.8262Z" fill="#F5F5F5"/>
<path d="M14.3018 73.6434L14.3776 64.36L6.91406 64.8847L7.17698 73.9775L14.3018 73.6434Z" fill="#F5F5F5"/>
<path d="M15.6735 71.5002L26.2447 76.53C26.3702 73.2434 26.4839 70.1709 26.4721 69.9733L26.7019 69.9616L26.8132 69.7404C26.9624 69.8157 26.9624 69.8157 26.8842 72.0554C26.8392 73.3046 26.7777 74.9679 26.7137 76.6335H30.3685L29.8285 71.5896L29.1084 62.8873L15.2969 64.2706L15.6735 71.5002Z" fill="#F5F5F5"/>
<path d="M41.5797 56.0953L41.4613 54.8696L28.7891 56.18L29.3244 62.6285L40.2627 61.5322L41.5797 56.0953Z" fill="#F5F5F5"/>
<path d="M24.1945 35.2043H19.4619L18.9219 37.6322H24.1945V35.2043Z" fill="#F5F5F5"/>
<path d="M39.6273 36.023L27.7723 35.209L27.2891 37.9897L27.7888 44.0265L40.2905 42.8314L39.6273 36.023ZM28.2105 37.985L28.8476 36.23L39.1441 36.877L39.741 41.8998L28.561 43.2172L28.2105 37.985Z" fill="#F5F5F5"/>
<path d="M40.8556 48.64L40.3369 43.3019L27.8281 44.4947L28.2971 50.1786L40.8556 48.64Z" fill="#F5F5F5"/>
<path d="M7.10358 79.8284L2.25262 80.1318L2.2313 79.819L2.22656 81.2423H7.14622L7.10358 79.8284Z" fill="#F5F5F5"/>
<path d="M45.6021 11.8406L45.6731 12.0194L45.6897 8.32349C45.7015 5.55212 43.4513 3.29833 40.6611 3.28422L39.0859 3.27716L39.093 14.3979L45.6021 11.8406Z" fill="#F5F5F5"/>
<path d="M26.233 76.7864L15.4439 71.6531L15.0625 64.2965L14.6101 64.3412L14.5343 73.8669L7.17969 74.2127L7.18679 74.4244L7.18916 74.4291H7.18679L7.32891 79.3414L26.1809 78.158C26.1975 77.7016 26.214 77.2429 26.233 76.7864ZM7.64157 74.8197L17.9357 74.1021L24.6318 77.1887L7.64157 78.1015V74.8197Z" fill="#F5F5F5"/>
<path d="M42.5387 24.1941L42.9793 21.5945C39.1089 20.2229 38.8412 16.2164 38.8531 15.0025L36.3281 15.9953L40.1322 23.5777L42.5387 24.1941Z" fill="#F5F5F5"/>
<path d="M28.7329 55.4766L33.9937 54.9331L32.9562 50.3174L28.3516 50.882L28.7329 55.4766Z" fill="#F5F5F5"/>
<path d="M39.6492 28.1794H29.8241L29.007 28.1182L27.8984 34.5103L39.5616 35.3101L39.2892 32.5317L40.438 28.4288L39.6492 28.1794Z" fill="#F5F5F5"/>
<path d="M39.4053 27.0031L39.5285 23.9518L35.6676 16.2517L29.6797 18.6043L31.738 27.0007H39.4053V27.0031ZM35.4331 17.1904L38.9718 23.8765L38.4602 25.9609L32.406 25.735L30.8924 19.4113L35.4331 17.1904Z" fill="#F5F5F5"/>
<path d="M40.9375 63.8072L41.1175 69.7992L45.374 69.5616L45.3882 69.7969L41.1246 70.0345L41.3425 77.2052L45.3668 76.9511L45.3976 77.4216L41.3567 77.6757L41.4633 81.2423H45.3858L45.4711 61.2475L41.4586 61.6498L40.9375 63.8072Z" fill="#F5F5F5"/>
<path d="M15.059 15.2119L6.044 13.9274L3.78906 25.0834L15.0993 25.9162C15.1419 24.1988 15.104 18.929 15.059 15.2119Z" fill="#F5F5F5"/>
<path d="M29.8876 27.0031H31.2519L29.3215 19.1313L24.3047 19.336L24.4255 26.6032L29.8876 27.0031Z" fill="#F5F5F5"/>
<path d="M2.20242 86.9685L2.19531 88.62C2.19531 88.6718 2.20005 88.7212 2.20242 88.7706V86.9685Z" fill="#F5F5F5"/>
<path d="M15.3281 25.9327L24.1845 26.5843L24.0637 19.3454L15.3376 19.7006C15.3565 22.1473 15.3637 24.7587 15.3281 25.9327Z" fill="#F5F5F5"/>
<path d="M40.9242 49.3434L33.1953 50.2891L34.2328 54.9073L41.3955 54.1686L40.9242 49.3434Z" fill="#F5F5F5"/>
<path d="M43.0177 21.3569L43.5127 18.4397L45.6469 18.6043L45.6729 12.3205L39.0905 14.9084C38.9579 19.3289 41.7552 20.884 43.0177 21.3569Z" fill="#F5F5F5"/>
<path d="M40.4844 32.6376L40.752 35.3925L45.5746 35.7242L45.5983 30.0474L41.5621 28.7817L40.4844 32.6376Z" fill="#F5F5F5"/>
<path d="M42.7828 56.1777L41.5156 61.4075L45.4689 61.0123L45.4926 55.5284C44.2798 55.2108 43.221 54.952 42.6502 54.8438L42.7828 56.1777Z" fill="#F5F5F5"/>
<path d="M40.1094 27.0925L45.6022 28.817L45.6165 25.7139L40.2207 24.3282L40.1094 27.0925Z" fill="#F5F5F5"/>
<path d="M42.5815 54.1239C43.0244 54.1897 43.8629 54.3662 45.4949 54.7944L45.547 42.8055L41.5156 43.1913L42.5815 54.1239Z" fill="#F5F5F5"/>
<path d="M41.4724 42.7208L45.5512 42.3303L45.5772 36.4323L40.8281 36.1053L41.4724 42.7208Z" fill="#F5F5F5"/>
<path d="M43.4766 21.5074C44.2487 21.7403 44.9688 21.9215 45.6344 22.0532L45.6462 19.0772L43.91 18.9431L43.4766 21.5074Z" fill="#F5F5F5"/>
<path d="M43 24.3117L45.6221 24.9846L45.6339 22.2932C44.9565 22.1591 44.2246 21.9756 43.4358 21.738L43 24.3117Z" fill="#F5F5F5"/>
<path d="M7.10192 79.8284L7.14219 81.2423H7.37905L7.33879 79.8142L26.1576 78.6309C26.1221 79.5484 26.0865 80.44 26.0557 81.2423H26.5295C26.5603 80.4847 26.5958 79.5719 26.6337 78.6003L30.6959 78.3462L31.2762 81.2423H31.5178L30.9328 78.3298L40.1633 77.7487L40.2699 81.2399H41.4542L41.3453 77.6734L45.3862 77.4193L45.3554 76.9488L41.3311 77.2005L41.1155 70.0298L45.3791 69.7922L45.3649 69.5569L41.1084 69.7945L40.9284 63.8025L41.4519 61.6428L45.4643 61.2405V61.0029L41.5111 61.3981L42.7783 56.1683L42.648 54.832C43.2165 54.9402 44.2753 55.199 45.4904 55.5166L45.4928 54.7826C43.8608 54.3568 43.0223 54.1803 42.5793 54.1121L41.5135 43.1772L45.5449 42.7914L45.5472 42.3185L41.4685 42.7091L40.8242 36.0936L45.5733 36.4206L45.5757 35.7124L40.7531 35.3807L40.4855 32.6235L41.5632 28.7699L45.5994 30.0356L45.6041 28.8028L40.1112 27.0807L40.2226 24.3164L45.6183 25.7021L45.6207 24.9752L42.9986 24.3023L43.4344 21.7309C44.2208 21.9685 44.9527 22.152 45.6325 22.2861V22.0438C44.9669 21.9121 44.2469 21.7309 43.4747 21.498L43.9105 18.9337L45.6467 19.0678L45.6491 18.5949L43.515 18.4302L43.0199 21.3475C41.7574 20.8746 38.9601 19.3195 39.0927 14.8966L45.6752 12.3088L45.6775 12.01L45.6065 11.8312L39.0975 14.3885L39.0903 3.26773H38.8535L38.8606 14.4826L36.1177 15.5601L31.9963 7.34008C31.8021 7.47889 31.5794 7.57064 31.3354 7.60593L35.4545 15.8189L29.1208 18.3079L29.2629 18.8843L24.2982 19.0866L24.1087 7.59181H23.8719L24.0614 19.0984L15.3377 19.4513C15.3235 17.6774 15.3045 16.0188 15.2927 15.0966L15.2903 14.9954H15.2879L14.7502 3.16657H14.5134L15.0463 14.9743L6.08578 13.6968L8.21992 3.13599L7.60881 3.13364C7.57091 3.13364 7.53301 3.13834 7.49275 3.13834L5.37992 13.5956L2.53282 13.1886L2.51151 13.3416V13.4216L5.33492 13.8238L3.0705 25.0293L2.46176 24.9846L2.45703 26.1632L6.89348 26.4902V32.3012L2.42623 33.3057L2.42387 34.0303L7.60407 32.8658V26.5443L24.1893 27.7653V34.4985H18.8883L18.1919 37.6322H13.8739L2.40255 39.7048L2.40018 40.4223L13.9402 38.3356H27.0814L27.5527 44.0477L13.8857 45.3534L13.9307 45.8215L27.5906 44.5159L28.4954 55.4625L14.6934 53.6722L14.601 54.3709L28.5547 56.1824L29.09 62.6497L14.485 64.113L6.90769 64.6447V54.7779L14.087 50.6185L13.7294 50.0092L6.71347 54.0721L2.34333 53.5004L2.34096 54.2109L6.66846 54.7779V61.057L2.31017 61.5157L2.3078 62.2262L6.67083 61.7675V64.8988H6.6732L6.93138 73.7751L6.92901 73.7704L2.25096 75.5913L2.24859 76.3512L6.9527 74.5209L7.09245 79.3555L2.23438 79.6613V79.819L2.25332 80.1318L7.10192 79.8284ZM26.6526 78.1274C26.6692 77.7087 26.6858 77.2852 26.7024 76.857L30.4022 76.8664L30.6059 77.8781L26.6526 78.1274ZM30.8428 77.8639L30.6154 76.7323L30.0635 71.566L29.7508 67.7995L39.8436 67.0443L40.1539 77.2805L30.8428 77.8639ZM33.138 62.4827L38.4461 61.951L38.2969 64.0213L33.5383 64.5318L33.138 62.4827ZM32.9011 62.5062L33.7893 67.0232L29.7129 67.329L29.3434 62.8614L32.9011 62.5062ZM39.8294 66.5715L34.0262 67.0067L33.6306 64.9929L38.7422 64.4447L38.9245 61.9016L40.2036 61.7722L39.7417 63.6848L39.8294 66.5715ZM32.9556 50.3174L33.993 54.9308L28.7323 55.4743L28.3533 50.8796L32.9556 50.3174ZM34.2299 54.9073L33.1924 50.2891L40.9213 49.3434L41.3927 54.1686L34.2299 54.9073ZM39.5546 35.3101L27.8914 34.5079L29.0023 28.1182L29.8171 28.1794L39.6422 28.1818L40.431 28.4288L39.2822 32.5341L39.5546 35.3101ZM38.8511 15.0001C38.8393 16.2141 39.1069 20.2206 42.9773 21.5921L42.5367 24.1918L40.1302 23.573L36.3261 15.9906L38.8511 15.0001ZM35.6629 16.2541L39.5238 23.9541L39.4006 27.0055H31.7334L29.675 18.609L35.6629 16.2541ZM29.315 19.1313L31.2454 27.0031H29.8811L24.419 26.6008L24.2982 19.3336L29.315 19.1313ZM24.0614 19.3454L24.1822 26.5843L15.3258 25.9327C15.3637 24.7587 15.3542 22.1473 15.3377 19.6983L24.0614 19.3454ZM6.04077 13.9274L15.0558 15.2119C15.1008 18.929 15.1411 24.1965 15.0961 25.9139L3.78583 25.081L6.04077 13.9274ZM28.7631 28.1018L27.1074 37.6322H24.4285V27.7818L28.7631 28.1018ZM19.4591 35.2043H24.1916V37.6322H18.919L19.4591 35.2043ZM27.2874 37.9897L27.7706 35.209L39.6257 36.023L40.2889 42.8337L27.7872 44.0289L27.2874 37.9897ZM40.3339 43.3019L40.855 48.6423L28.2965 50.1786L27.8275 44.497L40.3339 43.3019ZM28.7892 56.18L41.459 54.872L41.5774 56.0953L40.2605 61.5322L29.3197 62.6285L28.7892 56.18ZM29.8266 71.5872L30.3667 76.6312H26.7119C26.7758 74.9679 26.8374 73.3046 26.8824 72.053C26.9606 69.8133 26.9606 69.8133 26.8113 69.7381L26.7 69.9592L26.4703 69.971C26.4797 70.1662 26.3684 73.2411 26.2429 76.5277L15.6716 71.4978L15.2974 64.2683L29.1089 62.8849L29.8266 71.5872ZM14.3713 64.36L14.2978 73.6434L7.17298 73.9798L6.91006 64.887L14.3713 64.36ZM7.18482 74.4291V74.4244L7.17772 74.2127L14.5323 73.8669L14.6081 64.3412L15.0605 64.2965L15.4419 71.6531L26.231 76.7865C26.2144 77.2429 26.1955 77.7016 26.1789 78.158L7.32694 79.3414L7.18482 74.4291Z" fill="white"/>
<path d="M17.9347 74.1021L7.64062 74.8197V78.1016L24.6308 77.1864L17.9347 74.1021Z" fill="#EBEBEB"/>
<path d="M39.1422 36.877L28.8457 36.23L28.2109 37.985L28.5591 43.2149L39.7367 41.8974L39.1422 36.877Z" fill="#EBEBEB"/>
<path d="M7.22226 93.6593L40.2718 93.8098C43.0621 93.8216 45.336 91.5843 45.3478 88.8129L45.381 81.2399H41.4585H40.2742H31.5221H31.2805H26.5337H26.06H7.38333H7.14647H2.22681L2.20312 86.9661V88.7682C2.27182 91.4714 4.48412 93.6452 7.22226 93.6593Z" fill="#EBEBEB"/>
<path d="M14.0801 13.9791L13.9096 4.36169H8.88095L7.42188 13.0122L14.0801 13.9791Z" fill="#EBEBEB"/>
<path d="M38.4608 25.9609L38.97 23.8765L35.4313 17.1904L30.8906 19.4113L32.4042 25.7351L38.4608 25.9609Z" fill="#EBEBEB"/>
<path d="M7.64062 55.2672C7.6951 55.5707 7.64062 63.7083 7.64062 63.7083L14.2586 63.2919L13.4983 52.1712L7.64062 55.2672Z" fill="#EBEBEB"/>
<path d="M29.7177 61.8733L29.3672 56.8317L40.7201 55.3825V56.253L39.3462 60.8899L29.7177 61.8733Z" fill="#EBEBEB"/>
<path d="M21.3134 20.0606C21.3134 20.8181 20.6952 21.4345 19.9302 21.4345C19.1675 21.4345 18.5469 20.8205 18.5469 20.0606C18.5469 19.3031 19.1651 18.6867 19.9302 18.6867C20.6952 18.6867 21.3134 19.3031 21.3134 20.0606Z" fill="#E8505B"/>
<g opacity="0.6">
<path d="M21.3178 20.0018C21.351 20.7593 20.7588 21.3992 19.9961 21.4322C19.2334 21.4651 18.5892 20.877 18.556 20.1194C18.5229 19.3619 19.115 18.722 19.8777 18.689C20.6404 18.6561 21.2847 19.2443 21.3178 20.0018Z" fill="white"/>
</g>
<path d="M19.9347 20.9264C20.4422 20.9264 20.8537 20.5177 20.8537 20.0136C20.8537 19.5094 20.4422 19.1008 19.9347 19.1008C19.4271 19.1008 19.0156 19.5094 19.0156 20.0136C19.0156 20.5177 19.4271 20.9264 19.9347 20.9264Z" fill="#E8505B"/>
<path d="M41.3046 74.9115C41.3046 75.2361 41.0393 75.4973 40.7148 75.4973C40.3879 75.4973 40.125 75.2338 40.125 74.9115C40.125 74.5868 40.3903 74.3257 40.7148 74.3257C41.0417 74.3233 41.3046 74.5868 41.3046 74.9115Z" fill="#E8505B"/>
<path d="M40.3587 74.7209L40.2166 71.4319L30.2375 71.9142C29.977 71.9283 29.7164 71.8719 29.4843 71.7543L15.3317 64.6541C15.0048 64.4894 14.7893 64.1624 14.7703 63.7978L12.8446 26.6879C12.8351 26.5091 12.9038 26.3373 13.0317 26.2126C13.1596 26.088 13.3373 26.0244 13.5149 26.0362L19.581 26.4832V19.8959H20.2916V26.5726C20.2916 26.7443 20.2182 26.9114 20.0926 27.0266C19.9647 27.1443 19.7942 27.2031 19.6213 27.1913L13.5599 26.7443L15.4809 63.7578C15.4856 63.8683 15.552 63.9695 15.6538 64.0213L29.8064 71.1214C29.9296 71.1826 30.067 71.2132 30.2067 71.2061L40.2687 70.7191C40.4392 70.7121 40.5979 70.7685 40.7235 70.8814C40.849 70.9944 40.9201 71.1473 40.9272 71.3167L41.074 74.6879L40.3587 74.7209Z" fill="#E8505B"/>
<path d="M14.0016 44.5794C14.9906 44.5794 15.7923 43.7831 15.7923 42.8008C15.7923 41.8186 14.9906 41.0223 14.0016 41.0223C13.0127 41.0223 12.2109 41.8186 12.2109 42.8008C12.2109 43.7831 13.0127 44.5794 14.0016 44.5794Z" fill="#E8505B"/>
<path d="M14.0092 44.0359C14.6959 44.0359 15.2527 43.483 15.2527 42.8008C15.2527 42.1187 14.6959 41.5657 14.0092 41.5657C13.3224 41.5657 12.7656 42.1187 12.7656 42.8008C12.7656 43.483 13.3224 44.0359 14.0092 44.0359Z" fill="#FAFAFA"/>
<path d="M14.0054 44.1253C13.2711 44.1253 12.6719 43.5325 12.6719 42.8008C12.6719 42.0715 13.2688 41.4763 14.0054 41.4763C14.7397 41.4763 15.339 42.0692 15.339 42.8008C15.339 43.5325 14.7397 44.1253 14.0054 44.1253ZM14.0054 41.6551C13.3683 41.6551 12.8495 42.1703 12.8495 42.8032C12.8495 43.436 13.3683 43.9513 14.0054 43.9513C14.6426 43.9513 15.1613 43.436 15.1613 42.8032C15.1613 42.168 14.6426 41.6551 14.0054 41.6551Z" fill="#E8505B"/>
<path d="M24.5514 35.3407H16.0243C15.6098 35.3407 15.2734 35.6748 15.2734 36.0865V39.1543C15.2734 39.566 15.6098 39.9001 16.0243 39.9001H16.1238V40.6317L16.9765 39.9001H24.5514C24.9659 39.9001 25.3022 39.566 25.3022 39.1543V36.0865C25.3022 35.6748 24.9659 35.3407 24.5514 35.3407Z" fill="#E8505B"/>
<g opacity="0.4">
<path d="M24.5514 35.3407H16.0243C15.6098 35.3407 15.2734 35.6748 15.2734 36.0865V39.1543C15.2734 39.566 15.6098 39.9001 16.0243 39.9001H16.1238V40.6317L16.9765 39.9001H24.5514C24.9659 39.9001 25.3022 39.566 25.3022 39.1543V36.0865C25.3022 35.6748 24.9659 35.3407 24.5514 35.3407Z" fill="white"/>
</g>
<path d="M17.1875 37.571C17.1875 37.291 17.4054 37.0816 17.7015 37.0816C17.9952 37.0816 18.2131 37.2887 18.2131 37.571C18.2131 37.8533 17.9952 38.0603 17.7015 38.0603C17.4054 38.0603 17.1875 37.851 17.1875 37.571ZM18.0757 37.571C18.0757 37.3593 17.917 37.204 17.7015 37.204C17.4859 37.204 17.3249 37.3593 17.3249 37.571C17.3249 37.7827 17.4836 37.938 17.7015 37.938C17.9147 37.9403 18.0757 37.7827 18.0757 37.571Z" fill="white"/>
<path d="M19.1642 37.6886C19.1642 37.9098 19.0079 38.0603 18.7947 38.0603C18.6881 38.0603 18.5934 38.0203 18.5342 37.938V38.0533H18.4062V37.0393H18.5389V37.4392C18.6005 37.3616 18.6905 37.324 18.7947 37.324C19.0079 37.3193 19.1642 37.4651 19.1642 37.6886ZM19.0292 37.6886C19.0292 37.5334 18.9226 37.4345 18.7829 37.4345C18.6431 37.4345 18.5389 37.5334 18.5389 37.6886C18.5389 37.8439 18.6455 37.9451 18.7829 37.9451C18.925 37.9427 19.0292 37.8415 19.0292 37.6886Z" fill="white"/>
<path d="M19.0938 38.2791L19.1364 38.178C19.1624 38.1991 19.2003 38.2133 19.243 38.2133C19.314 38.2133 19.3519 38.1686 19.3519 38.0862V37.3263H19.4846V38.0839C19.4846 38.2321 19.4017 38.3238 19.2524 38.3238C19.1909 38.3238 19.1293 38.3097 19.0938 38.2791ZM19.3282 37.1005C19.3282 37.0534 19.3661 37.0134 19.4183 37.0134C19.4704 37.0134 19.5083 37.0511 19.5083 37.0958C19.5083 37.1452 19.4704 37.1828 19.4183 37.1828C19.3661 37.1852 19.3282 37.1499 19.3282 37.1005Z" fill="white"/>
<path d="M20.3889 37.731H19.7967C19.8133 37.858 19.9175 37.9427 20.062 37.9427C20.1473 37.9427 20.2183 37.9145 20.2728 37.8557L20.3462 37.9404C20.2799 38.018 20.1804 38.058 20.0573 38.058C19.8228 38.058 19.6641 37.9027 19.6641 37.6863C19.6641 37.4722 19.8204 37.3169 20.0312 37.3169C20.242 37.3169 20.3912 37.4675 20.3912 37.691C20.3912 37.7027 20.3889 37.7192 20.3889 37.731ZM19.7967 37.6369H20.2657C20.2515 37.5145 20.1591 37.4298 20.0312 37.4298C19.9033 37.4298 19.8085 37.5145 19.7967 37.6369Z" fill="white"/>
<path d="M20.5078 37.6886C20.5078 37.4722 20.6689 37.3193 20.8939 37.3193C21.0242 37.3193 21.1331 37.3734 21.1923 37.4745L21.0929 37.538C21.0455 37.4675 20.9744 37.4345 20.8939 37.4345C20.7518 37.4345 20.6428 37.5333 20.6428 37.6886C20.6428 37.8462 20.7494 37.945 20.8939 37.945C20.9744 37.945 21.0455 37.9121 21.0929 37.8415L21.1923 37.9051C21.1355 38.0062 21.0265 38.0603 20.8939 38.0603C20.6689 38.058 20.5078 37.9051 20.5078 37.6886Z" fill="white"/>
<path d="M21.7796 38.0086C21.7394 38.0439 21.6801 38.058 21.6209 38.058C21.4741 38.058 21.3888 37.978 21.3888 37.8321V37.4345H21.2656V37.3263H21.3888V37.1687H21.5214V37.3263H21.7299V37.4345H21.5214V37.8274C21.5214 37.9051 21.5617 37.9498 21.6351 37.9498C21.673 37.9498 21.7109 37.938 21.7394 37.9145L21.7796 38.0086Z" fill="white"/>
<path d="M21.9219 37.1005C21.9219 37.0534 21.9598 37.0134 22.0119 37.0134C22.0616 37.0134 22.1019 37.0511 22.1019 37.0958C22.1019 37.1452 22.064 37.1828 22.0119 37.1828C21.9598 37.1852 21.9219 37.1499 21.9219 37.1005ZM21.9456 37.3263H22.0782V38.0509H21.9456V37.3263Z" fill="white"/>
<path d="M22.9777 37.3263L22.6579 38.0509H22.5229L22.2031 37.3263H22.3405L22.5916 37.9074L22.8474 37.3263H22.9777Z" fill="white"/>
<path d="M23.7326 37.731H23.1405C23.157 37.858 23.2613 37.9427 23.4057 37.9427C23.491 37.9427 23.5621 37.9145 23.6166 37.8557L23.69 37.9404C23.6237 38.018 23.5242 38.058 23.401 38.058C23.1665 38.058 23.0078 37.9027 23.0078 37.6863C23.0078 37.4722 23.1641 37.3169 23.375 37.3169C23.5858 37.3169 23.735 37.4675 23.735 37.691C23.7374 37.7027 23.735 37.7192 23.7326 37.731ZM23.1405 37.6369H23.6094C23.5952 37.5145 23.5029 37.4298 23.375 37.4298C23.2494 37.4298 23.1547 37.5145 23.1405 37.6369Z" fill="white"/>
<path d="M21.7326 15.4472C21.7326 14.3626 20.7472 13.5086 19.6174 13.718C18.9068 13.8497 18.3407 14.4261 18.2151 15.1343C18.137 15.5766 18.2293 15.993 18.433 16.3364L18.4378 16.3435C18.5065 16.4564 18.5917 16.5388 18.677 16.6587L19.7074 18.0138C19.8353 18.1832 20.0911 18.1832 20.219 18.0138L21.2304 16.6823C21.2304 16.6823 21.4199 16.4588 21.4886 16.3435L21.4933 16.3388C21.6402 16.0753 21.7326 15.7718 21.7326 15.4472ZM19.9584 16.2141C19.5274 16.2141 19.1792 15.8683 19.1792 15.4401C19.1792 15.0119 19.5274 14.6661 19.9584 14.6661C20.3895 14.6661 20.7377 15.0119 20.7377 15.4401C20.7377 15.8683 20.3895 16.2141 19.9584 16.2141Z" fill="#E8505B"/>
<path d="M10.2613 84.8182H9.92969V84.6983H10.7279V84.8182H10.3963V85.6558H10.2589V84.8182H10.2613Z" fill="#263238"/>
<path d="M10.7188 85.2935C10.7188 85.077 10.8798 84.9241 11.0977 84.9241C11.3156 84.9241 11.4767 85.077 11.4767 85.2935C11.4767 85.5099 11.318 85.6652 11.0977 85.6652C10.8798 85.6652 10.7188 85.5099 10.7188 85.2935ZM11.3417 85.2935C11.3417 85.1382 11.2375 85.0394 11.0977 85.0394C10.958 85.0394 10.8514 85.1382 10.8514 85.2935C10.8514 85.4487 10.958 85.5499 11.0977 85.5499C11.2375 85.5499 11.3417 85.4487 11.3417 85.2935Z" fill="#263238"/>
<path d="M12.0687 85.6134C12.0284 85.6487 11.9692 85.6652 11.91 85.6652C11.7631 85.6652 11.6779 85.5852 11.6779 85.437V85.0394H11.5547V84.9312H11.6779V84.7735H11.8105V84.9312H12.0189V85.0394H11.8105V85.4323C11.8105 85.5099 11.8508 85.5546 11.9242 85.5546C11.9621 85.5546 12 85.5428 12.0284 85.5193L12.0687 85.6134Z" fill="#263238"/>
<path d="M12.8067 85.2182V85.6558H12.6811V85.5593C12.6361 85.6252 12.5556 85.6628 12.4419 85.6628C12.2761 85.6628 12.1719 85.5758 12.1719 85.4487C12.1719 85.3335 12.2477 85.237 12.4656 85.237H12.674V85.2111C12.674 85.1006 12.6101 85.037 12.4774 85.037C12.3898 85.037 12.3022 85.0676 12.2453 85.1147L12.1908 85.0159C12.2666 84.9547 12.3756 84.9218 12.4916 84.9218C12.693 84.9241 12.8067 85.0206 12.8067 85.2182ZM12.674 85.4346V85.3335H12.4703C12.34 85.3335 12.3021 85.3829 12.3021 85.4464C12.3021 85.5193 12.3637 85.564 12.4632 85.564C12.5627 85.564 12.6409 85.5193 12.674 85.4346Z" fill="#263238"/>
<path d="M13.0547 84.6418H13.1873V85.6558H13.0547V84.6418Z" fill="#263238"/>
<path d="M14.4923 84.6418V85.6558H14.3644V85.5405C14.3052 85.6228 14.2128 85.6628 14.1039 85.6628C13.8907 85.6628 13.7344 85.5146 13.7344 85.2911C13.7344 85.07 13.8907 84.9217 14.1039 84.9217C14.2081 84.9217 14.2981 84.9594 14.3597 85.037V84.6371H14.4923V84.6418ZM14.3621 85.2935C14.3621 85.1382 14.2555 85.0394 14.1181 85.0394C13.9783 85.0394 13.8718 85.1382 13.8718 85.2935C13.8718 85.4487 13.9783 85.5499 14.1181 85.5499C14.2555 85.5499 14.3621 85.4487 14.3621 85.2935Z" fill="#263238"/>
<path d="M14.7188 84.7077C14.7188 84.6606 14.7566 84.6206 14.8088 84.6206C14.8585 84.6206 14.8988 84.6583 14.8988 84.7053C14.8988 84.7547 14.8609 84.7924 14.8088 84.7924C14.7566 84.7924 14.7188 84.7547 14.7188 84.7077ZM14.7424 84.9312H14.8751V85.6558H14.7424V84.9312Z" fill="#263238"/>
<path d="M15.0391 85.5805L15.0935 85.477C15.1551 85.5217 15.2546 85.5522 15.3494 85.5522C15.4725 85.5522 15.5223 85.5146 15.5223 85.4534C15.5223 85.2911 15.0604 85.4323 15.0604 85.1429C15.0604 85.0135 15.1764 84.9265 15.3636 84.9265C15.4583 84.9265 15.5649 84.95 15.6289 84.9923L15.572 85.0958C15.5057 85.0535 15.4323 85.0394 15.3612 85.0394C15.2451 85.0394 15.1883 85.0817 15.1883 85.1382C15.1883 85.3099 15.6502 85.1688 15.6502 85.4511C15.6502 85.5828 15.5294 85.6652 15.3351 85.6652C15.2191 85.6652 15.0983 85.6275 15.0391 85.5805Z" fill="#263238"/>
<path d="M16.2249 85.6134C16.1847 85.6487 16.1254 85.6652 16.0662 85.6652C15.9194 85.6652 15.8341 85.5852 15.8341 85.437V85.0394H15.7109V84.9312H15.8341V84.7735H15.9668V84.9312H16.1752V85.0394H15.9668V85.4323C15.9668 85.5099 16.007 85.5546 16.0804 85.5546C16.1183 85.5546 16.1562 85.5428 16.1847 85.5193L16.2249 85.6134Z" fill="#263238"/>
<path d="M16.9707 85.2182V85.6558H16.8452V85.5593C16.8002 85.6252 16.7197 85.6628 16.606 85.6628C16.4402 85.6628 16.3359 85.5758 16.3359 85.4487C16.3359 85.3335 16.4117 85.237 16.6296 85.237H16.8381V85.2111C16.8381 85.1006 16.7741 85.037 16.6415 85.037C16.5539 85.037 16.4662 85.0676 16.4094 85.1147L16.3549 85.0159C16.4307 84.9547 16.5396 84.9218 16.6557 84.9218C16.857 84.9241 16.9707 85.0206 16.9707 85.2182ZM16.8381 85.4346V85.3335H16.6344C16.5041 85.3335 16.4662 85.3829 16.4662 85.4464C16.4662 85.5193 16.5278 85.564 16.6273 85.564C16.7268 85.564 16.8049 85.5193 16.8381 85.4346Z" fill="#263238"/>
<path d="M17.9049 85.2394V85.6558H17.7723V85.2535C17.7723 85.1123 17.7012 85.0417 17.5757 85.0417C17.436 85.0417 17.3436 85.1241 17.3436 85.2817V85.6558H17.2109V84.9312H17.3388V85.0394C17.3933 84.9664 17.4857 84.9241 17.6018 84.9241C17.7794 84.9241 17.9049 85.0253 17.9049 85.2394Z" fill="#263238"/>
<path d="M18.0859 85.2935C18.0859 85.077 18.247 84.9241 18.472 84.9241C18.6023 84.9241 18.7113 84.9782 18.7705 85.0794L18.671 85.1429C18.6236 85.0723 18.5526 85.0394 18.472 85.0394C18.3299 85.0394 18.2209 85.1382 18.2209 85.2935C18.2209 85.4511 18.3275 85.5499 18.472 85.5499C18.5526 85.5499 18.6236 85.517 18.671 85.4464L18.7705 85.5099C18.7136 85.6111 18.6047 85.6652 18.472 85.6652C18.247 85.6652 18.0859 85.5099 18.0859 85.2935Z" fill="#263238"/>
<path d="M19.5842 85.3382H18.992C19.0086 85.4652 19.1128 85.5499 19.2573 85.5499C19.3426 85.5499 19.4136 85.5217 19.4681 85.4628L19.5415 85.5475C19.4752 85.6252 19.3757 85.6652 19.2526 85.6652C19.0181 85.6652 18.8594 85.5099 18.8594 85.2935C18.8594 85.0794 19.0157 84.9241 19.2265 84.9241C19.4373 84.9241 19.5865 85.0747 19.5865 85.2982C19.5865 85.3099 19.5842 85.3264 19.5842 85.3382ZM18.992 85.2441H19.461C19.4468 85.1217 19.3544 85.037 19.2265 85.037C19.0986 85.0347 19.0039 85.1194 18.992 85.2441Z" fill="#263238"/>
<path d="M11.1253 86.7309V89.0153H10.5923V87.1544H10.1328V86.7309H11.1253Z" fill="#263238"/>
<path d="M12.1481 88.7212C12.1481 88.8059 12.1338 88.8671 12.0604 89.0482L11.8733 89.5188H11.5488L11.6933 89.0012C11.5843 88.9588 11.5156 88.8577 11.5156 88.7236C11.5156 88.5354 11.653 88.4107 11.8354 88.4107C12.0178 88.4083 12.1481 88.5354 12.1481 88.7212Z" fill="#263238"/>
<path d="M13.219 86.7309V89.0153H12.6861V87.1544H12.2266V86.7309H13.219Z" fill="#263238"/>
<path d="M13.625 87.8719C13.625 87.1191 14.0466 86.6909 14.6104 86.6909C15.1788 86.6909 15.5957 87.1191 15.5957 87.8719C15.5957 88.6248 15.1788 89.0529 14.6104 89.0529C14.0466 89.0529 13.625 88.6248 13.625 87.8719ZM15.0604 87.8719C15.0604 87.352 14.8756 87.1379 14.6104 87.1379C14.3474 87.1379 14.1627 87.3544 14.1627 87.8719C14.1627 88.3919 14.3474 88.6059 14.6104 88.6059C14.878 88.6059 15.0604 88.3919 15.0604 87.8719Z" fill="#263238"/>
<path d="M15.8516 87.8719C15.8516 87.1191 16.2732 86.6909 16.8369 86.6909C17.4054 86.6909 17.8223 87.1191 17.8223 87.8719C17.8223 88.6248 17.4054 89.0529 16.8369 89.0529C16.2708 89.0529 15.8516 88.6248 15.8516 87.8719ZM17.287 87.8719C17.287 87.352 17.1022 87.1379 16.8369 87.1379C16.574 87.1379 16.3892 87.3544 16.3892 87.8719C16.3892 88.3919 16.574 88.6059 16.8369 88.6059C17.1022 88.6059 17.287 88.3919 17.287 87.8719Z" fill="#263238"/>
<path d="M22.1071 88.0084V89.0129H21.5955V88.086C21.5955 87.8014 21.4676 87.672 21.2615 87.672C21.0318 87.672 20.8707 87.8178 20.8707 88.1331V89.0153H20.3591V88.0884C20.3591 87.8037 20.2383 87.6743 20.0251 87.6743C19.7977 87.6743 19.6366 87.8202 19.6366 88.1354V89.0177H19.125V87.2626H19.6153V87.4649C19.7456 87.3144 19.9445 87.2367 20.1696 87.2367C20.4159 87.2367 20.6267 87.3308 20.7499 87.5237C20.892 87.345 21.1218 87.2367 21.387 87.2367C21.8039 87.232 22.1071 87.4743 22.1071 88.0084Z" fill="#263238"/>
<path d="M8.71968 87.0001C8.97031 85.9415 8.30948 84.8816 7.24367 84.6327C6.17787 84.3837 5.11068 85.0401 4.86006 86.0987C4.60943 87.1573 5.27026 88.2172 6.33606 88.4661C7.40187 88.7151 8.46905 88.0587 8.71968 87.0001Z" fill="#E8505B"/>
<path d="M5.99435 86.9097C5.99435 86.8979 6.1791 86.8885 6.5036 86.8791C6.82811 86.8697 7.28999 86.8627 7.84425 86.858L7.80398 86.945C7.64766 86.7662 7.47711 86.5686 7.2971 86.3639L7.26394 86.3263L7.29473 86.2886C7.45343 86.091 7.6216 85.884 7.79451 85.6675L7.84188 85.7663C7.77082 85.7663 7.69266 85.7663 7.61686 85.7663C7.03181 85.764 6.47992 85.7616 5.99198 85.7593L6.04646 85.7052C6.04172 86.3027 6.03461 86.8062 6.02514 87.1591C6.01567 87.512 6.00382 87.7167 5.99198 87.7167C5.98014 87.7167 5.96829 87.512 5.95882 87.1591C5.94934 86.8062 5.94224 86.3027 5.9375 85.7052V85.6511H5.99198C6.47992 85.6487 7.03181 85.6464 7.61686 85.644C7.69503 85.644 7.77082 85.644 7.84188 85.644H7.97216L7.89162 85.7428C7.71635 85.9569 7.54817 86.1639 7.38711 86.3592V86.2839C7.56238 86.4909 7.73056 86.6909 7.88452 86.8721L7.96031 86.9615H7.84425C7.28999 86.9568 6.82574 86.9497 6.5036 86.9403C6.1791 86.9332 5.99435 86.9215 5.99435 86.9097Z" fill="#FAFAFA"/>
<path d="M38.868 83.1902H32.873C32.2406 83.1902 31.7266 83.7008 31.7266 84.3289V89.0153C31.7266 89.6434 32.2406 90.1539 32.873 90.1539H33.0246V91.2714L34.3297 90.1539H38.868C39.5004 90.1539 40.0144 89.6434 40.0144 89.0153V84.3289C40.0144 83.7008 39.5004 83.1902 38.868 83.1902Z" fill="#E8505B"/>
<path d="M33.4453 85.3405V87.7449C33.4453 87.7966 33.4879 87.839 33.5401 87.839H38.6137C38.6658 87.839 38.7084 87.7966 38.7084 87.7449L38.6966 86.865C38.6966 86.8462 38.6895 86.825 38.6776 86.8109L37.9505 85.844C37.9339 85.8205 37.9055 85.8063 37.8747 85.8063L37.0362 85.7993C36.9841 85.7993 36.9414 85.7569 36.9414 85.7052V85.3429C36.9414 85.2911 36.8988 85.2488 36.8467 85.2488H33.5377C33.4879 85.2464 33.4453 85.2888 33.4453 85.3405Z" fill="#FAFAFA"/>
<path d="M37.1797 86.0087V86.7803C37.1797 86.8109 37.2034 86.8344 37.2342 86.8344L38.3545 86.8156C38.3972 86.8156 38.4232 86.7662 38.3972 86.7309L37.8737 85.964C37.8642 85.9498 37.8453 85.9404 37.8263 85.9404L37.2294 85.9569C37.2034 85.9545 37.1797 85.9781 37.1797 86.0087Z" fill="#E8505B"/>
<path d="M38.8082 87.9119H33.3438V88.079H38.8082V87.9119Z" fill="#FAFAFA"/>
<path d="M35.1504 87.9754C35.1504 88.2719 34.9088 88.5118 34.6104 88.5118C34.3119 88.5118 34.0703 88.2719 34.0703 87.9754C34.0703 87.679 34.3119 87.439 34.6104 87.439C34.9088 87.439 35.1504 87.679 35.1504 87.9754Z" fill="#E8505B"/>
<path d="M34.9317 87.9754C34.9317 88.1495 34.7896 88.2907 34.6143 88.2907C34.439 88.2907 34.2969 88.1495 34.2969 87.9754C34.2969 87.8013 34.439 87.6602 34.6143 87.6602C34.7896 87.6602 34.9317 87.8013 34.9317 87.9754Z" fill="#FAFAFA"/>
<path d="M36.9378 87.839C36.9235 87.839 36.9141 87.2579 36.9141 86.5427C36.9141 85.8275 36.9259 85.2464 36.9378 85.2464C36.952 85.2464 36.9614 85.8251 36.9614 86.5427C36.9614 87.2579 36.952 87.839 36.9378 87.839Z" fill="#E8505B"/>
<path d="M38.0957 87.9754C38.0957 88.2719 37.8541 88.5118 37.5557 88.5118C37.2572 88.5118 37.0156 88.2719 37.0156 87.9754C37.0156 87.679 37.2572 87.439 37.5557 87.439C37.8541 87.439 38.0957 87.679 38.0957 87.9754Z" fill="#E8505B"/>
<path d="M37.8692 87.9754C37.8692 88.1495 37.7271 88.2907 37.5518 88.2907C37.3765 88.2907 37.2344 88.1495 37.2344 87.9754C37.2344 87.8013 37.3765 87.6602 37.5518 87.6602C37.7271 87.6602 37.8692 87.8013 37.8692 87.9754Z" fill="#FAFAFA"/>
<path d="M37.5568 86.985C37.5568 86.9991 37.4786 87.0085 37.3838 87.0085C37.2891 87.0085 37.2109 86.9968 37.2109 86.985C37.2109 86.9709 37.2891 86.9615 37.3838 86.9615C37.481 86.9591 37.5568 86.9709 37.5568 86.985Z" fill="#E8505B"/>
<path d="M94.0828 47.5248C94.0828 47.5248 97.9034 48.1671 98.2113 48.2471C98.5192 48.3294 99.7296 48.8988 99.7912 49.2658C99.8528 49.6328 99.7912 50.7126 99.7912 50.7126C99.7912 50.7126 99.5733 50.8891 99.4359 50.5362C99.2985 50.1833 99.3198 49.4846 99.3198 49.4846L98.6424 49.2258L99.0119 49.8774L99.0735 51.4043C99.0735 51.4043 98.5998 51.3619 98.5098 50.9949C98.4174 50.6303 98.4197 50.2209 98.4197 50.2209L97.9271 49.8045L98.2966 50.3009L98.4221 51.4019C98.4221 51.4019 98.0621 51.5172 97.9484 51.2725C97.8347 51.0279 97.8252 50.3009 97.8252 50.3009L96.4325 49.8186L95.5111 50.3291L93.7891 49.3622L94.0828 47.5248Z" fill="#FFBE9D"/>
<path d="M80.7067 38.145C80.7233 38.2203 85.3113 44.4923 85.3113 44.4923L94.5253 47.339L94.1061 50.7761L82.8124 48.5176L78.8047 43.9489L80.7067 38.145Z" fill="#E8505B"/>
<g opacity="0.2">
<path d="M80.7067 38.145C80.7233 38.2203 85.3113 44.4923 85.3113 44.4923L94.5253 47.339L94.1061 50.7761L82.8124 48.5176L78.8047 43.9489L80.7067 38.145Z" fill="black"/>
</g>
<path d="M64.6577 50.4209H45.8318C45.4339 50.4209 45.1094 50.101 45.1094 49.7034V47.4943C45.1094 47.099 45.4315 46.7767 45.8318 46.7767H64.6577C65.0557 46.7767 65.3802 47.0967 65.3802 47.4943V49.7034C65.3802 50.101 65.0557 50.4209 64.6577 50.4209Z" fill="#F5F5F5"/>
<path d="M64.661 50.4209C64.661 50.4162 64.7012 50.4186 64.7794 50.4044C64.8552 50.388 64.9736 50.3574 65.0944 50.2609C65.2129 50.1692 65.336 50.0068 65.3597 49.7857C65.3692 49.5646 65.3597 49.3011 65.3597 49.0093C65.3573 48.7153 65.3573 48.3906 65.355 48.033C65.355 47.8542 65.3526 47.6684 65.3526 47.4755C65.3479 47.2896 65.2626 47.1014 65.1086 46.972C65.0328 46.9061 64.9405 46.8591 64.841 46.8332C64.7415 46.805 64.6349 46.8097 64.5212 46.8097C64.2962 46.8097 64.0664 46.812 63.8296 46.812C63.3535 46.8144 62.8513 46.8144 62.3255 46.8167C58.1022 46.8214 52.273 46.8285 45.8374 46.8355C45.6527 46.8332 45.4703 46.9155 45.3495 47.0496C45.2239 47.1861 45.1647 47.3649 45.1766 47.5554C45.1766 47.9507 45.1766 48.3436 45.1766 48.7317C45.1766 48.927 45.1766 49.1199 45.1766 49.3128V49.6022C45.1766 49.701 45.1766 49.7857 45.2002 49.8728C45.2453 50.0421 45.3637 50.1904 45.5176 50.275C45.5934 50.3174 45.6787 50.3433 45.7664 50.3527C45.8493 50.3597 45.9511 50.355 46.0459 50.3574C47.5641 50.3597 49.028 50.3597 50.4231 50.3621C53.211 50.3668 55.7241 50.3715 57.8369 50.3762C59.9426 50.3833 61.6481 50.3903 62.8347 50.395C63.4198 50.3997 63.8769 50.4044 64.1943 50.4068C64.3459 50.4091 64.462 50.4115 64.5473 50.4138C64.6207 50.4162 64.661 50.4209 64.661 50.4209C64.661 50.4209 64.6207 50.4256 64.5402 50.428C64.4549 50.4303 64.3388 50.4303 64.1872 50.435C63.8722 50.4374 63.4151 50.4421 62.8276 50.4468C61.6433 50.4515 59.9355 50.4585 57.8298 50.4656C55.7194 50.4703 53.2062 50.4727 50.416 50.4797C49.0209 50.4797 47.557 50.4821 46.0387 50.4844C45.9416 50.4821 45.854 50.4891 45.7474 50.4797C45.6456 50.468 45.5437 50.4374 45.4537 50.388C45.2713 50.2892 45.1316 50.1127 45.0771 49.9127C45.0487 49.8139 45.0487 49.7034 45.0487 49.6116V49.3222C45.0487 49.1293 45.0487 48.9341 45.0487 48.7411C45.0487 48.3506 45.0487 47.9601 45.0487 47.5648C45.0344 47.3625 45.1055 47.132 45.2524 46.9767C45.3968 46.8167 45.6148 46.7203 45.8327 46.7226C52.2683 46.7297 58.0975 46.7367 62.3207 46.7414C62.8489 46.7438 63.3511 46.7438 63.8248 46.7461C64.0617 46.7461 64.2938 46.7485 64.5165 46.7485C64.6254 46.7485 64.7439 46.7438 64.8528 46.7767C64.9618 46.8073 65.0636 46.8591 65.1465 46.932C65.3147 47.0755 65.4071 47.2825 65.4094 47.4849C65.4094 47.6778 65.4095 47.8636 65.4071 48.0424C65.4047 48.3977 65.4023 48.7247 65.4023 49.0188C65.3976 49.3128 65.4047 49.5693 65.3905 49.7998C65.3597 50.0327 65.2294 50.1974 65.1039 50.2915C64.976 50.388 64.8552 50.4138 64.777 50.428C64.7012 50.428 64.661 50.4209 64.661 50.4209Z" fill="#263238"/>
<path d="M115.775 96.9804C121.118 96.7254 125.241 92.2169 124.984 86.9104C124.727 81.604 120.188 77.5089 114.846 77.7639C109.503 78.019 105.38 82.5274 105.637 87.8339C105.894 93.1404 110.433 97.2354 115.775 96.9804Z" fill="#263238"/>
<path d="M105.628 87.2156C105.628 87.225 105.626 87.232 105.626 87.2414C105.548 92.5536 109.821 96.9224 115.169 96.9977C120.518 97.0753 124.916 92.8312 124.992 87.519C124.992 87.5096 124.992 87.5026 124.992 87.4932L105.628 87.2156Z" fill="#263238"/>
<path d="M108.516 87.2814C108.462 91.0103 111.463 94.0781 115.217 94.1322C118.972 94.1863 122.06 91.2056 122.115 87.4767C122.169 83.7478 119.168 80.68 115.414 80.6259C111.66 80.5742 108.571 83.5526 108.516 87.2814Z" fill="#FAFAFA"/>
<path d="M115.413 80.6259C111.659 80.5718 108.57 83.5526 108.516 87.2814L122.114 87.4767C122.168 83.7478 119.167 80.68 115.413 80.6259Z" fill="#E0E0E0"/>
<path d="M111.172 87.3214C111.139 89.594 112.968 91.462 115.253 91.4949C117.542 91.5279 119.422 89.7117 119.455 87.4414C119.489 85.1688 117.66 83.3008 115.374 83.2679C113.086 83.2326 111.205 85.0488 111.172 87.3214Z" fill="#263238"/>
<path d="M110.711 73.2741C110.711 73.2741 120.626 70.2957 124.728 80.9953L103.977 87.3802L110.711 73.2741Z" fill="#E8505B"/>
<path d="M56.0176 96.9824C61.3602 96.7274 65.4832 92.2189 65.2264 86.9124C64.9697 81.6059 60.4304 77.5109 55.0878 77.7659C49.7451 78.0209 45.6222 82.5294 45.879 87.8359C46.1357 93.1424 50.6749 97.2374 56.0176 96.9824Z" fill="#263238"/>
<path d="M45.8706 87.2156C45.8706 87.225 45.8682 87.232 45.8682 87.2414C45.7901 92.5536 50.0631 96.9224 55.4115 96.9977C60.7599 97.0753 65.1584 92.8312 65.2342 87.519C65.2342 87.5096 65.2342 87.5026 65.2342 87.4932L45.8706 87.2156Z" fill="#263238"/>
<path d="M48.7507 87.2814C48.6963 91.0103 51.6973 94.0781 55.4516 94.1322C59.2059 94.1863 62.2946 91.2056 62.3491 87.4767C62.4035 83.7478 59.4025 80.68 55.6482 80.6259C51.8915 80.5742 48.8052 83.5526 48.7507 87.2814Z" fill="#FAFAFA"/>
<path d="M55.6475 80.6259C51.8932 80.5718 48.8045 83.5526 48.75 87.2814L62.3483 87.4767C62.4028 83.7478 59.4041 80.68 55.6475 80.6259Z" fill="#E0E0E0"/>
<path d="M51.4145 87.3214C51.3813 89.594 53.2099 91.462 55.4957 91.4949C57.7838 91.5279 59.6645 89.7117 59.6976 87.4414C59.7308 85.1688 57.9022 83.3008 55.6165 83.2679C53.3284 83.2326 51.4477 85.0488 51.4145 87.3214Z" fill="#263238"/>
<path d="M69.3327 83.5173C69.2782 83.5455 64.2354 82.7433 64.2354 82.7433C63.6835 83.4584 62.8402 83.896 61.9354 83.9384C59.7563 84.0419 57.6269 84.1384 55.7817 84.2183C54.0621 84.2936 52.7285 85.7405 52.7996 87.4485V87.4508C52.8683 89.067 54.1734 90.3586 55.8006 90.4221L66.5258 90.8409C68.2905 90.9091 70.633 89.8458 71.7345 88.4742L69.3327 83.5173Z" fill="#455A64"/>
<path d="M42.9807 79.2614C42.9807 79.2614 42.5188 69.8863 51.3893 67.9337V66.7315H82.4635V69.5969C82.4635 69.5969 77.9015 75.0526 79.3913 79.5814C80.8812 84.1125 81.3455 84.5736 81.3455 84.5736H99.0297C99.0297 84.5736 101.171 81.8916 101.263 77.9181C101.356 73.9422 99.6929 67.1455 98.4518 62.8003C97.3219 58.8503 96.609 55.5449 96.609 55.5449L101.915 53.7875C101.915 53.7875 111.733 66.5362 112.133 67.2537C112.533 67.9713 113.898 69.644 113.575 73.307C113.253 76.97 104.433 88.2836 102.107 89.5564C99.7806 90.8315 97.6962 90.9115 95.6094 91.2291C93.7998 91.5067 80.4099 91.3232 76.909 91.2691C75.6915 91.2503 74.4906 90.9421 73.4508 90.3163C72.4039 89.6858 71.6151 88.6412 70.7458 86.9285L68.9007 83.3432L42.9807 79.2614Z" fill="#E8505B"/>
<path d="M45.3587 78.6097L41.4433 84.6983C40.9412 85.477 41.7536 86.458 42.6063 86.091C43.0208 85.9122 43.4661 85.6346 43.9185 85.2064C45.7092 83.5149 48.8998 79.0591 48.8998 79.0591L45.3587 78.6097Z" fill="#455A64"/>
<path d="M73.4247 79.706C73.4223 79.706 73.4294 79.6755 73.4484 79.6167C73.4673 79.5531 73.4934 79.4684 73.5266 79.3602C73.5929 79.1344 73.6734 78.7979 73.7326 78.3557C73.8321 77.4781 73.7871 76.1395 73.1263 74.6809C72.8041 73.9539 72.328 73.2105 71.6838 72.5283C71.0371 71.8507 70.2389 71.2249 69.3056 70.7262C68.3771 70.2251 67.3255 69.8298 66.2027 69.5781C65.0776 69.3264 63.8815 69.2135 62.6569 69.2135C61.4323 69.2135 60.2385 69.3217 59.0921 69.4722C57.9457 69.6252 56.8466 69.8134 55.8092 70.0486C53.7366 70.5121 51.9341 71.1967 50.5389 71.9848C49.1391 72.7682 48.1466 73.6246 47.526 74.2668C47.2134 74.5868 46.9884 74.8526 46.8391 75.0361C46.7681 75.1232 46.7136 75.1938 46.671 75.2455C46.6331 75.2926 46.6117 75.3161 46.6094 75.3137C46.6094 75.3137 46.8747 74.8903 47.4905 74.2339C48.1016 73.5775 49.0917 72.7071 50.4939 71.9095C51.8914 71.105 53.7034 70.4086 55.7831 69.9381C56.8229 69.7004 57.9243 69.5075 59.0755 69.3523C60.2243 69.1993 61.4252 69.0888 62.6569 69.0888C63.8886 69.0888 65.0942 69.204 66.2288 69.4581C67.3634 69.7122 68.4221 70.1122 69.3601 70.6227C70.3005 71.1285 71.1082 71.766 71.7596 72.4553C72.4086 73.1494 72.887 73.9045 73.2068 74.6433C73.8629 76.123 73.8961 77.4781 73.78 78.358C73.7137 78.8027 73.626 79.1414 73.5502 79.3649C73.5123 79.4708 73.4815 79.5555 73.4602 79.6167C73.4389 79.6778 73.4271 79.706 73.4247 79.706Z" fill="#263238"/>
<path d="M71.6338 77.6005C71.6195 77.5958 71.6859 77.4523 71.7498 77.1841C71.8232 76.9159 71.854 76.5089 71.7853 76.0195C71.7167 75.5278 71.5272 74.9609 71.2074 74.3845C71.0511 74.0951 70.8592 73.8081 70.6342 73.5281C70.4139 73.2458 70.1557 72.9776 69.8644 72.7353C69.2793 72.2483 68.6303 71.9048 68.0169 71.6625C67.3986 71.4249 66.816 71.2838 66.3209 71.2014C65.8259 71.1191 65.4185 71.0838 65.139 71.0673C64.8571 71.0508 64.7031 71.0438 64.7031 71.0344C64.7031 71.0297 64.741 71.0273 64.8168 71.0226C64.8902 71.0203 65.0016 71.0156 65.1413 71.0179C65.4232 71.0203 65.833 71.0414 66.3351 71.1144C66.8373 71.1849 67.4294 71.319 68.0595 71.5543C68.6848 71.7966 69.348 72.1425 69.9449 72.6389C70.2434 72.8882 70.5063 73.1611 70.7313 73.4505C70.9587 73.7352 71.1529 74.0316 71.3093 74.328C71.629 74.9162 71.8138 75.4996 71.873 76.0054C71.9322 76.5089 71.8872 76.9253 71.7972 77.1935C71.7688 77.3323 71.7095 77.4288 71.6835 77.4993C71.6551 77.5676 71.6385 77.6028 71.6338 77.6005Z" fill="#F5F5F5"/>
<g opacity="0.4">
<path d="M65.5469 69.3876C67.2831 69.7169 68.8014 70.3357 70.2249 71.279C71.6485 72.2224 72.7404 73.5611 73.3586 75.1467C73.9769 76.7324 73.8868 78.8332 73.2331 80.146L75.4288 80.3271C76.1678 77.8781 75.3625 74.8738 73.586 72.9564C71.504 70.7074 68.6379 69.3876 65.5469 69.3876Z" fill="black"/>
</g>
<path d="M64.8513 66.7315H45.6417C44.5189 66.7315 43.6094 65.8281 43.6094 64.7129V52.2559C43.6094 51.1408 44.5189 50.2374 45.6417 50.2374H64.8489C65.9717 50.2374 66.8812 51.1408 66.8812 52.2559V64.7129C66.8812 65.8281 65.9717 66.7315 64.8513 66.7315Z" fill="#455A64"/>
<path d="M66.8791 53.9169C66.8791 53.9498 61.6468 53.978 55.1947 53.978C48.7401 53.978 43.5078 53.9498 43.5078 53.9169C43.5078 53.8839 48.7401 53.8557 55.1947 53.8557C61.6468 53.8557 66.8791 53.8839 66.8791 53.9169Z" fill="#263238"/>
<path d="M82.4449 67.8231C82.4449 67.856 75.4598 67.8842 66.8475 67.8842C58.2304 67.8842 51.25 67.856 51.25 67.8231C51.25 67.7901 58.2327 67.7619 66.8475 67.7619C75.4622 67.7619 82.4449 67.7901 82.4449 67.8231Z" fill="#263238"/>
<path d="M82.4629 66.7315C82.4629 66.7315 82.9745 66.1245 83.0243 65.3481C83.074 64.5718 82.7163 63.6049 81.8778 63.6049H71.1479C69.4093 63.6049 68 65.0047 68 66.7315H82.4629Z" fill="#455A64"/>
<path d="M96.6089 55.5449L94.7425 51.6795C94.2332 50.5809 94.6382 49.2752 95.6852 48.6565L101.266 45.351C101.557 45.1793 101.891 45.0876 102.23 45.0876H103.435L103.919 52.9005L102.059 53.6063L103.236 55.5072L96.6089 55.5449Z" fill="#E8505B"/>
<path d="M103.453 45.3699C103.453 45.3699 105.362 45.8051 105.601 48.727C105.841 51.6513 103.917 52.5594 103.917 52.5594L103.453 45.3699Z" fill="#EBEBEB"/>
<path d="M97.2646 50.1645C97.2646 50.1645 93.406 51.9807 92.9347 52.2795C92.6078 52.4865 92.3283 52.8488 92.5841 53.4863C93.0223 54.5733 94.8249 53.5499 94.8249 53.5499L98.4157 51.7666C98.4157 51.7666 99.7966 51.1196 99.2874 50.308C98.7165 49.4022 97.2646 50.1645 97.2646 50.1645Z" fill="#263238"/>
<path d="M91.8038 49.5034C91.8038 49.5034 95.4279 50.1198 95.7358 50.2021C96.0437 50.2845 97.2541 50.8538 97.3157 51.2208C97.3773 51.5878 97.3157 52.6676 97.3157 52.6676C97.3157 52.6676 97.0978 52.8441 96.9604 52.4912C96.823 52.1383 96.8443 51.4396 96.8443 51.4396L96.1669 51.1808L96.5364 51.8325L96.598 53.3593C96.598 53.3593 96.1242 53.317 96.0342 52.9499C95.9419 52.5853 95.9442 52.1759 95.9442 52.1759L95.4516 51.7595L95.8211 52.2559L95.9466 53.3569C95.9466 53.3569 95.5866 53.4722 95.4729 53.2276C95.3592 52.9829 95.3497 52.2559 95.3497 52.2559L93.9569 51.7736L93.0355 52.2842L91.5859 51.496L91.8038 49.5034Z" fill="#FFBE9D"/>
<path d="M97.4426 44.4877C97.4426 45.9463 96.7675 47.1273 95.9361 47.1273C95.1047 47.1273 94.4297 45.9463 94.4297 44.4877C94.4297 43.029 95.1047 41.848 95.9361 41.848C96.7699 41.848 97.4426 43.0314 97.4426 44.4877Z" fill="#263238"/>
<path d="M96.1875 46.3015L97.0142 49.1505C97.3837 48.9646 97.4618 48.5976 97.4002 48.3083C97.1918 47.3319 97.0757 46.6379 96.846 45.7816C96.8199 45.6992 96.1875 46.3015 96.1875 46.3015Z" fill="#263238"/>
<g opacity="0.4">
<path d="M79.7998 80.8C79.7169 80.5648 79.634 80.3248 79.5558 80.0778C79.4824 79.8472 79.3947 79.6096 79.3331 79.3814C79.2194 78.972 79.1531 78.5509 79.1271 78.3086C77.7296 83.9596 79.8637 87.9378 83.5256 88.2178C88.8764 88.6271 95.402 88.9235 98.0406 88.2366C102.851 86.9826 104.616 82.9997 105.038 82.341C105.459 81.6846 109.285 74.7374 106.94 68.0489C104.595 61.3605 100.506 54.258 100.506 54.258L96.61 55.5472C96.61 55.5472 97.3229 58.8503 98.4528 62.8026C99.6939 67.1479 101.357 73.9445 101.264 77.9204C101.172 81.8963 99.0307 84.5759 99.0307 84.5759H81.3465C81.3441 84.5736 80.9651 84.1972 79.7998 80.8Z" fill="black"/>
</g>
<path d="M42.2737 77.791L42.3992 76.4501L74.679 80.1436C76.5005 80.3554 77.7677 82.0469 77.4479 83.8419L77.3034 84.6536L43.8938 79.8307C42.8943 79.6872 42.1813 78.7909 42.2737 77.791Z" fill="#E8505B"/>
<g opacity="0.6">
<path d="M42.2737 77.791L42.3992 76.4501L74.679 80.1436C76.5005 80.3554 77.7677 82.0469 77.4479 83.8419L77.3034 84.6536L43.8938 79.8307C42.8943 79.6872 42.1813 78.7909 42.2737 77.791Z" fill="black"/>
</g>
<g opacity="0.3">
<path d="M105.039 86.7591C105.039 86.7591 112.145 78.9956 113.611 72.8929C114.104 72.8882 115.25 72.9376 115.812 73.0553C115.812 73.0553 111.61 84.4018 105.039 86.7591Z" fill="black"/>
</g>
<path d="M113.505 70.1592C113.51 70.1592 113.522 70.2251 113.543 70.3545C113.562 70.4839 113.6 70.6744 113.624 70.9214C113.669 71.4155 113.7 72.1448 113.569 73.0294C113.441 73.914 113.136 74.9444 112.631 76.0125C112.139 77.0853 111.456 78.1933 110.751 79.3532C109.327 81.6799 107.742 83.5808 106.591 84.9406C106.013 85.6181 105.535 86.1592 105.203 86.5333C105.042 86.7121 104.914 86.8533 104.82 86.9591C104.73 87.0556 104.682 87.105 104.68 87.1026C104.677 87.1003 104.718 87.0462 104.801 86.9426C104.891 86.8344 105.014 86.6862 105.168 86.5004C105.497 86.1098 105.956 85.5593 106.525 84.8841C107.66 83.5126 109.228 81.6046 110.646 79.2896C111.355 78.1298 112.034 77.0288 112.529 75.9654C113.036 74.9068 113.347 73.8904 113.484 73.0176C113.626 72.1424 113.61 71.4226 113.576 70.9285C113.56 70.6815 113.529 70.4909 113.52 70.3592C113.508 70.2274 113.503 70.1592 113.505 70.1592Z" fill="#263238"/>
<path d="M101.221 86.7027C101.197 86.7262 100.688 86.2698 100.084 85.6817C99.4798 85.0935 99.0084 84.5971 99.0321 84.5736C99.0558 84.5501 99.5651 85.0065 100.171 85.5946C100.773 86.1828 101.244 86.6792 101.221 86.7027Z" fill="#263238"/>
<path d="M80.1356 86.4651C80.1071 86.4509 80.3014 85.9781 80.6566 85.4605C81.0096 84.9406 81.3815 84.5853 81.4028 84.6089C81.4288 84.6324 81.1043 85.0182 80.7585 85.5311C80.4079 86.0392 80.1663 86.4792 80.1356 86.4651Z" fill="#263238"/>
<path d="M66.4762 90.9468C66.4477 90.9233 66.9854 90.5821 67.4449 89.7234C67.6747 89.3 67.8618 88.7471 67.9187 88.1119C67.9779 87.4814 67.8855 86.7662 67.5728 86.1028C67.2483 85.444 66.7486 84.9241 66.218 84.5712C65.685 84.216 65.1355 84.0137 64.6594 83.9243C63.6978 83.7384 63.0938 83.9407 63.0938 83.9031C63.0938 83.8984 63.1293 83.889 63.2003 83.8725C63.2714 83.8584 63.3733 83.8255 63.5106 83.8137C63.783 83.7714 64.1881 83.7596 64.676 83.8419C65.1639 83.9219 65.7324 84.1219 66.2819 84.4795C66.8315 84.8347 67.3502 85.3688 67.6842 86.051C68.0063 86.738 68.0963 87.4743 68.03 88.1237C67.966 88.773 67.7623 89.3376 67.5184 89.7658C67.2768 90.1939 67.0115 90.4998 66.8054 90.6833C66.7083 90.7821 66.6183 90.8386 66.5614 90.8856C66.5093 90.928 66.4785 90.9491 66.4762 90.9468Z" fill="#263238"/>
<path d="M54.6914 88.4883C54.6582 88.4907 54.6061 87.9825 54.5753 87.3567C54.5445 86.7309 54.5493 86.2228 54.5824 86.2204C54.6156 86.2181 54.6677 86.7239 54.6985 87.352C54.7293 87.9778 54.7269 88.4883 54.6914 88.4883Z" fill="#263238"/>
<path d="M55.5455 88.4907C55.5124 88.4954 55.42 87.9896 55.3395 87.3638C55.2589 86.7356 55.221 86.2251 55.2542 86.2204C55.2873 86.2157 55.3797 86.7215 55.4603 87.3497C55.5408 87.9731 55.5787 88.486 55.5455 88.4907Z" fill="#263238"/>
<path d="M68.8584 66.7315C68.8584 66.7644 64.9336 66.7926 60.0944 66.7926C55.253 66.7926 51.3281 66.7644 51.3281 66.7315C51.3281 66.6985 55.253 66.6703 60.0944 66.6703C64.9336 66.6703 68.8584 66.6985 68.8584 66.7315Z" fill="#263238"/>
<path d="M56.1475 66.7197C56.1144 66.7197 56.0859 62.2545 56.0859 56.7494C56.0859 51.242 56.1144 46.7767 56.1475 46.7767C56.1807 46.7767 56.2091 51.2396 56.2091 56.7494C56.2091 62.2545 56.1831 66.7197 56.1475 66.7197Z" fill="#263238"/>
<path d="M53.7464 66.7032C53.7132 66.7009 53.8814 62.2404 54.1206 56.7376C54.3622 51.2349 54.5849 46.7744 54.618 46.7767C54.6512 46.7791 54.483 51.2396 54.2438 56.7423C54.0022 62.2451 53.7795 66.7056 53.7464 66.7032Z" fill="#263238"/>
<path d="M48.3089 93.911C48.3065 93.9134 48.271 93.8781 48.2047 93.8075C48.1407 93.7346 48.0412 93.6334 47.9275 93.4899C47.693 93.21 47.3804 92.7818 47.0535 92.2148C46.3998 91.0926 45.7508 89.3376 45.7579 87.3308C45.7673 85.3217 46.4306 83.5737 47.0938 82.4562C47.4254 81.8916 47.7428 81.4658 47.9773 81.1882C48.091 81.0447 48.1928 80.9459 48.2568 80.8729C48.3231 80.8024 48.3586 80.7671 48.361 80.7694C48.3634 80.7718 48.3349 80.8141 48.2757 80.8894C48.2189 80.967 48.1218 81.0706 48.0152 81.2164C47.7925 81.5034 47.487 81.934 47.1696 82.4986C46.53 83.6184 45.8881 85.3476 45.881 87.3308C45.8739 89.3117 46.4993 91.0479 47.1293 92.1725C47.442 92.7395 47.7428 93.1723 47.9654 93.4617C48.072 93.6099 48.1668 93.7158 48.2236 93.7911C48.2805 93.8663 48.3113 93.9063 48.3089 93.911Z" fill="#455A64"/>
<path d="M82.2485 75.9866L82.175 76.1254L80.7491 78.7909L78.75 80.7036L82.7459 85.9875L86.0762 85.4394C86.0762 85.4394 85.7019 84.6842 84.0321 84.5383L83.3925 81.3811L85.7398 77.7675" fill="#455A64"/>
<path d="M78.75 80.7012L82.7435 85.9851L86.0738 85.437L85.6143 85.0018L82.8833 85.2982L79.174 80.2942L78.75 80.7012Z" fill="#E0E0E0"/>
<path d="M83.7626 83.0844C83.7437 83.122 83.5329 83.0467 83.277 83.0962C83.0189 83.1385 82.8507 83.2844 82.8175 83.2538C82.782 83.235 82.936 83.0044 83.2486 82.9503C83.5636 82.8915 83.7887 83.0538 83.7626 83.0844Z" fill="#263238"/>
<path d="M83.5755 82.3057C83.5471 82.3339 83.3647 82.1645 83.0899 82.1575C82.8152 82.1481 82.6233 82.3057 82.5972 82.2751C82.583 82.261 82.6115 82.1998 82.6967 82.134C82.7796 82.0681 82.9241 82.0046 83.0947 82.0093C83.2652 82.014 83.4049 82.0869 83.4831 82.1598C83.566 82.2304 83.5921 82.2939 83.5755 82.3057Z" fill="#263238"/>
<path d="M83.4295 81.2917C83.3964 81.3152 83.2495 81.1435 83.0055 81.1035C82.7616 81.0588 82.565 81.1717 82.5413 81.1364C82.5294 81.1223 82.565 81.0682 82.6502 81.0188C82.7355 80.9694 82.8753 80.9294 83.0316 80.9576C83.1855 80.9859 83.304 81.0682 83.3679 81.1435C83.4319 81.2188 83.4461 81.2799 83.4295 81.2917Z" fill="#263238"/>
<path d="M84.1909 80.3601C84.153 80.3812 84.0274 80.2072 83.8 80.1084C83.575 80.0025 83.3618 80.0237 83.3524 79.9837C83.3358 79.9484 83.5821 79.8472 83.8616 79.9743C84.1411 80.0966 84.2288 80.3483 84.1909 80.3601Z" fill="#263238"/>
<path d="M84.5089 79.6096C84.4947 79.6237 84.3621 79.5085 84.1607 79.3108C84.047 79.1956 83.931 79.0779 83.8125 78.9603C83.751 78.8897 83.6728 78.8333 83.6136 78.718C83.5852 78.6592 83.5757 78.5862 83.5994 78.5133C83.6207 78.438 83.7083 78.3769 83.7817 78.3769C83.931 78.3745 84.0233 78.4357 84.1205 78.4851C84.2128 78.5415 84.2934 78.6098 84.3621 78.6803C84.4971 78.8262 84.5752 78.9885 84.6155 79.1297C84.696 79.4167 84.6273 79.6002 84.6155 79.5931C84.5894 79.5908 84.6155 79.4143 84.516 79.1626C84.4663 79.0379 84.3857 78.8991 84.2626 78.7744C84.201 78.7133 84.1276 78.6568 84.047 78.6098C83.9689 78.5651 83.867 78.518 83.796 78.5227C83.7628 78.5274 83.7486 78.5392 83.7391 78.5627C83.7296 78.5886 83.732 78.6262 83.7462 78.6568C83.777 78.725 83.8528 78.7956 83.9144 78.8662C84.0257 78.9932 84.1323 79.1156 84.2389 79.2379C84.4189 79.4543 84.5255 79.5955 84.5089 79.6096Z" fill="#263238"/>
<path d="M84.648 79.6872C84.6314 79.6896 84.6148 79.5132 84.7617 79.285C84.9062 79.0685 85.2567 78.8027 85.7186 78.9462C85.7542 78.9674 85.7849 79.0097 85.7897 79.0568C85.7968 79.1038 85.7826 79.1391 85.766 79.1673C85.7352 79.2261 85.6949 79.2567 85.6641 79.292C85.5955 79.3579 85.5244 79.4167 85.451 79.4637C85.3065 79.5602 85.1596 79.6214 85.0341 79.6567C84.7806 79.7272 84.6148 79.7037 84.6172 79.6872C84.6148 79.6637 84.7735 79.6496 85.0009 79.5579C85.1146 79.5132 85.2449 79.4473 85.3728 79.3508C85.4368 79.3038 85.5007 79.2497 85.5623 79.1885C85.5931 79.1556 85.6239 79.125 85.6357 79.0991C85.6476 79.0685 85.6452 79.0756 85.6381 79.0685C85.6263 79.0591 85.5789 79.052 85.5362 79.0497C85.4936 79.0473 85.451 79.0473 85.4083 79.052C85.3254 79.0591 85.2473 79.0803 85.1738 79.1085C85.0294 79.165 84.9204 79.2567 84.8446 79.3485C84.6977 79.532 84.6717 79.692 84.648 79.6872Z" fill="#263238"/>
<path d="M81.3902 80.1625C81.4257 80.3789 81.2789 80.5836 81.0609 80.6212C80.843 80.6565 80.6369 80.5107 80.599 80.2942C80.5635 80.0778 80.7104 79.8731 80.9283 79.8355C81.1462 79.8002 81.3523 79.946 81.3902 80.1625Z" fill="#E0E0E0"/>
<path d="M94.375 78.5274L95.4433 85.4158L104.079 84.1407C103.906 83.3291 99.1904 82.3433 99.1904 82.3433L98.6883 77.9016L94.375 78.5274Z" fill="#455A64"/>
<path d="M96.4636 82.3668C96.3025 82.4374 96.2149 82.6397 96.2788 82.8021C96.3428 82.9644 96.5512 83.0538 96.7123 82.9879C96.8734 82.9197 96.9871 82.6797 96.9042 82.5245C96.8213 82.3715 96.5726 82.2774 96.4328 82.381" fill="#E0E0E0"/>
<path d="M95.4399 85.4158L95.3594 84.7171L103.671 83.7549C103.671 83.7549 104.081 83.8631 104.078 84.1407L95.4399 85.4158Z" fill="#E0E0E0"/>
<path d="M99.3285 82.2798C99.3332 82.3221 99.1248 82.3715 98.9377 82.5386C98.7458 82.6986 98.6653 82.8962 98.625 82.8844C98.5847 82.8821 98.6108 82.6233 98.8406 82.4256C99.0679 82.228 99.3309 82.2398 99.3285 82.2798Z" fill="#263238"/>
<path d="M100.29 82.5174C100.307 82.5574 100.134 82.6539 100.018 82.8538C99.8945 83.0491 99.8874 83.2467 99.8448 83.2491C99.8069 83.2608 99.7405 83.0209 99.8898 82.7762C100.037 82.5315 100.283 82.4774 100.29 82.5174Z" fill="#263238"/>
<path d="M100.964 83.5173C100.926 83.5314 100.836 83.3314 100.912 83.0867C100.983 82.8397 101.17 82.7197 101.192 82.7527C101.22 82.7833 101.111 82.9244 101.054 83.1291C100.99 83.3291 101.005 83.5079 100.964 83.5173Z" fill="#263238"/>
<path d="M99.0947 81.2799C99.0828 81.3199 98.8815 81.2917 98.6446 81.3435C98.4078 81.3905 98.2349 81.4964 98.2064 81.4634C98.178 81.4376 98.3343 81.2541 98.6138 81.1976C98.891 81.1388 99.1089 81.2423 99.0947 81.2799Z" fill="#263238"/>
<path d="M98.7364 80.2919C98.7388 80.3083 98.5778 80.3601 98.303 80.353C98.168 80.3507 98.0045 80.3295 97.8293 80.2824C97.7416 80.2589 97.6516 80.2283 97.5616 80.1883C97.519 80.1695 97.4669 80.1507 97.4148 80.106C97.3603 80.0684 97.3176 79.9625 97.3626 79.8872C97.3982 79.8143 97.4716 79.7743 97.5332 79.7649C97.5971 79.7531 97.6493 79.7578 97.699 79.7625C97.7985 79.7719 97.8932 79.7908 97.9809 79.8143C98.1561 79.8637 98.3054 79.939 98.4191 80.0142C98.6464 80.1695 98.7388 80.3154 98.7246 80.3248C98.708 80.3413 98.5896 80.2236 98.3646 80.1036C98.2509 80.0425 98.1088 79.9837 97.9453 79.9437C97.8624 79.9249 97.7772 79.9107 97.6848 79.9037C97.59 79.8943 97.5119 79.9037 97.4953 79.9484C97.4882 79.9648 97.4882 79.9719 97.5119 79.9954C97.5356 80.0166 97.5758 80.0354 97.6185 80.0542C97.7014 80.0919 97.7866 80.1248 97.8672 80.1507C98.0282 80.2025 98.1798 80.233 98.3101 80.2472C98.5706 80.2824 98.7341 80.2683 98.7364 80.2919Z" fill="#263238"/>
<path d="M98.6946 80.3601C98.6804 80.3695 98.5738 80.2307 98.5193 79.9625C98.4909 79.8284 98.4814 79.6637 98.5075 79.4826C98.5217 79.3932 98.543 79.2991 98.5785 79.2049C98.6164 79.1132 98.6614 78.9909 98.8225 78.9462C98.9078 78.9297 98.9883 78.9862 99.0215 79.0403C99.0594 79.0944 99.0712 79.1438 99.0901 79.1908C99.1209 79.2896 99.1328 79.3861 99.1328 79.4802C99.1328 79.6661 99.0807 79.8307 99.0143 79.9507C98.8793 80.1977 98.7112 80.273 98.7041 80.2613C98.6875 80.2424 98.8225 80.1389 98.9196 79.906C98.967 79.7907 99.0025 79.6449 98.9954 79.4826C98.993 79.4026 98.9788 79.3179 98.9504 79.2355C98.9243 79.1461 98.877 79.0779 98.8438 79.092C98.8012 79.0967 98.7372 79.1767 98.7135 79.2544C98.6804 79.3367 98.6567 79.4214 98.6401 79.5037C98.6093 79.6661 98.6069 79.819 98.6212 79.9437C98.6472 80.2001 98.7159 80.3507 98.6946 80.3601Z" fill="#263238"/>
<path d="M87.5786 62.3462L80.1719 78.3768L85.0631 81.2941L95.3051 62.0051" fill="#263238"/>
<path d="M99.79 81.6587L94.4747 82.5057L91.2937 63.6519L75.5778 64.7835C75.1609 64.8094 74.7416 64.7741 74.339 64.6635C69.9238 63.4614 70.5231 57.8739 70.9471 56.9776L92.6935 56.3565C95.0527 56.2883 97.085 57.9939 97.4118 60.3159L99.79 81.6587Z" fill="#263238"/>
<path d="M70.7344 57.8645L70.8126 49.8939C70.8126 49.8939 69.7775 44.7112 69.4696 42.6738C68.9935 39.5096 68.3421 38.0086 73.5578 35.7595L74.6971 35.3219L76.4618 35.3455C78.5675 35.5031 80.7845 37.3922 80.8343 38.6462L82.8642 56.6082L70.7344 57.8645Z" fill="#E8505B"/>
<path d="M71.0597 37.6134C71.0597 37.6134 69.5888 40.7611 69.8825 43.629L75.3707 48.8611C76.6024 50.2209 78.1396 50.7997 80.1079 50.9173L91.4632 52.1501L91.7782 49.1999L80.9749 46.1603C80.5461 46.0827 80.3306 45.6357 80.0013 45.3511L71.0597 37.6134Z" fill="#E8505B"/>
<path d="M70.1719 38.5215C70.1719 38.5215 70.2335 38.4532 70.3898 38.3756C70.5461 38.3003 70.7925 38.2227 71.1241 38.1709C71.4533 38.1239 71.8702 38.0886 72.351 38.1733C72.4695 38.2015 72.595 38.2297 72.7111 38.2956C72.8247 38.3615 72.9337 38.4391 73.045 38.5215C73.2653 38.6909 73.4856 38.8838 73.7083 39.0978C74.163 39.519 74.5941 40.053 75.0986 40.5941C75.6008 41.1376 76.1551 41.7163 76.7567 42.3256C77.356 42.9349 78.0026 43.5725 78.6966 44.2312C79.0448 44.5582 79.4024 44.8923 79.7814 45.2193C79.9733 45.3769 80.1628 45.5604 80.3452 45.7322C80.5299 45.9016 80.7407 46.0592 80.9823 46.1039H80.9847H80.9871C84.1989 47.0049 87.8845 48.0401 91.7904 49.1387L91.8402 49.1529L91.8354 49.2046C91.8141 49.414 91.788 49.6398 91.7644 49.8657C91.6815 50.6491 91.5986 51.4255 91.5204 52.1548L91.5133 52.2159L91.4517 52.2089C89.8008 52.0277 88.1925 51.8536 86.6457 51.6843C85.8712 51.5996 85.1132 51.5172 84.3718 51.4349C83.6281 51.3596 82.9033 51.2867 82.1951 51.2161C81.4868 51.1384 80.7999 51.0585 80.1344 50.962C79.4688 50.8655 78.8221 50.7432 78.2276 50.5221C77.6307 50.3056 77.0978 49.9951 76.6193 49.6657C76.1385 49.334 75.7026 48.9882 75.2929 48.647C73.6704 47.2708 72.4789 46.0427 71.6523 45.2052C71.2425 44.7841 70.9275 44.4524 70.7167 44.2265C70.6148 44.1159 70.5366 44.0289 70.4798 43.9677C70.4277 43.9089 70.4016 43.876 70.4016 43.876C70.4016 43.876 70.4324 43.9019 70.4869 43.9583C70.5461 44.0171 70.6267 44.1018 70.7332 44.21C70.9535 44.4335 71.2733 44.7582 71.6831 45.1746C72.5192 46.0027 73.7201 47.2214 75.345 48.5859C75.7547 48.9223 76.1929 49.2658 76.6714 49.5928C77.1475 49.9198 77.6733 50.2233 78.2608 50.4327C78.8482 50.6491 79.4854 50.7667 80.1509 50.8608C80.8142 50.9549 81.5011 51.0349 82.2093 51.1102C82.9175 51.1808 83.6423 51.2514 84.3861 51.3243C85.1274 51.4043 85.8878 51.4866 86.66 51.569C88.2067 51.736 89.815 51.9101 91.4683 52.0889L91.3996 52.143C91.4778 51.4137 91.5607 50.6373 91.6436 49.8539C91.6672 49.6281 91.6909 49.4022 91.7146 49.1929L91.7596 49.2587C87.8537 48.1577 84.1705 47.1179 80.9586 46.2121L80.9634 46.2145C80.6839 46.1627 80.4612 45.9886 80.2717 45.8145C80.0799 45.6334 79.907 45.464 79.7104 45.3017C79.3314 44.9723 78.9714 44.6359 78.6232 44.3065C77.9315 43.6454 77.2873 43.0032 76.688 42.3915C76.0911 41.7798 75.5392 41.1987 75.0371 40.6506C74.5325 40.1048 74.1085 39.5707 73.6609 39.1496C73.4406 38.9355 73.2227 38.7403 73.0071 38.5732C72.8982 38.4909 72.7916 38.4109 72.6826 38.3474C72.576 38.2838 72.4529 38.2556 72.3392 38.2274C71.8702 38.138 71.4533 38.1686 71.1264 38.2086C70.7972 38.2533 70.5509 38.3238 70.3945 38.3944C70.2406 38.4626 70.1766 38.5262 70.1719 38.5215Z" fill="#263238"/>
<path d="M73.0133 28.41L73.5652 36.1689C73.6552 37.4346 74.7164 38.4179 75.9955 38.4179C77.4024 38.4179 78.5181 37.2346 78.4257 35.8395C78.3759 35.1008 78.3333 34.4962 78.3333 34.4962C78.3333 34.4962 80.2235 34.2044 80.2472 32.3271C80.2614 31.2425 80.0719 28.7817 79.9108 26.8949C79.8018 25.6198 78.7265 24.6411 77.438 24.6411H76.2963C74.3279 24.7564 72.8428 26.462 73.0133 28.41Z" fill="#FFBE9D"/>
<path d="M78.3329 34.4703C78.3329 34.4703 77.1368 34.5667 75.8672 33.7739C75.8672 33.7739 76.4499 35.1267 78.3377 34.9573L78.3329 34.4703Z" fill="#EB996E"/>
<path d="M79.4855 29.3087C79.4902 29.4498 79.3742 29.5722 79.2249 29.5792C79.0757 29.5863 78.9526 29.4781 78.9455 29.3369C78.9407 29.1957 79.0568 29.0734 79.206 29.0664C79.3552 29.0593 79.4808 29.1675 79.4855 29.3087Z" fill="#263238"/>
<path d="M79.5831 28.7793C79.5499 28.8146 79.3462 28.6641 79.0549 28.6641C78.7635 28.6617 78.5504 28.8099 78.5196 28.7746C78.503 28.7582 78.5385 28.697 78.6309 28.6288C78.7233 28.5629 78.8772 28.497 79.0596 28.497C79.2396 28.497 79.3936 28.5652 79.4812 28.6311C79.5689 28.7017 79.5997 28.7629 79.5831 28.7793Z" fill="#263238"/>
<path d="M76.7511 29.3087C76.7559 29.4498 76.6398 29.5722 76.4906 29.5792C76.3414 29.5863 76.2182 29.4781 76.2111 29.3369C76.2063 29.1957 76.3224 29.0734 76.4716 29.0664C76.6208 29.0593 76.7464 29.1675 76.7511 29.3087Z" fill="#263238"/>
<path d="M76.7237 28.8334C76.6905 28.8687 76.4845 28.7182 76.1955 28.7182C75.9042 28.7158 75.691 28.864 75.6602 28.8287C75.6436 28.8123 75.6791 28.7511 75.7715 28.6829C75.8639 28.617 76.0179 28.5511 76.2002 28.5511C76.3803 28.5511 76.5342 28.6194 76.6219 28.6852C76.7095 28.7535 76.7403 28.817 76.7237 28.8334Z" fill="#263238"/>
<path d="M77.7789 30.9743C77.7766 30.9578 77.959 30.9273 78.2503 30.8896C78.3237 30.8826 78.3948 30.8684 78.4066 30.8167C78.4232 30.7626 78.3924 30.6849 78.3569 30.5979C78.2882 30.4191 78.2148 30.2332 78.1366 30.0356C77.8311 29.2357 77.6108 28.5794 77.6439 28.5676C77.6771 28.5558 77.9495 29.1934 78.255 29.9933C78.3285 30.1909 78.3995 30.3791 78.4658 30.5579C78.4943 30.6426 78.5416 30.7367 78.5037 30.8473C78.4848 30.9014 78.4303 30.9414 78.3806 30.9555C78.3332 30.9696 78.2906 30.9696 78.255 30.972C77.9637 30.9884 77.7813 30.9908 77.7789 30.9743Z" fill="#263238"/>
<path d="M76.9224 31.1743C76.9697 31.1719 76.9697 31.4848 77.2398 31.7083C77.5098 31.9318 77.8461 31.8965 77.8485 31.9389C77.8532 31.9577 77.7727 32 77.6306 32.0024C77.4908 32.0071 77.2871 31.9624 77.1237 31.8259C76.9579 31.6895 76.8892 31.5083 76.8774 31.379C76.8655 31.2496 76.901 31.1719 76.9224 31.1743Z" fill="#263238"/>
<path d="M76.8007 27.7019C76.7723 27.7795 76.481 27.7442 76.1422 27.7842C75.8012 27.8171 75.5264 27.9183 75.4814 27.8477C75.4601 27.8148 75.5098 27.7395 75.6211 27.6642C75.7301 27.5889 75.9077 27.516 76.1114 27.4925C76.3151 27.4713 76.5046 27.5019 76.6278 27.5536C76.7486 27.603 76.8126 27.6642 76.8007 27.7019Z" fill="#263238"/>
<path d="M79.4736 27.9442C79.4215 28.01 79.2225 27.9418 78.9809 27.9395C78.7393 27.9277 78.5356 27.9842 78.4906 27.9159C78.4693 27.883 78.5025 27.8171 78.5901 27.756C78.6777 27.6948 78.8246 27.643 78.9904 27.6477C79.1562 27.6524 79.2983 27.7113 79.3836 27.7795C79.4689 27.8454 79.4949 27.9112 79.4736 27.9442Z" fill="#263238"/>
<path d="M73.6493 29.8216C73.6162 29.8074 72.3513 29.4404 72.3916 30.725C72.4318 32.0095 73.7227 31.7036 73.7227 31.666C73.7251 31.626 73.6493 29.8216 73.6493 29.8216Z" fill="#FFBE9D"/>
<path d="M73.3144 31.1908C73.3097 31.1861 73.2931 31.2072 73.2552 31.2261C73.2197 31.2449 73.1557 31.2566 73.087 31.2355C72.9497 31.1908 72.8265 30.979 72.8123 30.7461C72.8052 30.6285 72.8265 30.5179 72.8644 30.4238C72.8999 30.3297 72.9591 30.2615 73.0278 30.2474C73.0965 30.2286 73.1463 30.2686 73.1628 30.3038C73.1818 30.3391 73.1747 30.365 73.1818 30.3674C73.1865 30.3697 73.2078 30.3438 73.196 30.2921C73.1889 30.2662 73.1747 30.238 73.1415 30.2121C73.1107 30.1886 73.0634 30.1768 73.016 30.1839C72.9165 30.1933 72.8289 30.2874 72.7862 30.3909C72.7389 30.4944 72.7128 30.6191 72.7199 30.7508C72.7365 31.0096 72.8786 31.2472 73.0657 31.2943C73.1581 31.3155 73.2315 31.2849 73.2694 31.2543C73.3121 31.2214 73.3192 31.1931 73.3144 31.1908Z" fill="#EB996E"/>
<path d="M72.9298 29.7769C73.1264 29.7298 73.4675 29.9109 73.5528 30.0945C73.638 30.278 73.6546 30.485 73.7399 30.6685C73.8228 30.852 74.0123 31.019 74.2113 30.972C74.3463 30.939 74.4458 30.8143 74.4813 30.6779C74.5168 30.5438 74.5026 30.4026 74.486 30.2638C74.4102 29.6639 74.2823 29.0687 74.2586 28.4665C74.2349 27.8618 74.3202 27.236 74.64 26.7208C74.9597 26.2056 75.5448 25.8268 76.1512 25.8762C76.5538 25.9092 76.921 26.1162 77.3213 26.1727C77.795 26.2385 78.2948 26.0715 78.6335 25.7374C78.6761 25.6951 78.8798 25.5633 78.8798 25.5633C78.8798 25.5328 78.8514 25.2646 78.7448 25.1658C77.9537 24.4388 76.5254 24.2365 75.4809 24.4976C74.4339 24.7588 73.4533 25.4928 73.0033 26.4667C72.5485 27.4384 72.6835 28.7911 72.9298 29.7769Z" fill="#263238"/>
<path d="M79.9257 26.6055C79.9257 26.6055 74.9658 25.0199 72.8198 29.2828C72.8198 29.2828 72.5 28.2171 72.5 27.6454C72.5 27.2643 72.7298 24.9893 75.0866 24.2741C75.0866 24.2741 78.6348 22.9284 79.9257 26.6055Z" fill="#E8505B"/>
<path d="M75.6651 26.7138C75.8403 26.9961 76.153 27.1866 76.4846 27.2172C76.8162 27.2478 77.1597 27.1137 77.3823 26.869C77.4794 27.1114 77.7424 27.2784 78.0053 27.2643C78.2682 27.2502 78.5122 27.0572 78.5832 26.8055C78.7277 26.9443 78.8769 27.0878 79.0664 27.1561C79.2559 27.2243 79.4928 27.1984 79.6183 27.0408C79.7439 26.8808 79.7083 26.6385 79.5852 26.4762C79.462 26.3138 79.2701 26.2174 79.083 26.1397C78.4932 25.8951 77.8442 25.7727 77.2118 25.8574C76.5794 25.9421 75.9659 26.2479 75.5703 26.7443" fill="#263238"/>
<g opacity="0.4">
<path d="M79.9257 26.6055C79.9257 26.6055 79.3619 25.9374 78.3482 25.8951C76.8843 25.8315 74.1462 26.6479 72.8198 29.2852C72.8198 29.2852 72.5 28.2194 72.5 27.6478C72.5 27.2666 72.7298 24.9917 75.0866 24.2765C75.0866 24.2741 78.6348 22.9284 79.9257 26.6055Z" fill="black"/>
</g>
<path d="M73.0312 28.784C73.7679 27.6666 74.7817 26.742 75.921 26.0339C77.0603 25.3257 78.9457 24.627 80.2461 24.2835C80.6369 24.18 81.042 24.0906 81.4399 24.1588C81.8378 24.2271 82.2263 24.4906 82.3258 24.8787C82.4489 25.3657 81.5797 26.1162 81.1722 26.4103C80.7648 26.7043 79.9311 27.1396 79.9311 27.1396C79.9311 27.1396 79.9429 26.2362 78.4886 26.0503C76.5084 25.801 73.0312 28.784 73.0312 28.784Z" fill="#E8505B"/>
<g opacity="0.3">
<path d="M71.2812 44.7935C71.7929 46.0192 72.3092 47.5319 73.0506 48.6353C73.792 49.7387 74.7821 50.7173 76.0161 51.2302C77.5629 51.8725 79.3938 51.9783 80.9334 51.3172C81.059 51.2631 81.3053 51.1949 81.2816 51.0608C81.2816 51.0608 80.7724 51.0044 80.6137 50.9785C77.5013 50.4562 77.1649 50.0751 75.6751 48.9058C74.7466 48.1789 72.6882 45.9745 71.2812 44.7935Z" fill="black"/>
</g>
<path d="M81.1691 53.7192C81.1762 53.7216 81.1359 53.8275 81.0388 54.0063C80.9441 54.1851 80.7806 54.4321 80.5366 54.7026C80.0534 55.2484 79.196 55.8389 78.1254 56.166C77.0571 56.493 76.0433 56.5518 75.3209 56.5824C74.9585 56.5965 74.6648 56.5988 74.4635 56.5988C74.2598 56.5988 74.1484 56.5941 74.1484 56.5847C74.1484 56.5753 74.2598 56.5659 74.4611 56.5518C74.6885 56.5377 74.9751 56.5188 75.3162 56.4977C76.0339 56.4459 77.0382 56.3706 78.0899 56.0507C79.1392 55.7284 79.9848 55.1637 80.4727 54.6438C80.9701 54.1262 81.1454 53.7051 81.1691 53.7192Z" fill="#263238"/>
<path d="M94.5735 83.0679C94.5711 83.0679 94.564 83.0444 94.5546 82.995C94.5427 82.9409 94.5285 82.8679 94.5119 82.7785C94.4764 82.5809 94.4243 82.301 94.3603 81.9434C94.2324 81.2094 94.0477 80.1625 93.8226 78.8709C93.3797 76.2689 92.7686 72.6859 92.0935 68.7288C91.7927 66.9385 91.5038 65.2235 91.2432 63.659L91.3048 63.706C88.5453 63.906 86.1838 64.0777 84.5044 64.2001C83.6754 64.2565 83.0146 64.3012 82.5527 64.3318C82.3324 64.3436 82.1595 64.3553 82.0316 64.3624C81.9771 64.3648 81.9321 64.3671 81.8966 64.3671C81.8658 64.3671 81.8516 64.3671 81.8516 64.3648C81.8516 64.3624 81.8658 64.3601 81.8966 64.3553C81.9321 64.3506 81.9771 64.3459 82.0292 64.3412C82.1547 64.3295 82.3277 64.313 82.5479 64.2918C83.0098 64.2518 83.6707 64.1977 84.4973 64.1271C86.1743 63.9954 88.5335 63.8072 91.2929 63.5884L91.3451 63.5837L91.3545 63.6355C91.6198 65.1976 91.9112 66.9126 92.2143 68.703C92.8752 72.6624 93.4745 76.2477 93.9079 78.8521C94.1187 80.146 94.2893 81.1953 94.4077 81.9293C94.4622 82.2869 94.5072 82.5668 94.538 82.7668C94.5498 82.8585 94.5617 82.9291 94.5688 82.9856C94.5735 83.042 94.5759 83.0679 94.5735 83.0679Z" fill="#455A64"/>
<path d="M92.8914 61.9722C92.9127 62.0004 92.5006 62.3533 92.0292 62.8285C91.5578 63.3014 91.2096 63.7201 91.1812 63.6966C91.1552 63.6778 91.4631 63.2214 91.9416 62.7415C92.4177 62.2615 92.8724 61.9463 92.8914 61.9722Z" fill="#455A64"/>
<path d="M78.3748 36.0065C78.3796 36.0065 78.389 36.0324 78.4033 36.0842C78.4198 36.1359 78.434 36.2136 78.4483 36.3147C78.4719 36.517 78.4601 36.8229 78.3322 37.1711C78.2043 37.5145 77.9556 37.9004 77.5529 38.1897C77.1526 38.4791 76.5984 38.6297 76.0322 38.592C75.4638 38.5544 74.9427 38.3427 74.5566 38.0439C74.1658 37.7475 73.8981 37.3899 73.7181 37.0723C73.5404 36.7499 73.4457 36.47 73.3983 36.2724C73.3746 36.1736 73.3581 36.0959 73.351 36.0442C73.3438 35.9924 73.3415 35.9642 73.3462 35.9618C73.3723 35.9524 73.4315 36.4112 73.7963 37.0299C73.981 37.3334 74.2487 37.6745 74.6276 37.9545C75.0019 38.2368 75.5017 38.4344 76.0441 38.472C76.5841 38.5073 77.1076 38.3662 77.4913 38.098C77.8774 37.8321 78.1214 37.4675 78.2564 37.1405C78.3867 36.8111 78.4151 36.517 78.4056 36.3194C78.3914 36.1195 78.3606 36.0112 78.3748 36.0065Z" fill="#263238"/>
<path d="M81.7114 46.2803C81.7019 46.2803 81.6854 46.1933 81.6617 46.0357C81.6356 45.8498 81.6025 45.6263 81.5669 45.3628C81.4888 44.7629 81.3869 43.9912 81.2756 43.1396C81.169 42.2691 81.0837 41.481 81.0316 40.9093C81.0056 40.6223 80.9866 40.3918 80.9772 40.2318C80.9677 40.0718 80.9653 39.9824 80.9748 39.9824C80.9843 39.9824 81.0008 40.0695 81.0245 40.2271C81.0506 40.4129 81.0814 40.6364 81.1169 40.8999C81.1927 41.4999 81.2898 42.2715 81.3964 43.1255C81.503 43.9936 81.5977 44.7817 81.6522 45.3534C81.6806 45.6404 81.6996 45.871 81.7091 46.031C81.7185 46.1909 81.7209 46.2803 81.7114 46.2803Z" fill="#263238"/>
</g>
<defs>
<clipPath id="clip0_186_444">
<rect width="125" height="97" fill="white"/>
</clipPath>
</defs>
</svg>
