<svg width="166" height="134" viewBox="0 0 166 134" fill="none" xmlns="http://www.w3.org/2000/svg">
<g clip-path="url(#clip0_186_1237)">
<path opacity="0.5" d="M136.938 92.1275L165.999 76.5719L144.347 65.0928L136.938 92.1275Z" fill="black"/>
<path d="M104.711 0L145.853 21.9464L145.732 94.1118L104.461 71.6451L104.711 0Z" fill="#C0DBED"/>
<path d="M140.911 96.5268L145.731 94.1118L140.297 90.6742L140.911 96.5268Z" fill="#C0DBED"/>
<path d="M99.766 3.28335L140.908 25.2297V96.5268L99.5156 74.9285L99.766 3.28335Z" fill="#D5ECFE"/>
<path d="M95.7891 17.3784L95.7422 21.2969L129.487 39.21L129.483 35.2413L95.7891 17.3784Z" fill="#598FD7"/>
<path d="M136.984 31.2976L129.492 35.2556L129.469 39.2172L136.945 35.2771L136.984 31.2976Z" fill="#4886D1"/>
<path d="M95.7422 17.3784L103.194 13.4384L136.986 31.2833L129.495 35.2556L95.7422 17.3784Z" fill="white"/>
<path d="M95.8048 41.2123L95.7578 45.1308L129.502 63.0438L129.498 59.0751L95.8048 41.2123Z" fill="#598FD7"/>
<path d="M136.999 55.1315L129.508 59.0859L129.484 63.0474L136.96 59.1074L136.999 55.1315Z" fill="#4886D1"/>
<path d="M95.7578 41.2123L103.21 37.2687L137.002 55.1172L129.51 59.0859L95.7578 41.2123Z" fill="white"/>
<path d="M126.625 24.6018L123.945 26.0156L130.686 29.6147L133.412 28.1794L126.625 24.6018Z" fill="#FCFDFF"/>
<path d="M123.922 30.3144L123.945 26.0156L130.686 29.6147L130.674 33.892L123.922 30.3144Z" fill="#E9EAEC"/>
<path d="M133.375 32.4675L130.672 33.892L130.684 29.6147L133.41 28.1794L133.375 32.4675Z" fill="#DEDCE1"/>
<path opacity="0.3" d="M130.867 29.7295L133.406 28.3911L133.41 28.1794L130.684 29.6147L130.672 33.892L130.856 33.7951L130.867 29.7295Z" fill="black"/>
<path d="M124.898 27.9784L126.831 29.0047V29.6649L124.898 28.6638V27.9784Z" fill="#467DE4"/>
<path d="M127.156 29.1698L129.089 30.196V30.8563L127.156 29.8551V29.1698Z" fill="#467DE4"/>
<path d="M124.695 29.2989V29.9341L127.086 31.2043L127.093 30.5549L124.695 29.2989Z" fill="#DEDCE1"/>
<path d="M127.367 30.7307V31.3658L129.757 32.6361L129.765 31.9902L127.367 30.7307Z" fill="#DEDCE1"/>
<path d="M108.108 17.9418C108.108 18.01 108.1 18.0746 108.08 18.1391C107.94 18.5913 107.239 20.2957 104.658 20.3711C102.111 20.4465 101.36 18.9645 101.195 18.5339C101.168 18.4657 101.156 18.3939 101.156 18.3222C101.148 17.6834 101.109 14.0484 101.109 12.3906C101.109 10.9517 102.115 10.295 102.533 10.0869C102.647 10.0295 102.717 10.0043 102.717 10.0043L106.453 10.0474C106.465 10.051 106.473 10.0546 106.484 10.0582C107.826 10.4601 108.014 11.8703 108.014 11.8703L108.108 17.9418Z" fill="#F59701"/>
<path opacity="0.5" d="M106.49 10.1263C106.49 10.6108 105.602 11.0055 104.511 11.0055C103.419 11.0055 102.531 10.6108 102.531 10.1263C102.531 10.112 102.531 10.1012 102.535 10.0869C102.649 10.0295 102.719 10.0043 102.719 10.0043L106.455 10.0474C106.467 10.051 106.475 10.0546 106.486 10.0582C106.49 10.0797 106.49 10.1012 106.49 10.1263Z" fill="black"/>
<path d="M106.49 9.99357C106.49 10.478 105.606 10.8727 104.511 10.8727C103.419 10.8727 102.531 10.478 102.531 9.99357C102.531 9.50915 103.415 9.11443 104.511 9.11443C105.606 9.11801 106.49 9.50915 106.49 9.99357Z" fill="white"/>
<path d="M106.294 8.75918L106.251 9.96128C106.247 9.99716 106.236 10.033 106.208 10.0582C106.048 10.2304 105.754 10.4852 104.937 10.5534C104.808 10.5641 104.663 10.5713 104.507 10.5713C103.45 10.5713 102.938 10.1299 102.797 9.98281C102.77 9.9541 102.754 9.91822 102.754 9.88233L102.727 8.75918L102.844 8.65153L105.606 8.73765L106.294 8.75918Z" fill="#E6E6EE"/>
<path opacity="0.5" d="M104.504 10.4062H104.488C104.461 10.4062 104.438 10.3847 104.438 10.3596V9.75315C104.438 9.72804 104.461 9.7065 104.488 9.7065H104.504C104.531 9.7065 104.555 9.72804 104.555 9.75315V10.3596C104.555 10.3847 104.531 10.4062 104.504 10.4062Z" fill="black"/>
<path opacity="0.5" d="M104.879 10.3596H104.863C104.836 10.3596 104.812 10.3381 104.812 10.3129V9.70651C104.812 9.68139 104.836 9.65986 104.863 9.65986H104.879C104.906 9.65986 104.93 9.68139 104.93 9.70651V10.3129C104.93 10.3381 104.906 10.3596 104.879 10.3596Z" fill="black"/>
<path opacity="0.5" d="M105.301 10.2771H105.285C105.258 10.2771 105.234 10.2555 105.234 10.2304V9.62397C105.234 9.59885 105.258 9.57732 105.285 9.57732H105.301C105.328 9.57732 105.352 9.59885 105.352 9.62397V10.2304C105.352 10.2555 105.328 10.2771 105.301 10.2771Z" fill="black"/>
<path opacity="0.5" d="M105.676 10.1407H105.66C105.633 10.1407 105.609 10.1192 105.609 10.094V9.48761C105.609 9.46249 105.633 9.44096 105.66 9.44096H105.676C105.703 9.44096 105.727 9.46249 105.727 9.48761V10.094C105.727 10.1192 105.703 10.1407 105.676 10.1407Z" fill="black"/>
<path opacity="0.5" d="M106.043 9.96487H106.027C106 9.96487 105.977 9.94334 105.977 9.91822V9.31179C105.977 9.28667 106 9.26514 106.027 9.26514H106.043C106.07 9.26514 106.094 9.28667 106.094 9.31179V9.91822C106.094 9.94334 106.07 9.96487 106.043 9.96487Z" fill="black"/>
<path opacity="0.5" d="M104.082 10.3596H104.066C104.039 10.3596 104.016 10.3381 104.016 10.3129V9.70651C104.016 9.68139 104.039 9.65986 104.066 9.65986H104.082C104.11 9.65986 104.133 9.68139 104.133 9.70651V10.3129C104.133 10.3381 104.11 10.3596 104.082 10.3596Z" fill="black"/>
<path opacity="0.5" d="M103.676 10.2878H103.66C103.633 10.2878 103.609 10.2663 103.609 10.2412V9.63474C103.609 9.60962 103.633 9.58809 103.66 9.58809H103.676C103.703 9.58809 103.727 9.60962 103.727 9.63474V10.2412C103.727 10.2663 103.703 10.2878 103.676 10.2878Z" fill="black"/>
<path opacity="0.5" d="M103.313 10.1658H103.293C103.266 10.1658 103.242 10.1443 103.242 10.1192V9.51274C103.242 9.48762 103.266 9.46609 103.293 9.46609H103.313C103.34 9.46609 103.363 9.48762 103.363 9.51274V10.1192C103.363 10.1443 103.34 10.1658 103.313 10.1658Z" fill="black"/>
<path opacity="0.5" d="M102.942 9.96487H102.926C102.898 9.96487 102.875 9.94334 102.875 9.91822V9.31179C102.875 9.28667 102.898 9.26514 102.926 9.26514H102.942C102.969 9.26514 102.992 9.28667 102.992 9.31179V9.91822C102.992 9.94334 102.969 9.96487 102.942 9.96487Z" fill="black"/>
<path opacity="0.5" d="M107.336 18.62C107.336 19.2767 106.131 19.8077 104.641 19.8077C103.15 19.8077 101.945 19.2767 101.945 18.62C101.945 17.9633 103.15 17.4322 104.641 17.4322C106.131 17.4322 107.336 17.9633 107.336 18.62Z" fill="black"/>
<path opacity="0.5" d="M106.299 8.75918L106.256 9.96128C106.252 9.99716 106.241 10.033 106.213 10.0582C106.053 10.2304 105.76 10.4852 104.942 10.5534C104.907 10.3488 105.087 10.1586 105.22 9.9864C105.501 9.62756 105.638 9.17902 105.607 8.73765L106.299 8.75918Z" fill="black"/>
<path d="M106.294 8.66947C106.294 9.1539 105.496 9.54862 104.51 9.54862C103.525 9.54862 102.727 9.1539 102.727 8.66947C102.727 8.18504 103.525 7.79032 104.51 7.79032C105.492 7.79032 106.294 8.18504 106.294 8.66947Z" fill="white"/>
<path d="M105.464 8.67665C105.464 8.93501 105.037 9.14672 104.513 9.14672C103.989 9.14672 103.562 8.9386 103.562 8.67665C103.562 8.41829 103.989 8.20657 104.513 8.20657C105.037 8.20657 105.464 8.41829 105.464 8.67665Z" fill="#E6E6EE"/>
<path opacity="0.5" d="M105.017 8.67665C105.017 8.82736 104.794 8.95295 104.516 8.95295C104.239 8.95295 104.016 8.83095 104.016 8.67665C104.016 8.52594 104.239 8.40034 104.516 8.40034C104.794 8.40393 105.017 8.52594 105.017 8.67665Z" fill="black"/>
<path d="M115.514 21.9643C115.514 22.0325 115.506 22.0971 115.487 22.1617C115.346 22.6138 114.646 24.3183 112.064 24.3937C109.517 24.469 108.766 22.987 108.602 22.5564C108.574 22.4882 108.563 22.4165 108.563 22.3447C108.555 21.706 108.516 18.071 108.516 16.4131C108.516 14.9742 109.521 14.3175 109.94 14.1094C110.053 14.052 110.123 14.0269 110.123 14.0269L113.859 14.0699C113.871 14.0735 113.879 14.0771 113.891 14.0807C115.232 14.4826 115.42 15.8928 115.42 15.8928L115.514 21.9643Z" fill="#F59701"/>
<path opacity="0.5" d="M113.896 14.1453C113.896 14.6297 113.008 15.0244 111.917 15.0244C110.826 15.0244 109.938 14.6297 109.938 14.1453C109.938 14.1309 109.938 14.1202 109.941 14.1058C110.055 14.0484 110.125 14.0233 110.125 14.0233L113.861 14.0664C113.873 14.0699 113.881 14.0735 113.892 14.0771C113.896 14.1022 113.896 14.1238 113.896 14.1453Z" fill="black"/>
<path d="M111.917 14.8953C113.01 14.8953 113.896 14.5017 113.896 14.0161C113.896 13.5306 113.01 13.137 111.917 13.137C110.824 13.137 109.938 13.5306 109.938 14.0161C109.938 14.5017 110.824 14.8953 111.917 14.8953Z" fill="white"/>
<path d="M113.701 12.7781L113.657 13.9802C113.654 14.0161 113.642 14.052 113.614 14.0771C113.454 14.2494 113.161 14.5041 112.343 14.5723C112.214 14.5831 112.069 14.5903 111.913 14.5903C110.857 14.5903 110.344 14.1489 110.203 14.0018C110.176 13.9731 110.16 13.9372 110.16 13.9013L110.133 12.7781L110.25 12.6705L113.012 12.7566L113.701 12.7781Z" fill="#E6E6EE"/>
<path opacity="0.5" d="M111.91 14.4288H111.895C111.867 14.4288 111.844 14.4073 111.844 14.3821V13.7757C111.844 13.7506 111.867 13.729 111.895 13.729H111.91C111.938 13.729 111.961 13.7506 111.961 13.7757V14.3821C111.961 14.4073 111.938 14.4288 111.91 14.4288Z" fill="black"/>
<path opacity="0.5" d="M112.285 14.3821H112.27C112.242 14.3821 112.219 14.3606 112.219 14.3355V13.7291C112.219 13.7039 112.242 13.6824 112.27 13.6824H112.285C112.313 13.6824 112.336 13.7039 112.336 13.7291V14.3355C112.336 14.3606 112.313 14.3821 112.285 14.3821Z" fill="black"/>
<path opacity="0.5" d="M112.707 14.2996H112.691C112.664 14.2996 112.641 14.2781 112.641 14.2529V13.6465C112.641 13.6214 112.664 13.5999 112.691 13.5999H112.707C112.735 13.5999 112.758 13.6214 112.758 13.6465V14.2529C112.758 14.2781 112.735 14.2996 112.707 14.2996Z" fill="black"/>
<path opacity="0.5" d="M113.082 14.1597H113.066C113.039 14.1597 113.016 14.1381 113.016 14.113V13.5066C113.016 13.4815 113.039 13.4599 113.066 13.4599H113.082C113.11 13.4599 113.133 13.4815 113.133 13.5066V14.113C113.133 14.1381 113.11 14.1597 113.082 14.1597Z" fill="black"/>
<path opacity="0.5" d="M113.449 13.9874H113.434C113.406 13.9874 113.383 13.9659 113.383 13.9408V13.3343C113.383 13.3092 113.406 13.2877 113.434 13.2877H113.449C113.477 13.2877 113.5 13.3092 113.5 13.3343V13.9408C113.5 13.9659 113.477 13.9874 113.449 13.9874Z" fill="black"/>
<path opacity="0.5" d="M111.488 14.3821H111.473C111.445 14.3821 111.422 14.3606 111.422 14.3355V13.7291C111.422 13.7039 111.445 13.6824 111.473 13.6824H111.488C111.516 13.6824 111.539 13.7039 111.539 13.7291V14.3355C111.539 14.3606 111.516 14.3821 111.488 14.3821Z" fill="black"/>
<path opacity="0.5" d="M111.082 14.3068H111.066C111.039 14.3068 111.016 14.2852 111.016 14.2601V13.6537C111.016 13.6286 111.039 13.607 111.066 13.607H111.082C111.11 13.607 111.133 13.6286 111.133 13.6537V14.2601C111.133 14.2852 111.11 14.3068 111.082 14.3068Z" fill="black"/>
<path opacity="0.5" d="M110.715 14.1884H110.699C110.672 14.1884 110.648 14.1668 110.648 14.1417V13.5353C110.648 13.5102 110.672 13.4886 110.699 13.4886H110.715C110.742 13.4886 110.766 13.5102 110.766 13.5353V14.1417C110.766 14.1668 110.742 14.1884 110.715 14.1884Z" fill="black"/>
<path opacity="0.5" d="M110.348 13.9874H110.332C110.305 13.9874 110.281 13.9659 110.281 13.9408V13.3343C110.281 13.3092 110.305 13.2877 110.332 13.2877H110.348C110.375 13.2877 110.399 13.3092 110.399 13.3343V13.9408C110.399 13.9659 110.375 13.9874 110.348 13.9874Z" fill="black"/>
<path opacity="0.5" d="M112.055 23.8303C113.543 23.8303 114.75 23.2985 114.75 22.6425C114.75 21.9866 113.543 21.4548 112.055 21.4548C110.566 21.4548 109.359 21.9866 109.359 22.6425C109.359 23.2985 110.566 23.8303 112.055 23.8303Z" fill="black"/>
<path opacity="0.5" d="M113.706 12.7781L113.663 13.9802C113.659 14.0161 113.647 14.052 113.62 14.0771C113.459 14.2494 113.166 14.5041 112.348 14.5723C112.313 14.3678 112.493 14.1776 112.626 14.0054C112.908 13.6465 113.045 13.198 113.017 12.7566L113.706 12.7781Z" fill="black"/>
<path d="M113.701 12.692C113.701 13.1764 112.902 13.5712 111.917 13.5712C110.931 13.5712 110.133 13.1764 110.133 12.692C110.133 12.2076 110.931 11.8129 111.917 11.8129C112.902 11.8129 113.701 12.2076 113.701 12.692Z" fill="white"/>
<path d="M111.919 13.1693C112.444 13.1693 112.87 12.9588 112.87 12.6992C112.87 12.4396 112.444 12.2291 111.919 12.2291C111.394 12.2291 110.969 12.4396 110.969 12.6992C110.969 12.9588 111.394 13.1693 111.919 13.1693Z" fill="#E6E6EE"/>
<path opacity="0.5" d="M112.423 12.6992C112.423 12.8499 112.2 12.9755 111.923 12.9755C111.645 12.9755 111.422 12.8535 111.422 12.6992C111.422 12.5449 111.645 12.4229 111.923 12.4229C112.2 12.4229 112.423 12.5449 112.423 12.6992Z" fill="black"/>
<path d="M123.006 25.9474C123.006 26.0156 122.998 26.0802 122.979 26.1448C122.838 26.5969 122.138 28.3014 119.556 28.3767C117.009 28.4521 116.258 26.9701 116.094 26.5395C116.066 26.4713 116.055 26.3995 116.055 26.3278C116.047 25.689 116.008 22.054 116.008 20.3962C116.008 18.9573 117.013 18.3006 117.432 18.0925C117.545 18.0351 117.616 18.01 117.616 18.01L121.352 18.053C121.363 18.0566 121.371 18.0602 121.383 18.0638C122.725 18.4657 122.912 19.8759 122.912 19.8759L123.006 25.9474Z" fill="#F59701"/>
<path opacity="0.5" d="M121.389 18.1284C121.389 18.6128 120.501 19.0075 119.409 19.0075C118.318 19.0075 117.43 18.6128 117.43 18.1284C117.43 18.114 117.43 18.1033 117.434 18.0889C117.547 18.0315 117.617 18.0064 117.617 18.0064L121.353 18.0494C121.365 18.053 121.373 18.0566 121.385 18.0602C121.385 18.0853 121.389 18.1068 121.389 18.1284Z" fill="black"/>
<path d="M121.389 17.9992C121.389 18.4836 120.504 18.8783 119.409 18.8783C118.318 18.8783 117.43 18.4836 117.43 17.9992C117.43 17.5148 118.314 17.12 119.409 17.12C120.501 17.1236 121.389 17.5148 121.389 17.9992Z" fill="white"/>
<path d="M121.193 16.7648L121.15 17.9669C121.146 18.0028 121.134 18.0387 121.107 18.0638C120.946 18.236 120.653 18.4908 119.835 18.559C119.706 18.5697 119.561 18.5769 119.405 18.5769C118.349 18.5769 117.836 18.1356 117.695 17.9884C117.668 17.9597 117.652 17.9238 117.652 17.888L117.625 16.7648L117.742 16.6572L120.504 16.7433L121.193 16.7648Z" fill="#E6E6EE"/>
<path opacity="0.5" d="M119.402 18.4119H119.387C119.359 18.4119 119.336 18.3903 119.336 18.3652V17.7588C119.336 17.7337 119.359 17.7121 119.387 17.7121H119.402C119.43 17.7121 119.453 17.7337 119.453 17.7588V18.3652C119.453 18.3903 119.43 18.4119 119.402 18.4119Z" fill="black"/>
<path opacity="0.5" d="M119.777 18.3652H119.762C119.734 18.3652 119.711 18.3437 119.711 18.3186V17.7121C119.711 17.687 119.734 17.6655 119.762 17.6655H119.777C119.805 17.6655 119.828 17.687 119.828 17.7121V18.3186C119.828 18.3437 119.805 18.3652 119.777 18.3652Z" fill="black"/>
<path opacity="0.5" d="M120.199 18.2827H120.184C120.156 18.2827 120.133 18.2611 120.133 18.236V17.6296C120.133 17.6045 120.156 17.5829 120.184 17.5829H120.199C120.227 17.5829 120.25 17.6045 120.25 17.6296V18.236C120.25 18.2611 120.227 18.2827 120.199 18.2827Z" fill="black"/>
<path opacity="0.5" d="M120.574 18.1427H120.559C120.531 18.1427 120.508 18.1212 120.508 18.0961V17.4896C120.508 17.4645 120.531 17.443 120.559 17.443H120.574C120.602 17.443 120.625 17.4645 120.625 17.4896V18.0961C120.625 18.1212 120.602 18.1427 120.574 18.1427Z" fill="black"/>
<path opacity="0.5" d="M120.941 17.9705H120.926C120.898 17.9705 120.875 17.949 120.875 17.9238V17.3174C120.875 17.2923 120.898 17.2708 120.926 17.2708H120.941C120.969 17.2708 120.992 17.2923 120.992 17.3174V17.9238C120.992 17.949 120.969 17.9705 120.941 17.9705Z" fill="black"/>
<path opacity="0.5" d="M118.984 18.3652H118.965C118.938 18.3652 118.914 18.3437 118.914 18.3186V17.7121C118.914 17.687 118.938 17.6655 118.965 17.6655H118.984C119.012 17.6655 119.035 17.687 119.035 17.7121V18.3186C119.039 18.3437 119.016 18.3652 118.984 18.3652Z" fill="black"/>
<path opacity="0.5" d="M118.574 18.2899H118.559C118.531 18.2899 118.508 18.2683 118.508 18.2432V17.6368C118.508 17.6117 118.531 17.5901 118.559 17.5901H118.574C118.602 17.5901 118.625 17.6117 118.625 17.6368V18.2432C118.625 18.2683 118.602 18.2899 118.574 18.2899Z" fill="black"/>
<path opacity="0.5" d="M118.207 18.1714H118.191C118.164 18.1714 118.141 18.1499 118.141 18.1248V17.5184C118.141 17.4932 118.164 17.4717 118.191 17.4717H118.207C118.235 17.4717 118.258 17.4932 118.258 17.5184V18.1248C118.258 18.1499 118.235 18.1714 118.207 18.1714Z" fill="black"/>
<path opacity="0.5" d="M117.84 17.9705H117.824C117.797 17.9705 117.773 17.949 117.773 17.9238V17.3174C117.773 17.2923 117.797 17.2708 117.824 17.2708H117.84C117.867 17.2708 117.891 17.2923 117.891 17.3174V17.9238C117.891 17.949 117.867 17.9705 117.84 17.9705Z" fill="black"/>
<path opacity="0.5" d="M119.547 27.8134C121.035 27.8134 122.242 27.2816 122.242 26.6256C122.242 25.9696 121.035 25.4379 119.547 25.4379C118.058 25.4379 116.852 25.9696 116.852 26.6256C116.852 27.2816 118.058 27.8134 119.547 27.8134Z" fill="black"/>
<path opacity="0.5" d="M121.198 16.7648L121.155 17.9669C121.151 18.0028 121.139 18.0387 121.112 18.0638C120.951 18.236 120.658 18.4908 119.84 18.559C119.805 18.3544 119.985 18.1643 120.118 17.992C120.4 17.6332 120.537 17.1846 120.509 16.7433L121.198 16.7648Z" fill="black"/>
<path d="M121.193 16.6751C121.193 17.1595 120.395 17.5542 119.409 17.5542C118.423 17.5542 117.625 17.1595 117.625 16.6751C117.625 16.1907 118.423 15.7959 119.409 15.7959C120.395 15.7959 121.193 16.1907 121.193 16.6751Z" fill="white"/>
<path d="M120.362 16.6823C120.362 16.9406 119.936 17.1523 119.412 17.1523C118.887 17.1523 118.461 16.9442 118.461 16.6823C118.461 16.4239 118.887 16.2122 119.412 16.2122C119.936 16.2158 120.362 16.4239 120.362 16.6823Z" fill="#E6E6EE"/>
<path opacity="0.5" d="M119.916 16.6823C119.916 16.833 119.693 16.9586 119.415 16.9586C119.137 16.9586 118.914 16.8366 118.914 16.6823C118.914 16.528 119.137 16.406 119.415 16.406C119.693 16.406 119.916 16.5316 119.916 16.6823Z" fill="black"/>
<path d="M103.773 36.9493L101.094 38.3631L107.834 41.9622L110.557 40.5269L103.773 36.9493Z" fill="#FCFDFF"/>
<path d="M101.07 42.662L101.094 38.3631L107.834 41.9622L107.822 46.2396L101.07 42.662Z" fill="#E9EAEC"/>
<path d="M110.523 44.815L107.82 46.2396L107.832 41.9622L110.555 40.5269L110.523 44.815Z" fill="#DEDCE1"/>
<path opacity="0.3" d="M108.012 42.0771L110.555 40.7386L110.559 40.5269L107.832 41.9622L107.82 46.2396L108.004 46.1427L108.012 42.0771Z" fill="black"/>
<path d="M102.047 40.326L103.979 41.3522V42.0125L102.047 41.0113V40.326Z" fill="#467DE4"/>
<path d="M104.305 41.5173L106.237 42.5436V43.2038L104.305 42.2027V41.5173Z" fill="#467DE4"/>
<path d="M101.844 41.6465V42.2816L104.23 43.5519L104.238 42.9024L101.844 41.6465Z" fill="#DEDCE1"/>
<path d="M104.516 43.0782V43.7134L106.906 44.9836L106.91 44.3377L104.516 43.0782Z" fill="#DEDCE1"/>
<path d="M114.086 42.5579L111.406 43.9681L118.147 47.5673L120.869 46.1355L114.086 42.5579Z" fill="#FCFDFF"/>
<path d="M111.383 48.2706L111.406 43.9681L118.147 47.5673L118.135 51.8482L111.383 48.2706Z" fill="#E9EAEC"/>
<path d="M120.836 50.4236L118.133 51.8482L118.145 47.5673L120.867 46.1355L120.836 50.4236Z" fill="#DEDCE1"/>
<path opacity="0.3" d="M118.324 47.6821L120.867 46.3472L120.871 46.1355L118.145 47.5673L118.133 51.8482L118.317 51.7513L118.324 47.6821Z" fill="black"/>
<path d="M112.359 45.931L114.292 46.9572V47.6211L112.359 46.6163V45.931Z" fill="#467DE4"/>
<path d="M114.617 47.1259L116.55 48.1522V48.8124L114.617 47.8113V47.1259Z" fill="#467DE4"/>
<path d="M112.156 47.2551V47.8902L114.543 49.1569L114.55 48.511L112.156 47.2551Z" fill="#DEDCE1"/>
<path d="M114.828 48.6868V49.322L117.218 50.5922L117.222 49.9427L114.828 48.6868Z" fill="#DEDCE1"/>
<path d="M130.413 53.3625C130.413 53.4306 130.405 53.4952 130.385 53.5598C130.244 54.0119 129.544 55.7164 126.962 55.7918C124.416 55.8671 123.664 54.3851 123.5 53.9545C123.473 53.8864 123.461 53.8146 123.461 53.7428C123.453 53.1041 123.414 49.4691 123.414 47.8113C123.414 46.3723 124.419 45.7157 124.838 45.5075C124.951 45.4501 125.022 45.425 125.022 45.425L128.758 45.4681C128.77 45.4717 128.777 45.4752 128.789 45.4788C130.131 45.8807 130.319 47.291 130.319 47.291L130.413 53.3625Z" fill="#F59701"/>
<path opacity="0.5" d="M128.795 45.5434C128.795 46.0279 127.907 46.4226 126.815 46.4226C125.724 46.4226 124.836 46.0279 124.836 45.5434C124.836 45.5291 124.836 45.5183 124.84 45.504C124.953 45.4465 125.024 45.4214 125.024 45.4214L128.76 45.4645C128.771 45.4681 128.779 45.4717 128.791 45.4752C128.791 45.5004 128.795 45.5219 128.795 45.5434Z" fill="black"/>
<path d="M128.795 45.4142C128.795 45.8987 127.911 46.2934 126.815 46.2934C125.724 46.2934 124.836 45.8987 124.836 45.4142C124.836 44.9298 125.72 44.5351 126.815 44.5351C127.907 44.5351 128.795 44.9298 128.795 45.4142Z" fill="white"/>
<path d="M128.599 44.1763L128.556 45.3784C128.552 45.4142 128.54 45.4501 128.513 45.4752C128.352 45.6475 128.059 45.9023 127.242 45.9704C127.112 45.9812 126.968 45.9884 126.811 45.9884C125.755 45.9884 125.242 45.547 125.102 45.3999C125.074 45.3712 125.059 45.3353 125.059 45.2994L125.031 44.1763L125.149 44.0686L127.91 44.1547L128.599 44.1763Z" fill="#E6E6EE"/>
<path opacity="0.5" d="M126.809 45.8269H126.793C126.766 45.8269 126.742 45.8054 126.742 45.7803V45.1738C126.742 45.1487 126.766 45.1272 126.793 45.1272H126.809C126.836 45.1272 126.86 45.1487 126.86 45.1738V45.7803C126.86 45.8054 126.836 45.8269 126.809 45.8269Z" fill="black"/>
<path opacity="0.5" d="M127.184 45.7803H127.168C127.141 45.7803 127.117 45.7587 127.117 45.7336V45.1272C127.117 45.1021 127.141 45.0805 127.168 45.0805H127.184C127.211 45.0805 127.235 45.1021 127.235 45.1272V45.7336C127.238 45.7587 127.215 45.7803 127.184 45.7803Z" fill="black"/>
<path opacity="0.5" d="M127.606 45.6977H127.59C127.563 45.6977 127.539 45.6762 127.539 45.6511V45.0446C127.539 45.0195 127.563 44.998 127.59 44.998H127.606C127.633 44.998 127.656 45.0195 127.656 45.0446V45.6511C127.656 45.6762 127.633 45.6977 127.606 45.6977Z" fill="black"/>
<path opacity="0.5" d="M127.981 45.5578H127.965C127.938 45.5578 127.914 45.5362 127.914 45.5111V44.9047C127.914 44.8796 127.938 44.858 127.965 44.858H127.981C128.008 44.858 128.031 44.8796 128.031 44.9047V45.5111C128.031 45.5362 128.008 45.5578 127.981 45.5578Z" fill="black"/>
<path opacity="0.5" d="M128.348 45.3819H128.332C128.305 45.3819 128.281 45.3604 128.281 45.3353V44.7289C128.281 44.7037 128.305 44.6822 128.332 44.6822H128.348C128.375 44.6822 128.399 44.7037 128.399 44.7289V45.3353C128.399 45.3604 128.375 45.3819 128.348 45.3819Z" fill="black"/>
<path opacity="0.5" d="M126.387 45.7803H126.371C126.344 45.7803 126.32 45.7587 126.32 45.7336V45.1272C126.32 45.1021 126.344 45.0805 126.371 45.0805H126.387C126.414 45.0805 126.438 45.1021 126.438 45.1272V45.7336C126.442 45.7587 126.418 45.7803 126.387 45.7803Z" fill="black"/>
<path opacity="0.5" d="M125.981 45.7049H125.965C125.938 45.7049 125.914 45.6834 125.914 45.6582V45.0518C125.914 45.0267 125.938 45.0052 125.965 45.0052H125.981C126.008 45.0052 126.031 45.0267 126.031 45.0518V45.6582C126.031 45.6834 126.008 45.7049 125.981 45.7049Z" fill="black"/>
<path opacity="0.5" d="M125.613 45.5865H125.598C125.57 45.5865 125.547 45.565 125.547 45.5398V44.9334C125.547 44.9083 125.57 44.8868 125.598 44.8868H125.613C125.641 44.8868 125.664 44.9083 125.664 44.9334V45.5398C125.664 45.565 125.641 45.5865 125.613 45.5865Z" fill="black"/>
<path opacity="0.5" d="M125.246 45.3819H125.231C125.203 45.3819 125.18 45.3604 125.18 45.3353V44.7289C125.18 44.7037 125.203 44.6822 125.231 44.6822H125.246C125.274 44.6822 125.297 44.7037 125.297 44.7289V45.3353C125.297 45.3604 125.274 45.3819 125.246 45.3819Z" fill="black"/>
<path opacity="0.5" d="M129.648 54.0407C129.648 54.6973 128.444 55.2284 126.953 55.2284C125.463 55.2284 124.258 54.6973 124.258 54.0407C124.258 53.384 125.463 52.8529 126.953 52.8529C128.44 52.8529 129.648 53.384 129.648 54.0407Z" fill="black"/>
<path opacity="0.5" d="M128.604 44.1763L128.561 45.3784C128.557 45.4142 128.545 45.4501 128.518 45.4752C128.358 45.6475 128.064 45.9023 127.247 45.9704C127.211 45.7659 127.391 45.5757 127.524 45.4035C127.806 45.0446 127.943 44.5961 127.916 44.1547L128.604 44.1763Z" fill="black"/>
<path d="M128.599 44.0901C128.599 44.5746 127.801 44.9693 126.815 44.9693C125.829 44.9693 125.031 44.5746 125.031 44.0901C125.031 43.6057 125.829 43.211 126.815 43.211C127.801 43.211 128.599 43.6021 128.599 44.0901Z" fill="white"/>
<path d="M127.768 44.0973C127.768 44.3557 127.342 44.5674 126.818 44.5674C126.294 44.5674 125.867 44.3593 125.867 44.0973C125.867 43.839 126.294 43.6272 126.818 43.6272C127.342 43.6272 127.768 43.839 127.768 44.0973Z" fill="#E6E6EE"/>
<path opacity="0.5" d="M127.322 44.0973C127.322 44.248 127.099 44.3736 126.821 44.3736C126.543 44.3736 126.32 44.2516 126.32 44.0973C126.32 43.9466 126.543 43.821 126.821 43.821C127.099 43.821 127.322 43.943 127.322 44.0973Z" fill="black"/>
<path d="M99.7656 3.28335L104.706 0L145.848 21.9464L140.908 25.2297L99.7656 3.28335Z" fill="#B0C9D6"/>
<path d="M64.7305 57.019C64.4137 56.8396 65.1256 55.9891 65.3995 55.4904C65.6733 54.9916 65.6577 54.866 65.5677 54.8947C65.4777 54.9234 64.7188 55.8528 64.4098 56.2941C64.1007 56.7355 63.6313 57.446 63.3027 57.2415C62.9741 57.0369 63.5061 56.3552 63.9051 55.7451C64.3041 55.1387 64.8322 54.6543 64.6875 54.5502C64.5428 54.4461 62.7902 56.5023 62.6494 56.6494C62.5085 56.7965 62.086 57.2917 61.8044 57.1087C61.5266 56.9257 61.8592 56.4556 62.0352 56.2116C62.2151 55.9712 62.7433 55.3145 63.2205 54.7942C63.6978 54.2739 63.8543 54.1088 63.776 54.0227C63.6978 53.9366 62.4147 54.988 61.9609 55.3827C61.5071 55.7774 60.9829 56.0394 60.8029 55.7128C60.6269 55.3863 61.5658 54.7045 62.0743 54.2811C62.5829 53.8577 63.4591 53.1328 63.733 52.7704C64.0068 52.4115 64.3315 52.1352 64.1046 52.0348C64.0538 52.0096 64.0146 51.9881 63.9912 51.9738C63.8464 51.8876 63.377 51.9056 63.0484 51.9774C62.7198 52.0491 62.2621 51.8912 62.0235 51.719C61.7848 51.5468 61.7496 51.3099 62.4851 51.3135C63.2205 51.3171 64.2298 51.0372 64.7227 50.7573C65.2117 50.4774 65.5012 50.2585 66.088 50.4559C66.2797 50.5205 68.8655 47.1438 69.2215 46.6379C69.5774 46.1319 71.639 47.8041 71.3104 48.1916C70.9818 48.5792 67.7701 51.6795 67.8601 51.9881C67.9501 52.2967 67.8992 52.5551 67.5041 53.3338C67.3046 53.7249 66.8743 54.4461 66.5027 55.0418C66.5027 55.0418 65.8102 56.1721 65.4973 56.5776C65.1804 56.9867 65.0474 57.1984 64.7305 57.019Z" fill="#FFAA82"/>
<path d="M91.9282 90.4445C91.9752 90.3476 92.6715 88.9446 92.8397 88.1408C92.871 87.9865 92.9532 87.2545 92.9375 87.0069C92.9023 86.4543 92.9962 86.1241 91.6466 85.3634C89.4402 84.1147 87.363 90.9541 87.363 90.9541L87.2182 92.6155C87.1635 92.9097 87.4256 93.2327 87.7033 93.4013L87.8637 93.448C88.9356 93.6884 89.5654 93.4444 90.0192 92.9707C90.8016 92.1669 91.1419 92.0701 91.9282 90.4445Z" fill="#6CA4FF"/>
<path d="M91.8738 89.5797C91.9207 89.4793 93.9471 85.3885 91.9755 84.6565C90.2386 84.0142 89.3662 85.5895 88.6581 87.2688C88.4508 87.764 87.9462 88.8262 87.7467 89.1778C87.598 89.4326 87.4063 90.2651 87.3594 90.5558L87.3633 91.8691C87.3163 92.1598 87.7349 91.905 88.0283 92.0701L88.2748 90.9038C88.8381 91.2232 89.2997 92.6801 89.7691 92.1956C90.5789 91.3703 91.0914 91.2376 91.8738 89.5797Z" fill="#21275E"/>
<path d="M90.7198 91.2842C90.5242 91.5139 90.133 91.9194 89.9139 92.2028C89.4992 92.7339 88.4939 93.0317 87.9462 92.8021C87.6489 92.6765 87.3359 92.3535 87.3633 92.0557L87.3359 90.8823C88.0362 90.4302 89.5462 90.5737 90.7198 91.2842Z" fill="#21275E"/>
<path d="M76.769 85.8945C76.8746 85.8514 77.9347 85.0728 78.0364 85.0333C78.189 84.9723 79.699 84.2869 79.9416 84.1649C80.4462 83.9101 81.6746 83.7451 81.0486 82.2559C80.1332 80.0814 73.8233 83.519 73.8233 83.519L71.7108 85.0189C71.4526 85.2019 71.3626 85.4782 71.4604 85.7653C71.6482 86.2928 72.411 86.6839 73.1191 86.605C74.3318 86.4722 74.9655 86.6122 76.769 85.8945Z" fill="#6CA4FF"/>
<path d="M76.5932 85.1983C76.6988 85.1553 77.7589 84.3766 77.8607 84.3371C78.0132 84.2761 79.844 83.6051 80.0826 83.4867C80.5873 83.2319 81.7765 82.9233 81.1506 81.4377C80.2352 79.2632 73.6436 82.8264 73.6436 82.8264L71.5311 84.3264C71.2729 84.5094 71.1829 84.7857 71.2807 85.0728C71.4685 85.6002 72.2314 85.9914 72.9394 85.9124C74.156 85.7797 74.7898 85.916 76.5932 85.1983Z" fill="#21275E"/>
<path d="M74.1538 85.8443C73.8369 85.8658 73.2462 85.8766 72.8707 85.916C72.1626 85.9914 71.4702 85.5967 71.2824 85.0692C71.1807 84.7821 71.2746 84.5058 71.5328 84.3228L72.5655 83.5908C73.4027 83.7666 73.9347 84.5704 74.1538 85.8443Z" fill="#21275E"/>
<path d="M75.8086 23.798C75.7773 25.1293 75.6912 26.4605 75.5308 27.7847C75.5152 27.9067 75.4995 28.0287 75.4839 28.1507C75.4682 28.2619 75.4252 28.61 75.4839 28.1614C75.4487 28.4449 75.3939 28.7284 75.347 29.0083C75.2452 29.6004 75.124 30.1889 74.991 30.7738C74.5176 32.8586 73.8526 34.9004 73.1523 36.9314C72.8707 37.7495 72.6047 38.5713 72.2995 39.3822C72.2565 39.5006 72.2057 39.6155 72.1587 39.7303C72.0296 40.0425 72.2291 39.5437 72.2761 39.4755C72.2252 39.5473 72.1978 39.6406 72.1587 39.7195C71.7245 40.5951 71.1964 41.4348 70.6683 42.2637C69.3695 44.2983 67.9964 46.2898 66.6194 48.2778C66.0482 49.1031 66.4003 50.3698 67.347 50.8255C68.3485 51.3099 69.5181 51.0372 70.1245 50.1581C71.4037 48.3065 72.6829 46.4513 73.8995 44.5674C74.4942 43.6452 75.0927 42.7194 75.5895 41.7505C76.1176 40.7207 76.4658 39.6585 76.8374 38.5748C77.5572 36.5008 78.2614 34.4195 78.7777 32.2916C79.4545 29.5035 79.7988 26.6507 79.8653 23.798C79.8887 22.822 78.9147 21.889 77.835 21.9356C76.7201 21.9787 75.832 22.7502 75.8086 23.798Z" fill="white"/>
<path d="M78.25 60.1193L89.3521 63.8943V46.7993L78.25 43.0208V60.1193Z" fill="#86A3BF"/>
<path d="M88.5889 25.506L81.1797 23.8231L82.2555 20.4823C84.4853 20.4429 86.0579 21.096 87.9356 22.2658L88.5889 25.506Z" fill="#2B337C"/>
<path d="M88.1619 49.2717C87.2935 51.6831 86.8866 54.2273 86.6558 56.7499C86.4172 59.373 86.4211 62.0104 86.5424 64.6371C86.7653 69.4311 87.4225 74.1893 88.0446 78.9474C88.2558 80.5514 88.5296 82.1913 88.5022 83.8133C88.4827 84.9687 89.625 86.0739 90.912 86.0237C92.2343 85.9699 93.2983 85.0548 93.3218 83.8133C93.3452 82.4282 93.1301 81.0359 92.9541 79.6651C92.6841 77.548 92.3868 75.4309 92.1286 73.3137C91.5145 68.2326 91.0568 63.0941 91.3775 57.9843C91.4206 57.2702 91.4832 56.5561 91.5653 55.8456C91.6044 55.5083 91.6553 55.171 91.6944 54.8337C91.6005 55.5801 91.6788 54.9629 91.7061 54.7763C91.7335 54.604 91.7648 54.4282 91.7961 54.256C92.0308 52.9677 92.3516 51.6939 92.8015 50.4523C93.1966 49.3543 92.3438 47.9907 91.1193 47.7359C89.7971 47.4524 88.5844 48.0948 88.1619 49.2717Z" fill="#A8C4E5"/>
<path d="M77.629 48.2742C76.737 51.1987 76.2676 54.2165 75.8725 57.2271C75.6808 58.684 75.5243 60.1444 75.3757 61.6085C75.2622 62.7424 75.0588 63.9086 75.0471 65.0461C75.0392 66.2267 75.2779 67.4432 75.4148 68.613C75.6495 70.5758 75.8881 72.535 76.0994 74.4979C76.2911 76.2669 76.5258 78.0647 76.5062 79.8445C76.4906 81 77.625 82.1088 78.916 82.055C80.2343 82.0011 81.3101 81.0861 81.3258 79.8445C81.3453 78.3195 81.1575 76.7837 81.0011 75.2658C80.7976 73.2958 80.559 71.3329 80.3243 69.3665C80.1639 68.0137 79.9644 66.6573 79.8783 65.3009C79.8275 64.4971 79.9918 63.6718 80.07 62.8716C80.2108 61.4291 80.3556 59.9866 80.5277 58.5476C80.6216 57.7438 80.7272 56.9436 80.8407 56.1434C80.8524 56.0609 80.8993 55.7164 80.8524 56.0501C80.8055 56.3838 80.8563 56.025 80.8681 55.9568C80.8994 55.7523 80.9306 55.5478 80.9659 55.3432C81.0324 54.9377 81.0989 54.5287 81.1732 54.1232C81.4588 52.5515 81.8069 50.987 82.2764 49.4511C82.6167 48.3388 81.8578 46.9967 80.5942 46.7348C79.315 46.4656 77.9928 47.0828 77.629 48.2742Z" fill="#A8C4E5"/>
<path d="M81.15 55.293C81.596 55.7487 79.683 53.5239 80.2542 53.8433C81.4473 54.5036 88.1329 58.6732 89.5255 58.6912C91.2077 58.7163 90.2258 57.2271 91.4776 56.1973C92.6668 55.2212 92.9446 53.6316 93.0619 52.1711C93.0932 51.7692 93.1167 51.3458 92.9407 50.9762C92.749 50.5743 92.3578 50.2908 91.9783 50.0289C89.0091 47.9656 83.1647 42.8593 79.0141 44.492C74.2141 46.3795 79.018 53.1005 81.15 55.293Z" fill="#A8C4E5"/>
<path d="M77.6657 22.6425C76.7855 23.6832 76.8911 24.3255 76.9342 25.7465C76.9772 27.1352 78.0021 28.3373 79.4613 28.7104L94.3541 32.5428C94.3541 32.5428 95.2108 27.2859 92.2729 25.707C90.6925 24.8565 88.2358 23.493 86.3072 22.4165C83.471 20.8304 79.6999 20.2383 77.6657 22.6425Z" fill="#366BC1"/>
<path d="M76.8828 47.334C77.3249 47.8579 77.8882 33.1205 77.0119 23.7944L93.7746 31.1111C93.6886 38.1371 92.7223 43.6847 93.6416 52.2465L76.8828 47.334Z" fill="#366BC1"/>
<path d="M88.0485 53.7787C83.9057 52.3936 79.9625 50.8757 77.6427 48.267C76.5043 47.6641 76.649 46.602 77.9635 45.9058C79.2779 45.2097 81.2847 45.1344 82.4231 45.7372L92.8289 51.2489C93.9673 51.8518 93.8225 52.9139 92.5081 53.61C91.1937 54.3026 89.1869 54.3815 88.0485 53.7787Z" fill="#366BC1"/>
<path d="M83.7994 23.6903L82.0938 17.9203L86.4165 19.0183L87.8052 23.7298C88.1025 24.4977 85.0551 26.6364 83.7994 23.6903Z" fill="#FFAA82"/>
<path d="M83.3281 24.2752C83.3281 24.2752 83.8641 24.4439 84.3374 24.3506L86.0509 27.0167L85.9609 27.1029C85.687 27.3756 85.1785 27.3469 84.9985 27.0454L83.3281 24.2752Z" fill="#3165AF"/>
<path d="M85.1146 24.8027C85.1146 24.8027 84.5982 24.7633 84.2618 24.5228L81.5547 26.1519L81.5821 26.256C81.672 26.5754 82.0945 26.7189 82.3879 26.5359L85.1146 24.8027Z" fill="#3165AF"/>
<path d="M84.7378 24.4224C84.7378 24.4224 82.9148 24.4152 82.5705 21.505L81.3578 21.3507C81.1896 21.4727 80.8375 21.3902 80.6771 22.3626C80.5793 22.9404 80.6224 23.5324 80.7789 24.103L81.2287 25.7644C81.3304 26.1376 81.8273 26.3062 82.1676 26.0838L84.7378 24.4224Z" fill="#6CA4FF"/>
<path d="M83.8047 24.286C83.8047 24.286 85.8819 24.9427 87.9396 22.2658L89.2932 23.8088C89.4144 24.0456 89.4262 24.0743 89.2188 24.2824L86.4883 26.9988C86.1675 27.3182 85.5768 27.2823 85.3695 26.9306L83.8047 24.286Z" fill="#6CA4FF"/>
<path opacity="0.5" d="M83.4609 22.5421C83.4609 22.5421 85.1705 21.7131 85.1783 21.6952C85.1783 21.6952 84.5719 22.8794 83.6917 23.3387L83.4609 22.5421Z" fill="black"/>
<path d="M83.7969 52.2142C85.1465 52.7775 86.5861 53.2871 88.0492 53.7751C89.1876 54.378 91.1944 54.3026 92.5088 53.6065C93.2482 53.2153 93.6159 52.7094 93.5963 52.2357L93.6433 52.2501C92.724 43.6882 93.6941 38.1406 93.7763 31.1146L93.1934 30.8599C92.8726 39.0162 91.4369 51.8984 83.7969 52.2142Z" fill="#366BC1"/>
<path d="M89.069 23.5612L86.7101 26.7727C85.7282 27.8995 85.3057 32.2916 85.3292 33.6696L84.6172 66.521C84.6172 66.521 94.9878 67.0305 94.5379 62.4302C93.2431 49.2502 96.2905 28.6925 93.7751 26.5C90.8646 23.9702 89.069 23.5612 89.069 23.5612Z" fill="#D9EAFF"/>
<path d="M79.8821 27.8169L81.1848 22.1868C81.1848 22.1868 80.1872 20.6438 78.0474 21.7419C74.8005 23.4104 76.9599 44.4131 76.8777 48.0876C76.7956 51.762 74.022 57.5716 74.5618 61.9063C74.5618 61.9063 75.4381 63.2627 78.0474 63.4493C78.0474 63.4493 77.574 53.1902 78.4386 46.3975C79.2992 39.6083 79.8821 27.8169 79.8821 27.8169Z" fill="#D9EAFF"/>
<path d="M90.9087 24.4008C90.9087 24.4008 88.2995 29.4496 87.8026 30.8599L86.0501 31.3479L86.5821 33.3968L85.1973 39.4253C85.1973 39.4253 83.7968 29.4532 88.3151 22.7107L90.9087 24.4008Z" fill="white"/>
<path d="M78.293 21.6234C78.293 21.6234 78.3243 27.0096 78.25 28.488L79.3649 29.6039L78.4339 31.1864L79.2867 37.3261C79.2867 37.3261 80.0769 28.9652 81.3639 20.6366L78.293 21.6234Z" fill="white"/>
<path d="M90.9926 35.3453C90.9769 35.3417 90.2884 35.2556 89.4943 34.9075C89.8229 34.4518 90.0772 33.8382 90.1593 33.0093C90.2219 32.3813 90.2297 31.8323 90.1867 31.3587C90.1124 30.5405 89.8777 29.9556 89.4904 29.6147C89.197 29.3563 88.8214 29.2487 88.4029 29.2989C87.9178 29.3599 87.374 29.4855 87.018 29.9592C86.7051 30.3754 86.6034 30.9783 86.7168 31.7857C86.7481 32.0153 86.799 32.2665 86.8655 32.5285C87.1862 33.7916 88.086 34.5595 88.9584 35.0188C88.1799 35.8405 87.1432 35.8764 87.0767 35.8764L87.0845 36.2065C87.1041 36.2065 88.3677 36.1706 89.2791 35.1767C90.1593 35.5714 90.9339 35.6683 90.9496 35.6719L90.9926 35.3453ZM89.1774 34.7568C88.3598 34.337 87.5109 33.6265 87.2136 32.4531C87.1471 32.1876 87.0963 31.9436 87.0689 31.7175C86.975 31.0142 87.0532 30.4867 87.3114 30.1458C87.5892 29.7762 88.0195 29.6757 88.4498 29.6255C88.5515 29.6147 88.6532 29.6147 88.7471 29.6255C88.9349 29.6506 89.0992 29.726 89.2439 29.8515C89.4865 30.0668 89.7447 30.501 89.8268 31.373C89.8659 31.7964 89.8659 32.3239 89.8033 32.9806C89.7212 33.7664 89.4826 34.3406 89.1774 34.7568Z" fill="#C6C6C6"/>
<path d="M91.1787 36.0773L90.5958 35.9266C90.3415 35.862 90.189 35.6144 90.2594 35.3812C90.3298 35.148 90.5997 35.008 90.854 35.0726L91.4369 35.2233C91.6912 35.2879 91.8437 35.5355 91.7733 35.7687C91.7029 36.0056 91.433 36.1419 91.1787 36.0773Z" fill="#B2B2B2"/>
<path d="M87.4662 36.5331L86.8676 36.6264C86.6055 36.6658 86.3552 36.5044 86.3121 36.2639C86.2652 36.0235 86.4451 35.7939 86.7072 35.7544L87.3058 35.6611C87.5679 35.6216 87.8182 35.7831 87.8613 36.0235C87.9043 36.2603 87.7283 36.49 87.4662 36.5331Z" fill="#B2B2B2"/>
<path d="M90.1834 31.3587C90.0661 31.3622 89.9409 31.3658 89.8196 31.373C89.7375 30.501 89.4793 30.0668 89.2367 29.8515C89.092 29.726 88.9277 29.6506 88.7399 29.6255C88.646 29.6147 88.5482 29.6147 88.4426 29.6255C88.0162 29.6793 87.582 29.7798 87.3042 30.1458C87.0499 30.4867 86.9678 31.0142 87.0617 31.7175C86.9326 31.739 86.8152 31.7641 86.7096 31.7821C86.5962 30.9747 86.694 30.3754 87.0108 29.9556C87.3668 29.4819 87.9106 29.3563 88.3957 29.2953C88.8142 29.2451 89.1898 29.3528 89.4832 29.6111C89.8744 29.952 90.1091 30.5369 90.1834 31.3587Z" fill="#21275E"/>
<path d="M88.9611 35.0188C88.9611 35.0188 89.188 35.148 89.2779 35.1731C89.2779 35.1731 89.1606 35.1838 88.8672 35.1049L88.9611 35.0188Z" fill="black"/>
<path d="M80.1294 31.2438L79.7578 31.2367C79.7578 31.1936 79.8478 26.805 80.595 24.0599C81.3695 21.2144 83.1495 21.0672 83.2238 21.0637L83.2512 21.4046C83.1886 21.4081 81.659 21.5553 80.9549 24.1425C80.2233 26.8517 80.1334 31.2008 80.1294 31.2438Z" fill="#21275E"/>
<path d="M83.5365 22.5385L82.3082 22.5744C80.4187 22.6318 78.8187 21.261 78.7561 19.5278L78.5488 13.8008C78.4862 12.0676 79.9806 10.6 81.87 10.5426L83.0984 10.5067C84.9879 10.4493 86.5878 11.8201 86.6504 13.5532L86.8578 19.2802C86.9243 21.0134 85.426 22.4811 83.5365 22.5385Z" fill="#FFAA82"/>
<path d="M83.4261 14.7697C82.143 15.3259 80.5469 15.6345 79.1229 15.1285C77.5777 14.5831 76.4863 12.5915 77.699 11.5545C78.3562 10.9947 80.0344 10.4888 81.431 9.97205C85.3899 8.49723 89.6852 10.3596 89.8339 14.5077C89.8339 14.5077 90.1273 19.108 87.561 20.6402C87.1072 20.9129 86.4931 20.6797 86.3561 20.1953C86.3561 20.1953 87.6549 18.5016 85.4446 17.2744C84.9361 16.9909 84.8187 16.3414 84.8618 15.6596C84.9087 14.967 84.1146 14.4718 83.4261 14.7697Z" fill="#915151"/>
<path d="M87.5603 19.4023C87.0087 19.8221 86.3789 19.6786 86.152 19.0793C85.9251 18.48 86.1872 17.6547 86.7388 17.2349C87.2903 16.815 87.9202 16.9586 88.1471 17.5578C88.3739 18.1571 88.1079 18.9824 87.5603 19.4023Z" fill="#FFAA82"/>
<path d="M79.1814 30.9209C78.9936 31.3622 79.2322 31.8574 79.7095 32.0297C80.1907 32.2019 80.7305 31.983 80.9183 31.5452C81.1061 31.1039 80.8674 30.6087 80.3902 30.4364C79.909 30.2642 79.3691 30.4831 79.1814 30.9209Z" fill="#21275E"/>
<path d="M78.9504 31.0034C78.7079 31.574 79.013 32.2163 79.635 32.4423C80.257 32.6648 80.9573 32.3849 81.2037 31.8144C81.4463 31.2438 81.1411 30.6015 80.5191 30.3754C79.8932 30.1494 79.193 30.4329 78.9504 31.0034Z" fill="#878787"/>
<path d="M79.3845 31.1146C79.2202 31.4986 79.4275 31.9292 79.8461 32.0799C80.2647 32.2306 80.7341 32.0404 80.8984 31.6565C81.0627 31.2725 80.8554 30.8419 80.4368 30.6912C80.0182 30.5405 79.5488 30.7307 79.3845 31.1146Z" fill="#C6C6C6"/>
<path d="M88.5724 23.8518C88.6858 22.5169 87.7939 21.8387 87.1562 21.5266L87.2971 21.9966C87.7861 22.3124 88.2868 22.8722 88.2047 23.8267C88.1577 24.3721 88.0443 24.957 87.923 25.5778C87.6218 27.1244 87.3088 28.7212 88.056 29.8372L88.3729 29.6578C87.7 28.653 87.9973 27.1172 88.2868 25.6352C88.4081 25.0109 88.5254 24.4152 88.5724 23.8518Z" fill="#21275E"/>
<path d="M77.5823 56.4664C77.3945 56.1721 78.4547 55.7236 78.9515 55.4006C79.4444 55.0777 79.4992 54.9593 79.4014 54.9449C79.3075 54.9306 78.1613 55.4294 77.6645 55.6877C77.1676 55.9461 76.3892 56.3731 76.2014 56.0501C76.0136 55.7272 76.8312 55.3504 77.4923 54.9844C78.1535 54.6184 78.8693 54.4174 78.7911 54.2631C78.7168 54.1088 76.1192 55.1782 75.9197 55.2463C75.7202 55.3145 75.0943 55.5729 74.9417 55.2894C74.7892 55.0059 75.3212 54.7332 75.6029 54.5969C75.8845 54.4605 76.6826 54.1053 77.3711 53.8505C78.0596 53.5921 78.2825 53.5168 78.2552 53.4055C78.2317 53.2943 76.5613 53.6782 75.9588 53.8325C75.3564 53.9868 74.7579 53.994 74.7657 53.628C74.7735 53.262 75.9549 53.061 76.6161 52.9031C77.2811 52.7488 78.4273 52.4797 78.8498 52.2788C79.2723 52.0778 79.7026 51.9738 79.5539 51.7872C79.5226 51.7441 79.4992 51.7082 79.4874 51.6831C79.4053 51.5432 78.9789 51.3602 78.6542 51.2848C78.3256 51.2094 78.0009 50.8721 77.8796 50.6174C77.7584 50.3626 77.8444 50.1401 78.4938 50.4559C79.1432 50.7753 80.1759 50.9583 80.7549 50.9224C81.33 50.8829 81.6938 50.8147 82.1163 51.2417C82.2532 51.3817 86.2551 49.5014 86.8302 49.2071C87.4052 48.9093 88.3754 51.2704 87.8864 51.475C87.3974 51.6759 82.9808 53.0431 82.9026 53.3553C82.8243 53.6675 82.6483 53.872 81.9011 54.3923C81.5295 54.6543 80.7784 55.1064 80.1446 55.476C80.1446 55.476 78.9593 56.1793 78.4742 56.4054C77.997 56.6279 77.7701 56.7606 77.5823 56.4664Z" fill="#FFAA82"/>
<path d="M90.6204 28.5561C90.859 29.08 91.1015 29.6004 91.348 30.1207C91.4419 30.318 91.5318 30.5154 91.6257 30.7092C91.6649 30.7881 91.6961 30.8742 91.7392 30.9496C91.4888 30.4723 91.7705 31.0249 91.8135 31.1218C92.2204 32.0297 92.5959 32.9519 92.8893 33.8956C93.034 34.3621 93.1631 34.8358 93.2609 35.313C93.3118 35.5534 93.3705 35.7975 93.3939 36.0415C93.3431 35.5499 93.39 36.0558 93.3979 36.1383C93.4135 36.2891 93.4252 36.4362 93.437 36.5869C93.4722 37.118 93.4683 37.6526 93.4213 38.1837C93.4096 38.3093 93.4096 38.4492 93.3783 38.5712C93.4956 38.1155 93.3666 38.6251 93.3509 38.7004C93.2961 38.9911 93.2257 39.2817 93.1397 39.5652C92.9871 40.0891 92.7837 40.5951 92.5724 41.101C92.4864 41.3128 92.3964 41.5245 92.3064 41.7326C92.2634 41.8331 92.2164 41.9371 92.1734 42.0376C92.1186 42.1668 92.0052 42.6082 92.1382 42.1237C92.0365 42.4969 91.7744 42.8773 91.5944 43.2253C91.3988 43.5949 91.1915 43.961 90.9724 44.3198C90.7847 44.6248 90.5852 44.9226 90.3778 45.2169C90.2683 45.3712 90.1509 45.5219 90.0336 45.6726C89.9827 45.7408 89.9279 45.8054 89.8732 45.8736C89.6463 46.157 90.1979 45.5147 89.8927 45.8449C89.4077 46.3723 88.8991 46.8711 88.3201 47.3161C88.2654 47.3591 88.2145 47.3986 88.1597 47.4381C87.7451 47.7503 88.4414 47.2551 88.1558 47.4453C87.9837 47.5601 87.8077 47.6785 87.6316 47.7897C87.2639 48.0194 86.8805 48.2311 86.4932 48.4321C86.0942 48.6366 85.6874 48.8268 85.2766 49.0026C85.0497 49.1031 84.8189 49.1928 84.5881 49.2897C84.236 49.4332 84.6312 49.3435 84.6546 49.2645C84.639 49.3148 84.2204 49.426 84.1578 49.4511C83.1759 49.8136 82.374 50.7107 82.7378 51.7441C83.0468 52.6161 84.1813 53.4342 85.2375 53.0467C87.0135 52.3936 88.7622 51.6688 90.2957 50.6066C91.8096 49.5588 93.0575 48.3172 94.0707 46.8388C95.1934 45.2025 95.9954 43.3796 96.7113 41.5711C97.6736 39.1418 97.7049 36.5474 97.1181 34.0392C96.8443 32.8765 96.4296 31.7462 95.9563 30.641C95.6785 29.9915 95.3812 29.3528 95.08 28.714C94.9705 28.4808 94.8609 28.2475 94.7514 28.0143C94.6966 27.8995 94.6458 27.7882 94.591 27.6734C94.5558 27.5981 94.5206 27.5263 94.4893 27.4509C94.6106 27.7129 94.6262 27.7524 94.5441 27.5693C94.3289 27.0993 94.1098 26.7225 93.6091 26.457C93.1749 26.2237 92.5333 26.1232 92.0443 26.2704C91.1015 26.5431 90.1822 27.5909 90.6204 28.5561Z" fill="white"/>
<path d="M83.0077 26.2058C83.0077 26.2058 80.6449 40.1142 80.3984 44.7612L81.1378 46.4979L82.6595 44.876L84.6859 26.4211L83.0077 26.2058Z" fill="#F95C43"/>
<path d="M82.7578 25.6819L83.3837 26.988C83.462 27.1495 83.681 27.1997 83.8336 27.0921L84.9759 26.2668L84.1153 24.8171L82.7578 25.6819Z" fill="#EA4736"/>
<path opacity="0.5" d="M25.2752 60.0117C25.2752 63.0869 19.6185 65.5808 12.6356 65.5808C5.65669 65.5808 0 63.0869 0 60.0117C0 56.9365 5.65669 54.4425 12.6395 54.4425C19.6185 54.4425 25.2752 56.9365 25.2752 60.0117Z" fill="black"/>
<path d="M22.4027 57.6434C22.4066 57.8228 22.3792 58.0022 22.3244 58.1744C21.945 59.3981 20.0477 64.0235 13.0492 64.2244C6.14066 64.4254 4.11036 60.41 3.66831 59.2474C3.59789 59.0608 3.56268 58.8706 3.56268 58.6732C3.54312 56.9472 3.4375 47.09 3.4375 42.5938C3.4375 38.6897 6.15631 36.917 7.2986 36.3465C7.60373 36.1922 7.79151 36.1276 7.79151 36.1276L17.9157 36.246C17.943 36.2532 17.9704 36.2603 17.9978 36.2711C21.6398 37.362 22.1445 41.18 22.1445 41.18L22.4027 57.6434Z" fill="#F59701"/>
<path opacity="0.5" d="M18.0235 36.4505C18.0235 37.7675 15.6215 38.8332 12.6602 38.8332C9.69882 38.8332 7.29688 37.7675 7.29688 36.4505C7.29688 36.4146 7.30079 36.3823 7.30079 36.3465C7.60592 36.1922 7.79369 36.1276 7.79369 36.1276L17.9178 36.246C17.9452 36.2532 17.9726 36.2603 18 36.2711C18.0195 36.3321 18.0235 36.3931 18.0235 36.4505Z" fill="black"/>
<path d="M12.6602 38.4779C15.6222 38.4779 18.0235 37.4128 18.0235 36.0989C18.0235 34.7849 15.6222 33.7198 12.6602 33.7198C9.6981 33.7198 7.29688 34.7849 7.29688 36.0989C7.29688 37.4128 9.6981 38.4779 12.6602 38.4779Z" fill="white"/>
<path d="M17.4946 32.7473L17.3733 36.0092C17.3694 36.106 17.3303 36.1993 17.256 36.2747C16.8178 36.7448 16.0276 37.4337 13.8095 37.6132C13.4575 37.6419 13.0702 37.6598 12.6399 37.6598C9.78021 37.6598 8.39147 36.4613 8.0081 36.0666C7.93377 35.9912 7.89465 35.8943 7.89074 35.7903L7.8125 32.7509L8.13328 32.4603L15.6208 32.6935L17.4946 32.7473Z" fill="#E6E6EE"/>
<path opacity="0.5" d="M12.6331 37.2148H12.5861C12.5079 37.2148 12.4453 37.1574 12.4453 37.0857V35.4422C12.4453 35.3704 12.5079 35.313 12.5861 35.313H12.6331C12.7113 35.313 12.7739 35.3704 12.7739 35.4422V37.0857C12.7739 37.1574 12.7074 37.2148 12.6331 37.2148Z" fill="black"/>
<path opacity="0.5" d="M13.6565 37.0893H13.6096C13.5313 37.0893 13.4688 37.0318 13.4688 36.9601V35.3166C13.4688 35.2448 13.5313 35.1874 13.6096 35.1874H13.6565C13.7348 35.1874 13.7974 35.2448 13.7974 35.3166V36.9601C13.7974 37.0318 13.7309 37.0893 13.6565 37.0893Z" fill="black"/>
<path opacity="0.5" d="M14.7972 36.8668H14.7502C14.672 36.8668 14.6094 36.8094 14.6094 36.7376V35.0941C14.6094 35.0224 14.672 34.9649 14.7502 34.9649H14.7972C14.8754 34.9649 14.938 35.0224 14.938 35.0941V36.7376C14.938 36.8094 14.8754 36.8668 14.7972 36.8668Z" fill="black"/>
<path opacity="0.5" d="M15.805 36.49H15.758C15.6798 36.49 15.6172 36.4326 15.6172 36.3608V34.7174C15.6172 34.6456 15.6798 34.5882 15.758 34.5882H15.805C15.8832 34.5882 15.9458 34.6456 15.9458 34.7174V36.3608C15.9458 36.4326 15.8832 36.49 15.805 36.49Z" fill="black"/>
<path opacity="0.5" d="M16.805 36.0163H16.758C16.6798 36.0163 16.6172 35.9589 16.6172 35.8872V34.2437C16.6172 34.1719 16.6798 34.1145 16.758 34.1145H16.805C16.8832 34.1145 16.9458 34.1719 16.9458 34.2437V35.8872C16.9458 35.9589 16.8832 36.0163 16.805 36.0163Z" fill="black"/>
<path opacity="0.5" d="M11.5081 37.0893H11.4611C11.3829 37.0893 11.3203 37.0318 11.3203 36.9601V35.3166C11.3203 35.2448 11.3829 35.1874 11.4611 35.1874H11.5081C11.5863 35.1874 11.6489 35.2448 11.6489 35.3166V36.9601C11.6489 37.0318 11.5863 37.0893 11.5081 37.0893Z" fill="black"/>
<path opacity="0.5" d="M10.3831 36.8883H10.3361C10.2579 36.8883 10.1953 36.8309 10.1953 36.7591V35.1157C10.1953 35.0439 10.2579 34.9865 10.3361 34.9865H10.3831C10.4613 34.9865 10.5239 35.0439 10.5239 35.1157V36.7591C10.5239 36.8309 10.4613 36.8883 10.3831 36.8883Z" fill="black"/>
<path opacity="0.5" d="M9.39871 36.5654H9.35177C9.27353 36.5654 9.21094 36.5079 9.21094 36.4362V34.7927C9.21094 34.7209 9.27353 34.6635 9.35177 34.6635H9.39871C9.47695 34.6635 9.53954 34.7209 9.53954 34.7927V36.4362C9.53954 36.5044 9.47695 36.5654 9.39871 36.5654Z" fill="black"/>
<path opacity="0.5" d="M8.40652 36.0163H8.35958C8.28134 36.0163 8.21875 35.9589 8.21875 35.8872V34.2437C8.21875 34.1719 8.28134 34.1145 8.35958 34.1145H8.40652C8.48476 34.1145 8.54735 34.1719 8.54735 34.2437V35.8872C8.54344 35.9589 8.48085 36.0163 8.40652 36.0163Z" fill="black"/>
<path opacity="0.5" d="M20.3182 59.4806C20.3182 61.2568 17.0478 62.6994 13.0146 62.6994C8.98133 62.6994 5.71094 61.2568 5.71094 59.4806C5.71094 57.7044 8.98133 56.2618 13.0146 56.2618C17.0478 56.2618 20.3182 57.7008 20.3182 59.4806Z" fill="black"/>
<path opacity="0.5" d="M17.4938 32.7473L17.3726 36.0092C17.3687 36.106 17.3295 36.1993 17.2552 36.2747C16.8171 36.7448 16.0269 37.4337 13.8088 37.6132C13.7149 37.0605 14.1961 36.5438 14.5677 36.0738C15.3305 35.1049 15.7061 33.8813 15.6239 32.6863L17.4938 32.7473Z" fill="black"/>
<path d="M17.4907 32.5069C17.4907 33.8203 15.3235 34.886 12.6516 34.886C9.97972 34.886 7.8125 33.8203 7.8125 32.5069C7.8125 31.1936 9.97972 30.1278 12.6516 30.1278C15.3274 30.1278 17.4907 31.1936 17.4907 32.5069Z" fill="white"/>
<path d="M15.2419 32.5285C15.2419 33.2318 14.0879 33.7987 12.66 33.7987C11.2361 33.7987 10.0781 33.2282 10.0781 32.5285C10.0781 31.8287 11.2322 31.2582 12.66 31.2582C14.084 31.2582 15.2419 31.8287 15.2419 32.5285Z" fill="#E6E6EE"/>
<path opacity="0.5" d="M14.0196 32.5285C14.0196 32.9411 13.4093 33.2712 12.6582 33.2712C11.9071 33.2712 11.2969 32.9375 11.2969 32.5285C11.2969 32.1158 11.9071 31.7857 12.6582 31.7857C13.4132 31.7821 14.0196 32.1158 14.0196 32.5285Z" fill="black"/>
<path opacity="0.5" d="M156.676 108.218C156.676 111.131 151.312 113.496 144.697 113.496C138.082 113.496 132.719 111.135 132.719 108.218C132.719 105.304 138.082 102.939 144.697 102.939C151.312 102.939 156.676 105.304 156.676 108.218Z" fill="black"/>
<path d="M153.906 94.485V106.19C153.921 107.407 153.378 108.544 152.329 109.502C150.671 111.038 147.838 111.946 144.767 111.946H144.74C142.51 111.946 140.374 111.472 138.727 110.59C136.72 109.527 135.547 107.927 135.547 106.187V94.4814C135.547 93.3798 136.509 92.4971 137.71 92.4971H151.742C152.943 92.5007 153.906 93.3834 153.906 94.485Z" fill="#F59701"/>
<path opacity="0.5" d="M150.697 107.683C150.697 109.158 147.982 110.356 144.63 110.356C141.277 110.356 138.562 109.161 138.562 107.683C138.562 106.208 141.277 105.01 144.63 105.01C147.982 105.01 150.697 106.208 150.697 107.683Z" fill="black"/>
<path d="M144.761 100.969H144.745C142.507 100.969 140.372 100.492 138.728 99.6164C138.236 99.3544 137.794 99.0602 137.406 98.7408V106.24C137.794 106.563 138.236 106.858 138.728 107.116C140.375 107.988 142.507 108.469 144.745 108.469H144.761C147.679 108.469 150.363 107.64 152.045 106.248V98.748C150.359 100.14 147.679 100.969 144.761 100.969Z" fill="white"/>
<g opacity="0.5">
<path d="M153.902 94.485V96.0208C152.243 97.8114 148.769 99.0386 144.752 99.053C141.919 99.053 139.353 98.4394 137.499 97.4526C136.705 97.0292 136.048 96.5447 135.547 96.0065V94.485C135.547 93.3834 136.509 92.5007 137.71 92.5007H151.742C152.939 92.5007 153.902 93.3834 153.902 94.485Z" fill="black"/>
</g>
<path d="M134.461 89.8453V93.0963C134.477 94.5998 135.635 95.9634 137.497 96.9502C139.359 97.937 141.925 98.547 144.757 98.547C150.422 98.5435 154.991 96.1034 154.983 93.0963V89.8453H134.461Z" fill="#E6E6EE"/>
<path d="M151.959 85.995C153.821 86.9818 154.979 88.3418 154.991 89.8489C154.999 92.8595 150.43 95.2924 144.765 95.2996C141.933 95.296 139.367 94.686 137.504 93.6992C135.642 92.7124 134.484 91.3524 134.469 89.8489C134.461 86.8382 139.034 84.4017 144.699 84.3946C147.527 84.3981 150.093 85.0082 151.959 85.995Z" fill="white"/>
<path d="M150.077 86.8275C151.431 87.5451 152.272 88.5319 152.283 89.6264C152.287 91.8117 148.97 93.5808 144.855 93.5879C142.797 93.5843 140.931 93.143 139.581 92.4253C138.228 91.7076 137.391 90.7208 137.375 89.6264C137.371 87.4375 140.688 85.672 144.804 85.6648C146.861 85.6684 148.728 86.1134 150.077 86.8275Z" fill="#E6E6EE"/>
<path opacity="0.5" d="M80.9334 111.716L86.6175 114.738L119.959 96.2361L94.8091 82.8659L78.3828 100.011L80.9334 111.716Z" fill="black"/>
<path d="M32.4336 58.2462L32.4219 88.9159L81.6539 114.953L81.7282 84.312L32.4336 58.2462Z" fill="#D3E0F2"/>
<path d="M101.846 73.5326L81.7306 84.312L81.6562 114.953L101.846 104.177V73.5326Z" fill="#BCD4F0"/>
<path opacity="0.3" d="M83.491 85.2091L101.846 75.377V73.5326L81.7267 84.312L81.6562 114.953L83.4205 114.013L83.491 85.2091Z" fill="black"/>
<path d="M52.5567 47.4704L32.4375 58.2462L81.7321 84.312L101.847 73.5326L52.5567 47.4704Z" fill="#DBDBDB"/>
<path d="M60.3471 89.1563C60.484 85.6254 57.8787 81.1543 54.5222 79.1663C52.9809 78.2513 51.5491 78.0252 50.4381 78.3877L50.4264 78.3912C50.2777 78.4415 50.133 78.5025 49.9961 78.5707L48.2826 79.4139L48.7716 79.7584C48.4352 80.3397 48.2318 81.0789 48.2005 81.9581C48.0636 85.489 50.6689 89.9601 54.0254 91.9481C54.7139 92.3535 55.375 92.6227 56.0009 92.7662L56.9163 93.3367C56.9163 93.3367 58.3637 92.6298 58.4576 92.5868L58.4889 92.5724V92.5688C59.5764 92.0449 60.2806 90.8715 60.3471 89.1563Z" fill="#3979E2"/>
<path d="M58.5698 90.0319C58.4328 93.5628 55.6006 94.8116 52.2441 92.8272C48.8877 90.8393 46.2823 86.3682 46.4192 82.8372C46.5561 79.3063 49.3884 78.0575 52.7449 80.0419C56.1013 82.0298 58.7067 86.5009 58.5698 90.0319Z" fill="#4385FF"/>
<path d="M52.3833 90.3871L50.9085 89.7269C50.7637 89.6623 50.6816 89.5331 50.6972 89.386L51.3309 82.2057C51.3583 81.8899 51.7847 81.671 52.0938 81.8109L53.5686 82.4712C53.7133 82.5358 53.7955 82.665 53.7798 82.8121L53.1461 89.9924C53.1187 90.3082 52.6962 90.5271 52.3833 90.3871Z" fill="#FCFEFF"/>
<path d="M48.1808 85.3132L48.3138 83.7989C48.3412 83.4831 48.7676 83.2642 49.0767 83.4042L56.0908 86.544C56.2356 86.6086 56.3177 86.7378 56.3021 86.8849L56.1691 88.3992C56.1417 88.7149 55.7153 88.9338 55.4062 88.7939L48.3921 85.6541C48.2473 85.5931 48.1691 85.4603 48.1808 85.3132Z" fill="#FCFEFF"/>
<path d="M59.6585 72.6104L56.04 70.6942C55.7505 70.5399 55.7583 70.2887 56.0595 70.1452L61.1686 67.6585C61.4502 67.5221 61.8923 67.5257 62.1661 67.6728L65.4209 69.3952C65.6947 69.5423 65.7064 69.7756 65.4404 69.9263L60.6952 72.6032C60.4135 72.7611 59.948 72.7647 59.6585 72.6104Z" fill="#8AACCE"/>
<path d="M59.6585 72.1619L56.04 70.2457C55.7505 70.0914 55.7583 69.8402 56.0595 69.6966L61.1686 67.2099C61.4502 67.0736 61.8923 67.0771 62.1661 67.2243L65.4209 68.9467C65.6947 69.0938 65.7064 69.327 65.4404 69.4778L60.6952 72.1547C60.4135 72.3126 59.948 72.3126 59.6585 72.1619Z" fill="#6380AA"/>
<path d="M70.8134 59.8861L70.7078 59.9112H70.7117L52.7128 50.0038L52.5446 49.8925C52.4076 49.8172 52.3333 49.8602 52.1338 50.0109L51.4531 50.5097L53.37 64.8595C53.3778 65.0246 53.456 65.2256 53.6047 65.3081C53.6047 65.3081 71.8031 73.7946 71.7953 73.6295L71.1185 60.2916V60.2557C71.1107 60.0978 70.9503 59.9614 70.8134 59.8861Z" fill="white"/>
<path d="M63.8438 65.387C65.9914 63.3632 68.5146 70.6619 70.142 73.974C70.7327 75.1797 71.3312 74.8029 71.6129 74.5051C71.7224 74.3902 71.7772 74.2359 71.7694 74.0744L71.0417 60.3705L71.0378 60.3059C71.0339 60.2234 70.9752 60.105 70.9283 60.0224L63.8438 65.387Z" fill="url(#paint0_linear_186_1237)"/>
<path d="M70.7433 74.7921L52.5567 64.899C52.408 64.8165 52.275 64.6263 52.2672 64.472L51.4691 50.7501C51.4613 50.5958 51.5748 50.5384 51.7273 50.621L69.914 60.514C70.0627 60.5966 70.1957 60.7868 70.2035 60.9411L71.0015 74.6629C71.0094 74.8137 70.892 74.8711 70.7433 74.7921Z" fill="#A8C4E5"/>
<path d="M70.6418 72.9011L52.3768 62.9039C52.2399 62.8285 52.1187 62.6491 52.1108 62.5056L51.391 50.6138C51.3832 50.4702 51.4888 50.4128 51.6258 50.4882L69.8907 60.4853C70.0276 60.5607 70.1489 60.7401 70.1567 60.8836L70.8765 72.7755C70.8843 72.919 70.7787 72.9764 70.6418 72.9011Z" fill="#A8C4E5"/>
<path d="M59.5481 72.6176L56.129 70.8019C55.8004 70.626 55.6244 70.2851 55.683 69.9407L56.305 66.3846C56.4185 65.7459 57.1813 65.3942 57.8072 65.6992L60.9916 67.2566C61.4062 67.4611 61.6292 67.8881 61.5432 68.3115L60.7529 72.108C60.6512 72.614 60.0331 72.8723 59.5481 72.6176Z" fill="#B7D4F7"/>
<path d="M60.225 69.6177L56.6847 67.7338C56.3443 67.5544 56.1605 67.1992 56.2231 66.8403L56.8646 63.1551C56.982 62.4912 57.7722 62.1288 58.4216 62.4446L61.7233 64.0593C62.1536 64.2711 62.3844 64.7124 62.2944 65.1538L61.4768 69.0866C61.3673 69.6141 60.7257 69.8832 60.225 69.6177Z" fill="#B7D4F7"/>
<path d="M85.6338 80.0993C85.6338 80.1567 85.6259 80.2141 85.6103 80.268C85.489 80.6555 84.8905 82.1195 82.6724 82.1841C80.4856 82.2487 79.8402 80.9749 79.6993 80.6053C79.6759 80.5478 79.668 80.4868 79.6641 80.4222C79.6563 79.8732 79.625 76.7514 79.625 75.3268C79.625 74.0888 80.4856 73.529 80.8494 73.346C80.9472 73.2958 81.0059 73.2778 81.0059 73.2778L84.2137 73.3173C84.2215 73.3209 84.2294 73.3209 84.2411 73.3245C85.3951 73.669 85.5555 74.8818 85.5555 74.8818L85.6338 80.0993Z" fill="#F59701"/>
<path opacity="0.5" d="M84.2432 73.3855C84.2432 73.8017 83.4804 74.139 82.5415 74.139C81.6027 74.139 80.8438 73.8017 80.8438 73.3855C80.8438 73.3747 80.8438 73.364 80.8438 73.3532C80.9415 73.3029 81.0002 73.285 81.0002 73.285L84.208 73.3245C84.2159 73.3281 84.2237 73.3281 84.2354 73.3317C84.2432 73.346 84.2432 73.3675 84.2432 73.3855Z" fill="black"/>
<path d="M84.2471 73.2742C84.2471 73.6905 83.4882 74.0278 82.5494 74.0278C81.6105 74.0278 80.8516 73.6905 80.8516 73.2742C80.8516 72.858 81.6105 72.5207 82.5494 72.5207C83.4882 72.5207 84.2471 72.858 84.2471 73.2742Z" fill="white"/>
<path d="M84.0787 72.2121L84.0396 73.2455C84.0396 73.2778 84.0239 73.3065 84.0044 73.3281C83.8635 73.4752 83.6171 73.6941 82.9129 73.7515C82.7995 73.7623 82.6782 73.7659 82.5413 73.7659C81.6337 73.7659 81.1956 73.3855 81.0743 73.2599C81.0508 73.2348 81.0391 73.2061 81.0391 73.1738L81.0156 72.2085L81.1173 72.1152L83.488 72.1906L84.0787 72.2121Z" fill="#E6E6EE"/>
<path opacity="0.5" d="M82.5352 73.6259H82.5196C82.4961 73.6259 82.4766 73.608 82.4766 73.5864V73.0661C82.4766 73.0446 82.4961 73.0266 82.5196 73.0266H82.5352C82.5587 73.0266 82.5783 73.0446 82.5783 73.0661V73.5864C82.5783 73.608 82.5587 73.6259 82.5352 73.6259Z" fill="black"/>
<path opacity="0.5" d="M82.8634 73.5864H82.8477C82.8242 73.5864 82.8047 73.5685 82.8047 73.547V73.0266C82.8047 73.0051 82.8242 72.9872 82.8477 72.9872H82.8634C82.8868 72.9872 82.9064 73.0051 82.9064 73.0266V73.547C82.9064 73.5685 82.8868 73.5864 82.8634 73.5864Z" fill="black"/>
<path opacity="0.5" d="M83.2227 73.5183H83.2071C83.1836 73.5183 83.1641 73.5003 83.1641 73.4788V72.9585C83.1641 72.9369 83.1836 72.919 83.2071 72.919H83.2227C83.2462 72.919 83.2658 72.9369 83.2658 72.9585V73.4788C83.2697 73.5003 83.2501 73.5183 83.2227 73.5183Z" fill="black"/>
<path opacity="0.5" d="M83.5431 73.3962H83.5274C83.5039 73.3962 83.4844 73.3783 83.4844 73.3568V72.8365C83.4844 72.8149 83.5039 72.797 83.5274 72.797H83.5431C83.5665 72.797 83.5861 72.8149 83.5861 72.8365V73.3568C83.5861 73.3783 83.5665 73.3962 83.5431 73.3962Z" fill="black"/>
<path opacity="0.5" d="M83.8556 73.2491H83.8399C83.8164 73.2491 83.7969 73.2312 83.7969 73.2097V72.6893C83.7969 72.6678 83.8164 72.6499 83.8399 72.6499H83.8556C83.879 72.6499 83.8986 72.6678 83.8986 72.6893V73.2097C83.8986 73.2312 83.879 73.2491 83.8556 73.2491Z" fill="black"/>
<path opacity="0.5" d="M82.1837 73.5864H82.168C82.1446 73.5864 82.125 73.5685 82.125 73.547V73.0266C82.125 73.0051 82.1446 72.9872 82.168 72.9872H82.1837C82.2071 72.9872 82.2267 73.0051 82.2267 73.0266V73.547C82.2267 73.5685 82.2071 73.5864 82.1837 73.5864Z" fill="black"/>
<path opacity="0.5" d="M81.8243 73.5254H81.8087C81.7852 73.5254 81.7656 73.5075 81.7656 73.486V72.9656C81.7656 72.9441 81.7852 72.9262 81.8087 72.9262H81.8243C81.8478 72.9262 81.8673 72.9441 81.8673 72.9656V73.486C81.8673 73.5039 81.8478 73.5254 81.8243 73.5254Z" fill="black"/>
<path opacity="0.5" d="M81.5118 73.4214H81.4962C81.4727 73.4214 81.4531 73.4034 81.4531 73.3819V72.8616C81.4531 72.8401 81.4727 72.8221 81.4962 72.8221H81.5118C81.5353 72.8221 81.5548 72.8401 81.5548 72.8616V73.3819C81.5588 73.4034 81.5392 73.4214 81.5118 73.4214Z" fill="black"/>
<path opacity="0.5" d="M81.1993 73.2491H81.1837C81.1602 73.2491 81.1406 73.2312 81.1406 73.2097V72.6893C81.1406 72.6678 81.1602 72.6499 81.1837 72.6499H81.1993C81.2228 72.6499 81.2423 72.6678 81.2423 72.6893V73.2097C81.2423 73.2312 81.2228 73.2491 81.1993 73.2491Z" fill="black"/>
<path opacity="0.5" d="M84.9755 80.6806C84.9755 81.244 83.9388 81.6997 82.6596 81.6997C81.3804 81.6997 80.3438 81.244 80.3438 80.6806C80.3438 80.1172 81.3804 79.6615 82.6596 79.6615C83.9388 79.6615 84.9755 80.1172 84.9755 80.6806Z" fill="black"/>
<path opacity="0.5" d="M84.0831 72.2121L84.044 73.2455C84.044 73.2778 84.0284 73.3065 84.0088 73.3281C83.868 73.4752 83.6215 73.6941 82.9174 73.7515C82.89 73.5757 83.0386 73.4142 83.156 73.2635C83.3985 72.9549 83.5159 72.5673 83.4885 72.1906L84.0831 72.2121Z" fill="black"/>
<path d="M84.0826 72.1367C84.0826 72.553 83.398 72.8903 82.5491 72.8903C81.7041 72.8903 81.0156 72.553 81.0156 72.1367C81.0156 71.7205 81.7002 71.3832 82.5491 71.3832C83.3941 71.3796 84.0826 71.7205 84.0826 72.1367Z" fill="white"/>
<path d="M83.3618 72.1439C83.3618 72.3664 82.994 72.5458 82.5442 72.5458C82.0943 72.5458 81.7266 72.3664 81.7266 72.1439C81.7266 71.9214 82.0943 71.742 82.5442 71.742C82.994 71.742 83.3618 71.9214 83.3618 72.1439Z" fill="#E6E6EE"/>
<path opacity="0.5" d="M82.5475 72.3772C82.7852 72.3772 82.9778 72.2711 82.9778 72.1403C82.9778 72.0095 82.7852 71.9035 82.5475 71.9035C82.3098 71.9035 82.1172 72.0095 82.1172 72.1403C82.1172 72.2711 82.3098 72.3772 82.5475 72.3772Z" fill="black"/>
<path d="M97.9095 70.644V73.7623C97.9134 74.0852 97.7686 74.3902 97.4909 74.645C97.0488 75.0541 96.2938 75.2945 95.4762 75.2945H95.4684C94.8738 75.2945 94.3066 75.1689 93.8684 74.9321C93.3325 74.6486 93.0234 74.2252 93.0234 73.7587V70.6404C93.0234 70.3461 93.2816 70.1129 93.5985 70.1129H97.3344C97.6552 70.1165 97.9095 70.3497 97.9095 70.644Z" fill="#F59701"/>
<path opacity="0.5" d="M97.0594 74.157C97.0594 74.5517 96.3357 74.8675 95.4438 74.8675C94.5518 74.8675 93.8281 74.5481 93.8281 74.157C93.8281 73.7623 94.5518 73.4465 95.4438 73.4465C96.3357 73.4465 97.0594 73.7659 97.0594 74.157Z" fill="black"/>
<path d="M95.4755 72.37H95.4716C94.877 72.37 94.3058 72.2408 93.8677 72.0111C93.7347 71.9394 93.6173 71.864 93.5156 71.7779V73.7766C93.6173 73.8627 93.7347 73.9417 93.8677 74.0099C94.3058 74.2431 94.8731 74.3687 95.4716 74.3687H95.4755C96.254 74.3687 96.966 74.1498 97.4158 73.7766V71.7779C96.966 72.1511 96.254 72.37 95.4755 72.37Z" fill="white"/>
<g opacity="0.5">
<path d="M97.9134 70.644V71.053C97.4713 71.5303 96.5481 71.8568 95.4762 71.8604C94.7212 71.8604 94.0405 71.6954 93.5437 71.4334C93.3325 71.3222 93.1564 71.193 93.0234 71.0495V70.644C93.0234 70.3497 93.2816 70.1165 93.5985 70.1165H97.3344C97.6591 70.1165 97.9134 70.3497 97.9134 70.644Z" fill="black"/>
</g>
<path d="M92.7344 69.4096V70.2744C92.7383 70.6763 93.0473 71.0387 93.5442 71.3006C94.041 71.5626 94.7216 71.7277 95.4767 71.7277C96.9828 71.7277 98.2033 71.0782 98.1994 70.278V69.4132H92.7344V69.4096Z" fill="#E6E6EE"/>
<path d="M97.3935 68.3833C97.8903 68.6453 98.1955 69.0077 98.1994 69.4096C98.2033 70.2098 96.9828 70.8593 95.4767 70.8629C94.7216 70.8629 94.0371 70.6978 93.5442 70.4359C93.0473 70.1739 92.7422 69.8115 92.7344 69.4096C92.7344 68.6094 93.951 67.9599 95.4571 67.9563C96.2121 67.9599 96.8967 68.1214 97.3935 68.3833Z" fill="white"/>
<path d="M96.8917 68.6058C97.2516 68.796 97.4745 69.0615 97.4785 69.3522C97.4785 69.9335 96.5944 70.4036 95.499 70.4071C94.9513 70.4071 94.4545 70.2887 94.0946 70.0986C93.7347 69.9084 93.5117 69.6464 93.5078 69.3522C93.5078 68.7709 94.3919 68.2972 95.4873 68.2972C96.0349 68.2972 96.5318 68.4156 96.8917 68.6058Z" fill="#E6E6EE"/>
<path d="M91.5267 73.8914V77.0097C91.5306 77.3327 91.3858 77.6377 91.1081 77.8925C90.666 78.3015 89.911 78.542 89.0934 78.542H89.0856C88.491 78.542 87.9237 78.4164 87.4856 78.1795C86.9497 77.896 86.6406 77.4726 86.6406 77.0061V73.8879C86.6406 73.5936 86.8949 73.3604 87.2157 73.3604H90.9516C91.2724 73.364 91.5267 73.5972 91.5267 73.8914Z" fill="#F59701"/>
<path opacity="0.5" d="M90.6766 77.4044C90.6766 77.7992 89.9529 78.1149 89.061 78.1149C88.169 78.1149 87.4453 77.7956 87.4453 77.4044C87.4453 77.0097 88.169 76.6939 89.061 76.6939C89.9529 76.6939 90.6766 77.0133 90.6766 77.4044Z" fill="black"/>
<path d="M89.0927 75.6174H89.0888C88.4942 75.6174 87.923 75.4883 87.4849 75.2586C87.3519 75.1868 87.2345 75.1115 87.1328 75.0254V77.0241C87.2345 77.1102 87.3519 77.1891 87.4849 77.2573C87.923 77.4906 88.4903 77.6162 89.0888 77.6162H89.0927C89.8712 77.6162 90.5832 77.3973 91.033 77.0241V75.0254C90.5832 75.3986 89.8712 75.6174 89.0927 75.6174Z" fill="white"/>
<g opacity="0.5">
<path d="M91.5306 73.8914V74.3005C91.0885 74.7778 90.1653 75.1043 89.0934 75.1079C88.3384 75.1079 87.6577 74.9428 87.1609 74.6809C86.9497 74.5696 86.7736 74.4405 86.6406 74.2969V73.8914C86.6406 73.5972 86.8949 73.364 87.2157 73.364H90.9516C91.2763 73.364 91.5306 73.5972 91.5306 73.8914Z" fill="black"/>
</g>
<path d="M86.3516 72.657V73.5218C86.3555 73.9237 86.6645 74.2862 87.1613 74.5481C87.6582 74.8101 88.3388 74.9751 89.0938 74.9751C90.5999 74.9751 91.8205 74.3256 91.8166 73.5254V72.6606H86.3516V72.657Z" fill="#E6E6EE"/>
<path d="M91.0107 71.6308C91.5075 71.8927 91.8127 72.2551 91.8166 72.657C91.8205 73.4572 90.5999 74.1067 89.0938 74.1103C88.3388 74.1103 87.6542 73.9453 87.1613 73.6833C86.6645 73.4214 86.3594 73.0589 86.3516 72.657C86.3516 71.8568 87.5682 71.2073 89.0743 71.2038C89.8293 71.2073 90.5139 71.3688 91.0107 71.6308Z" fill="white"/>
<path d="M90.5088 71.8533C90.8687 72.0434 91.0917 72.309 91.0956 72.5996C91.0956 73.1809 90.2115 73.651 89.1162 73.6546C88.5685 73.6546 88.0717 73.5362 87.7118 73.346C87.3519 73.1558 87.1289 72.8939 87.125 72.5996C87.125 72.0183 88.0091 71.5447 89.1044 71.5447C89.6521 71.5447 90.1489 71.6631 90.5088 71.8533Z" fill="#E6E6EE"/>
<path opacity="0.5" d="M49.2114 50.7107C49.4422 51.0731 49.3053 51.536 48.9102 51.7477L44.0437 54.3385C43.7621 54.4892 43.4217 54.4641 43.1714 54.3098L41.587 55.1495C41.4149 55.2428 41.1958 55.1889 41.0941 55.031C40.9963 54.8732 41.055 54.6722 41.2271 54.5789L42.8115 53.7356C42.788 53.4557 42.9367 53.1759 43.2183 53.0251L48.0848 50.4344C48.4799 50.2226 48.9845 50.3446 49.2114 50.7107Z" fill="white"/>
<path d="M41.467 54.9593C41.4083 54.9916 41.334 54.9736 41.2988 54.9198C41.2636 54.866 41.2831 54.7978 41.3418 54.7655L48.3481 51.0408C48.4068 51.0121 48.4811 51.03 48.5163 51.0838C48.5516 51.1377 48.532 51.2058 48.4733 51.2381L41.467 54.9593Z" fill="#D43726"/>
<path d="M44.125 54.2918L44.3558 54.1698C44.4067 54.1447 44.4458 54.0945 44.4653 54.0227C44.4849 53.9581 44.4888 53.8828 44.4771 53.8002C44.4693 53.7141 44.4458 53.6244 44.4067 53.5347L44.1759 53.6567C44.215 53.75 44.2384 53.8397 44.2463 53.9222C44.258 54.0048 44.2541 54.0765 44.2345 54.1447C44.215 54.2165 44.1798 54.2631 44.125 54.2918Z" fill="#A8C4E5"/>
<path d="M45.3203 53.6567L45.5511 53.5347C45.6059 53.506 45.6411 53.4593 45.6607 53.3876C45.6802 53.323 45.6841 53.2476 45.6724 53.1651C45.6646 53.079 45.6372 52.9929 45.602 52.8996L45.3751 53.0216C45.4142 53.1149 45.4377 53.2046 45.4455 53.2871C45.4572 53.3696 45.4533 53.4414 45.4338 53.5096C45.4103 53.5813 45.3712 53.628 45.3203 53.6567Z" fill="#A8C4E5"/>
<path d="M44.7656 53.9509L44.9925 53.8325C45.0473 53.8038 45.0825 53.7572 45.1021 53.6854C45.1216 53.6172 45.1255 53.5419 45.1138 53.4629L44.883 53.5849C44.8947 53.6639 44.8908 53.7392 44.8752 53.8038C44.8517 53.8756 44.8126 53.9258 44.7656 53.9509Z" fill="#A8C4E5"/>
<path d="M45.9531 53.3194L46.1839 53.1974C46.2348 53.1723 46.27 53.122 46.2935 53.0503C46.3091 52.9857 46.313 52.9103 46.3013 52.8278L46.0744 52.9498C46.0822 53.0287 46.0822 53.1041 46.0666 53.1687C46.0431 53.2404 46.004 53.2907 45.9531 53.3194Z" fill="#A8C4E5"/>
<path d="M46.5234 53.0216L46.7503 52.9031C46.8051 52.8744 46.8403 52.8278 46.8599 52.756C46.8794 52.6878 46.8833 52.6161 46.8716 52.5335C46.8638 52.4474 46.8364 52.3577 46.8012 52.268L46.5743 52.3864C46.6134 52.4797 46.6369 52.5694 46.6447 52.652C46.6564 52.7345 46.6525 52.8063 46.633 52.8744C46.6134 52.9462 46.5704 52.9929 46.5234 53.0216Z" fill="#A8C4E5"/>
<path d="M47.1562 52.6843L47.3871 52.5622C47.4379 52.5371 47.477 52.4869 47.4966 52.4151C47.5122 52.3505 47.5162 52.2752 47.5044 52.1962L47.2736 52.3182C47.2814 52.3972 47.2814 52.4725 47.2658 52.5371C47.2462 52.6089 47.2071 52.6555 47.1562 52.6843Z" fill="#A8C4E5"/>
<path d="M47.7109 52.3864L47.9417 52.2644C47.9926 52.2393 48.0317 52.1891 48.0513 52.1173C48.0708 52.0491 48.0748 51.9773 48.063 51.8948C48.0552 51.8087 48.0317 51.7226 47.9926 51.6293L47.7657 51.7513C47.8048 51.8446 47.8283 51.9343 47.8361 52.0168C47.8479 52.0994 47.8439 52.1711 47.8244 52.2393C47.8009 52.3111 47.7618 52.3613 47.7109 52.3864Z" fill="#A8C4E5"/>
<path d="M48.3438 52.0491L48.5746 51.9271C48.6254 51.902 48.6645 51.8518 48.6841 51.78C48.6997 51.7154 48.7036 51.64 48.6919 51.5611L48.465 51.6795C48.4728 51.7585 48.4689 51.8338 48.4494 51.902C48.4376 51.9738 48.3985 52.0204 48.3438 52.0491Z" fill="#A8C4E5"/>
<path d="M46.0363 56.5525C45.962 56.5166 45.919 56.4987 45.919 56.4987L44.7688 56.513L43.6187 56.4987C43.6187 56.4987 43.5718 56.513 43.5014 56.5525C43.2275 56.6889 42.5703 57.1159 42.5703 58.056C42.5703 59.1361 42.5938 61.5116 42.6016 61.9243C42.6016 61.9709 42.6094 62.0176 42.629 62.0606C42.7346 62.3333 43.2001 63.2591 44.7688 63.2591H44.7727H44.7767C46.3414 63.2591 46.8109 62.3333 46.9165 62.0606C46.9321 62.0176 46.94 61.9709 46.9439 61.9243C46.9478 61.508 46.9752 59.1361 46.9752 58.056C46.9674 57.1159 46.3141 56.6889 46.0363 56.5525Z" fill="#598FD7"/>
<path d="M42.75 59.2079V61.648C42.75 61.648 42.8869 62.9326 44.7999 62.9326C46.7167 62.9326 46.7832 61.7126 46.7832 61.7126V59.3191C46.7832 59.3191 46.392 58.5512 44.8312 58.5512C43.2703 58.5512 42.75 59.2079 42.75 59.2079Z" fill="#6EAAEA"/>
<path opacity="0.5" d="M46.5208 61.9171C46.5208 62.3441 45.7344 62.6922 44.7643 62.6922C43.7941 62.6922 43.0078 62.3441 43.0078 61.9171C43.0078 61.4901 43.7941 61.142 44.7643 61.142C45.7344 61.142 46.5208 61.4901 46.5208 61.9171Z" fill="black"/>
<path d="M45.1417 56.9077V60.7365C45.1417 60.8693 45.0596 60.9805 44.9422 61.0415V61.2927C44.9422 61.3824 44.864 61.4578 44.7623 61.4578C44.6606 61.4578 44.5823 61.386 44.5823 61.2927V61.0415C44.465 60.9841 44.3828 60.8693 44.3828 60.7365V56.9077H45.1417Z" fill="#485BA8"/>
<path opacity="0.5" d="M46.035 56.5776C46.035 56.8934 45.456 57.1518 44.7441 57.1518C44.0321 57.1518 43.4531 56.897 43.4531 56.5776C43.4531 56.5704 43.4531 56.5597 43.4531 56.5525C43.5275 56.5166 43.5705 56.4987 43.5705 56.4987L46.0076 56.5274C46.0155 56.531 46.0194 56.531 46.0272 56.5346C46.035 56.5489 46.035 56.5633 46.035 56.5776Z" fill="black"/>
<path d="M46.035 56.4915C46.035 56.8073 45.456 57.0656 44.7441 57.0656C44.0321 57.0656 43.4531 56.8109 43.4531 56.4915C43.4531 56.1757 44.0321 55.9174 44.7441 55.9174C45.456 55.9209 46.035 56.1757 46.035 56.4915Z" fill="white"/>
<path d="M45.9136 55.6877L45.8862 56.4736C45.8862 56.4987 45.8744 56.5202 45.8588 56.5381C45.7532 56.6494 45.5615 56.818 45.0295 56.8611C44.9434 56.8683 44.8495 56.8719 44.7478 56.8719C44.0593 56.8719 43.7268 56.5848 43.6329 56.4879C43.6133 56.47 43.6055 56.4448 43.6055 56.4233L43.5859 55.6913L43.6642 55.6195L45.4676 55.6769L45.9136 55.6877Z" fill="#E6E6EE"/>
<path opacity="0.5" d="M44.7423 56.7606H44.7305C44.711 56.7606 44.6953 56.7463 44.6953 56.7283V56.3336C44.6953 56.3157 44.711 56.3013 44.7305 56.3013H44.7423C44.7618 56.3013 44.7775 56.3157 44.7775 56.3336V56.7283C44.7775 56.7463 44.7618 56.7606 44.7423 56.7606Z" fill="#598FD7"/>
<path opacity="0.5" d="M44.9923 56.7319H44.9805C44.961 56.7319 44.9453 56.7176 44.9453 56.6996V56.3049C44.9453 56.287 44.961 56.2726 44.9805 56.2726H44.9923C45.0118 56.2726 45.0275 56.287 45.0275 56.3049V56.6996C45.0236 56.7176 45.0118 56.7319 44.9923 56.7319Z" fill="#598FD7"/>
<path opacity="0.5" d="M45.2657 56.6781H45.254C45.2344 56.6781 45.2188 56.6637 45.2188 56.6458V56.2511C45.2188 56.2331 45.2344 56.2188 45.254 56.2188H45.2657C45.2853 56.2188 45.3009 56.2331 45.3009 56.2511V56.6458C45.3009 56.6637 45.2853 56.6781 45.2657 56.6781Z" fill="#598FD7"/>
<path opacity="0.5" d="M45.5079 56.5848H45.4961C45.4766 56.5848 45.4609 56.5704 45.4609 56.5525V56.1578C45.4609 56.1398 45.4766 56.1255 45.4961 56.1255H45.5079C45.5274 56.1255 45.5431 56.1398 45.5431 56.1578V56.5525C45.5431 56.574 45.5274 56.5848 45.5079 56.5848Z" fill="#598FD7"/>
<path opacity="0.5" d="M45.7423 56.4736H45.7305C45.711 56.4736 45.6953 56.4592 45.6953 56.4413V56.0465C45.6953 56.0286 45.711 56.0142 45.7305 56.0142H45.7423C45.7618 56.0142 45.7775 56.0286 45.7775 56.0465V56.4413C45.7775 56.4592 45.7618 56.4736 45.7423 56.4736Z" fill="#598FD7"/>
<path opacity="0.5" d="M44.4688 56.7319H44.4571C44.4375 56.7319 44.4219 56.7176 44.4219 56.6996V56.3049C44.4219 56.287 44.4375 56.2726 44.4571 56.2726H44.4688C44.4884 56.2726 44.504 56.287 44.504 56.3049V56.6996C44.504 56.7176 44.4884 56.7319 44.4688 56.7319Z" fill="#598FD7"/>
<path opacity="0.5" d="M44.2032 56.6817H44.1915C44.1719 56.6817 44.1562 56.6673 44.1562 56.6494V56.2547C44.1562 56.2367 44.1719 56.2224 44.1915 56.2224H44.2032C44.2228 56.2224 44.2384 56.2367 44.2384 56.2547V56.6494C44.2345 56.6673 44.2188 56.6817 44.2032 56.6817Z" fill="#598FD7"/>
<path opacity="0.5" d="M43.9688 56.6027H43.9571C43.9375 56.6027 43.9219 56.5884 43.9219 56.5704V56.1757C43.9219 56.1578 43.9375 56.1434 43.9571 56.1434H43.9688C43.9884 56.1434 44.004 56.1578 44.004 56.1757V56.5704C44.004 56.592 43.9884 56.6027 43.9688 56.6027Z" fill="#598FD7"/>
<path opacity="0.5" d="M43.7266 56.4736H43.7149C43.6953 56.4736 43.6797 56.4592 43.6797 56.4413V56.0465C43.6797 56.0286 43.6953 56.0142 43.7149 56.0142H43.7266C43.7462 56.0142 43.7618 56.0286 43.7618 56.0465V56.4413C43.7579 56.4592 43.7462 56.4736 43.7266 56.4736Z" fill="#598FD7"/>
<path opacity="0.5" d="M45.9106 55.6877L45.8832 56.4736C45.8832 56.4987 45.8715 56.5202 45.8558 56.5381C45.7502 56.6494 45.5585 56.818 45.0265 56.8611C45.003 56.7283 45.1204 56.6027 45.2103 56.4915C45.3942 56.2583 45.4842 55.964 45.4646 55.6769L45.9106 55.6877Z" fill="black"/>
<path d="M45.9097 55.659C45.9097 55.9748 45.3894 56.2331 44.7439 56.2331C44.1023 56.2331 43.5781 55.9784 43.5781 55.659C43.5781 55.3432 44.0984 55.0849 44.7439 55.0849C45.3894 55.0849 45.9097 55.3396 45.9097 55.659Z" fill="white"/>
<path d="M45.369 55.6626C45.369 55.8312 45.0913 55.9676 44.747 55.9676C44.4028 55.9676 44.125 55.8312 44.125 55.6626C44.125 55.4939 44.4028 55.3576 44.747 55.3576C45.0913 55.3576 45.369 55.4939 45.369 55.6626Z" fill="#E6E6EE"/>
<path opacity="0.5" d="M45.0713 55.6626C45.0713 55.7631 44.9265 55.842 44.7427 55.842C44.5627 55.842 44.4141 55.7631 44.4141 55.6626C44.4141 55.5621 44.5588 55.4832 44.7427 55.4832C44.9265 55.4832 45.0713 55.5621 45.0713 55.6626Z" fill="black"/>
<path d="M45.1301 55.7738C44.8719 55.8671 44.6137 55.8707 44.3633 55.7738C44.336 55.7631 44.3203 55.7415 44.3203 55.7128V54.6937C44.3203 54.5107 44.4807 54.3349 44.6763 54.317C44.7115 54.3134 44.7467 54.3134 44.778 54.3134C44.9971 54.3205 45.1692 54.4892 45.1692 54.6937V55.7128C45.1731 55.7415 45.1575 55.7631 45.1301 55.7738Z" fill="#D0D0D6"/>
<path d="M45.1417 59.5918V60.7365C45.1417 60.8693 45.0596 60.9805 44.9422 61.0415V61.2927C44.9422 61.3824 44.864 61.4578 44.7623 61.4578C44.6606 61.4578 44.5823 61.386 44.5823 61.2927V61.0415C44.465 60.9841 44.3828 60.8693 44.3828 60.7365V59.599C44.5667 59.6134 44.8131 59.6205 45.1417 59.5918Z" fill="#637BC6"/>
<path opacity="0.5" d="M47.6935 126.016C47.6935 130.426 39.5801 134 29.5694 134C19.5587 134 11.4453 130.426 11.4453 126.016C11.4453 121.606 19.5587 118.032 29.5694 118.032C39.5801 118.032 47.6935 121.606 47.6935 126.016Z" fill="black"/>
<path d="M17.9515 99.3724C18.3231 99.3652 18.1862 98.303 18.2293 97.7468C18.2723 97.1906 18.3544 97.0902 18.417 97.1548C18.4796 97.2193 18.6126 98.3784 18.6322 98.9023C18.6517 99.4262 18.6596 100.259 19.0547 100.237C19.4537 100.216 19.3755 99.3795 19.3715 98.669C19.3676 97.9585 19.1838 97.2947 19.3676 97.2732C19.5515 97.2516 19.9075 99.8424 19.9466 100.033C19.9857 100.223 20.0718 100.851 20.416 100.822C20.7603 100.793 20.7368 100.234 20.7173 99.9429C20.6977 99.6522 20.6116 98.8413 20.4904 98.1703C20.373 97.4992 20.33 97.2839 20.4434 97.2445C20.5569 97.205 21.0732 98.7121 21.2415 99.2683C21.4097 99.8209 21.7148 100.295 22.0512 100.094C22.3877 99.8963 21.9613 98.8664 21.7578 98.2671C21.5583 97.6679 21.2102 96.6309 21.175 96.1931C21.1398 95.7553 21.0146 95.3678 21.2649 95.3857C21.3236 95.3857 21.3666 95.3857 21.394 95.3857C21.5662 95.3785 21.9573 95.6154 22.1999 95.8307C22.4424 96.046 22.9236 96.1249 23.2248 96.089C23.526 96.0531 23.6864 95.8665 23.0527 95.5221C22.419 95.1812 21.707 94.4671 21.441 93.997C21.175 93.5269 21.0498 93.204 20.4356 93.0963C20.2322 93.0604 19.8957 88.9482 19.8723 88.3453C19.8488 87.7425 17.1456 88.209 17.2121 88.697C17.2786 89.185 18.3075 93.3547 18.0571 93.5772C17.8068 93.8032 17.709 94.0472 17.6112 94.9013C17.5642 95.3283 17.5329 96.1536 17.5173 96.839C17.5173 96.839 17.4821 98.1344 17.5251 98.6296C17.5877 99.1319 17.5799 99.3795 17.9515 99.3724Z" fill="#FFAA82"/>
<path d="M55.3206 76.8088C55.0546 76.5684 54.3192 77.4044 53.8576 77.7633C53.396 78.1221 53.259 78.1401 53.2669 78.0539C53.2747 77.9678 54.0845 77.0707 54.4796 76.6904C54.8747 76.31 55.5162 75.7251 55.2228 75.4811C54.9294 75.2371 54.3309 75.8686 53.7793 76.3674C53.2277 76.8662 52.8405 77.4511 52.6957 77.347C52.551 77.243 54.3192 75.1976 54.4404 75.0361C54.5617 74.8747 54.9881 74.383 54.7299 74.1749C54.4678 73.9704 54.0492 74.3759 53.8341 74.5912C53.6189 74.8065 53.0517 75.4308 52.6096 75.9799C52.1715 76.5289 52.0307 76.7047 51.9211 76.6581C51.8116 76.6078 52.6253 75.2191 52.9383 74.7204C53.2512 74.2216 53.4038 73.6941 53.0165 73.6115C52.6292 73.529 52.1246 74.5302 51.796 75.0792C51.4674 75.6318 50.904 76.5827 50.5872 76.9128C50.2703 77.2394 50.0551 77.5946 49.8948 77.4188C49.8556 77.3793 49.8243 77.3506 49.8009 77.3327C49.6757 77.225 49.5818 76.8016 49.5818 76.493C49.5818 76.1844 49.308 75.8112 49.0654 75.639C48.8268 75.4667 48.5686 75.4919 48.7446 76.1485C48.9207 76.8052 48.862 77.7705 48.682 78.2728C48.5021 78.7752 48.3378 79.0838 48.682 79.561C48.7955 79.7189 45.8263 82.8157 45.3725 83.2535C44.9187 83.6912 47.1759 85.1373 47.5085 84.7498C47.841 84.3659 50.372 80.7739 50.7202 80.7811C51.0683 80.7883 51.3304 80.6806 52.062 80.1459C52.4297 79.8768 53.0908 79.3206 53.6385 78.8506C53.6385 78.8506 54.6712 77.9678 55.0311 77.591C55.3911 77.2178 55.5866 77.0492 55.3206 76.8088Z" fill="#FFAA82"/>
<path d="M21.0758 67.7518C19.8709 69.3558 19.0924 71.2396 18.4039 73.0697C17.6958 74.95 17.1169 76.8734 16.6083 78.8075C16.3071 79.9558 16.0254 81.1076 15.779 82.2631C15.7007 82.6291 15.689 82.9879 15.8024 83.3468C15.9785 83.9101 16.1389 84.4807 16.2914 85.0512C17.0425 87.8573 17.5902 90.7065 17.8992 93.5054C17.9775 94.2051 18.5173 94.8869 19.3662 94.851C20.0939 94.8223 20.9154 94.2554 20.8332 93.5054C20.4225 89.7915 19.7496 86.0237 18.5682 82.4425C18.5682 82.6793 18.5682 82.9198 18.5682 83.1566C19.3154 79.4749 20.3403 75.761 21.8386 72.2731C21.9051 72.1224 21.9716 71.9753 22.0381 71.8246C22.1163 71.6415 21.9364 72.0327 22.0264 71.8533C22.0733 71.7564 22.1163 71.6595 22.1633 71.5662C22.3041 71.2719 22.4528 70.9813 22.6092 70.6942C22.9065 70.1488 23.2352 69.6141 23.6107 69.1118C24.0606 68.5125 23.732 67.619 23.0826 67.2709C22.355 66.8798 21.5256 67.1525 21.0758 67.7518Z" fill="#FFAA82"/>
<path d="M19.9383 68.6596C17.9941 71.7635 16.5897 77.0133 15.3105 81.2619C14.8254 82.4353 15.1305 83.4975 15.9403 83.4472L18.6435 83.7917C19.3124 83.7522 20.5799 82.4317 20.8889 81.4485L24.3158 70.644C24.8752 68.8857 24.4606 67.375 23.3652 67.1489L23.1148 67.1166C22.9271 66.4635 21.4014 66.4564 19.9383 68.6596Z" fill="#F95C43"/>
<path d="M28.0589 124.645C27.9689 124.717 26.6349 125.331 26.5527 125.399C26.4237 125.503 26.0403 125.783 25.8095 125.937C25.3244 126.26 24.2955 127.484 22.6173 126.622C20.1606 125.359 26.0207 121.771 26.0207 121.771L28.6144 120.533C28.9312 120.382 29.3107 120.382 29.6393 120.533C30.2456 120.813 30.4882 121.502 30.1596 122.026C29.5923 122.919 29.561 123.443 28.0589 124.645Z" fill="#D34839"/>
<path d="M27.7854 123.971C27.6954 124.042 26.3615 124.656 26.2793 124.724C26.1502 124.828 25.7668 125.108 25.536 125.262C25.051 125.585 24.0221 126.809 22.3439 125.948C19.8872 124.685 25.7473 121.096 25.7473 121.096L28.3409 119.858C28.6578 119.708 29.0372 119.708 29.3658 119.858C29.9722 120.138 30.2147 120.827 29.8861 121.351C29.3228 122.245 29.2915 122.768 27.7854 123.971Z" fill="#F95C43"/>
<path d="M37.206 129.777C37.1043 129.83 35.6647 130.186 35.5669 130.236C35.4182 130.311 34.9801 130.519 34.7219 130.627C34.1742 130.853 32.8989 131.865 31.4437 130.709C29.3117 129.023 35.8368 126.583 35.8368 126.583L38.6456 125.844C38.986 125.754 39.3615 125.822 39.651 126.03C40.1869 126.414 40.273 127.135 39.8348 127.588C39.0837 128.366 38.939 128.876 37.206 129.777Z" fill="#D34839"/>
<path d="M37.0798 129.066C36.9781 129.12 35.5385 129.475 35.4407 129.525C35.292 129.601 34.8539 129.809 34.5957 129.916C34.048 130.143 32.7727 131.154 31.3175 129.999C29.1894 128.312 35.7106 125.872 35.7106 125.872L38.5194 125.133C38.8597 125.043 39.2353 125.112 39.5248 125.32C40.0607 125.704 40.1468 126.425 39.7086 126.877C38.9614 127.656 38.8128 128.165 37.0798 129.066Z" fill="#F95C43"/>
<path d="M29.8132 97.9298C31.7653 103.176 31.9452 108.824 31.7614 114.318C31.6244 118.419 30.9164 122.557 31.0298 126.658C31.1041 129.346 35.6655 129.357 35.5912 126.658C35.4738 122.453 36.2053 118.208 36.3305 113.998C36.5026 108.264 36.2445 102.286 34.2102 96.8139C33.2675 94.2841 28.8626 95.3713 29.8132 97.9298Z" fill="#D3E0F2"/>
<path d="M20.6318 93.2147C21.6529 96.6057 22.1145 100.108 22.4822 103.599C22.7013 105.684 22.979 107.679 22.7404 109.757C22.2631 113.93 21.4103 118.186 21.4455 122.392C21.469 125.083 26.0303 125.09 26.0069 122.392C25.9717 118.129 26.844 113.819 27.3213 109.585C27.5638 107.45 27.2352 105.361 27.0044 103.226C26.6015 99.4944 26.1203 95.7266 25.0289 92.1024C24.2504 89.5116 19.8494 90.6132 20.6318 93.2147Z" fill="#D3E0F2"/>
<path d="M24.374 98.748C24.7964 99.1822 22.9852 97.0758 23.5251 97.3736C24.6517 97.998 30.9852 101.945 32.3035 101.967C33.8957 101.992 32.9685 100.578 34.1538 99.6056C35.2766 98.6798 35.5426 97.1763 35.6521 95.7948C35.6834 95.4144 35.703 95.0125 35.5387 94.6608C35.3587 94.2805 34.9871 94.0114 34.6272 93.7638C31.8145 91.8117 26.2791 86.9746 22.3476 88.5212C17.8058 90.3082 22.3554 96.6739 24.374 98.748Z" fill="#D3E0F2"/>
<path d="M21.0714 67.8271C20.2382 68.8139 20.336 69.4203 20.379 70.766C20.4181 72.0793 21.3883 73.2204 22.7692 73.5757L36.8718 77.2035C36.8718 77.2035 37.6816 72.2264 34.9002 70.7301C33.4019 69.9227 31.0782 68.6309 29.2513 67.6118C26.5677 66.1155 22.9961 65.5521 21.0714 67.8271Z" fill="#F95C43"/>
<path d="M27.5032 67.6621L28.6963 62.7855L31.9393 64.7878L30.9614 69.2266C30.8675 69.9478 27.2685 69.3163 27.5032 67.6621Z" fill="#FFAA82"/>
<path d="M29.4698 55.6734C29.4698 55.6734 26.219 53.5957 26.1877 58.6445C26.1642 62.1539 28.4918 65.1969 31.6292 66.5676C33.5852 67.4216 35.9754 66.3272 36.081 64.5797C36.5465 62.0283 36.5544 59.6457 35.6429 57.5931C35.772 55.4832 34.1915 56.2367 31.4571 56.1004L29.4698 55.6734Z" fill="#FFAA82"/>
<path d="M27.6147 65.4696C27.6147 65.4696 23.8553 64.1885 24.2113 59.3371C24.5986 54.0873 29.8641 54.5394 32.7902 54.2811C34.0851 54.1662 34.9887 53.9976 36.3149 55.0813C37.5237 56.0681 36.3931 58.2857 34.664 58.4292C33.9794 58.4866 34.2924 60.1803 34.1516 60.7652C33.9051 61.7987 33.201 62.3046 32.9428 63.3094C32.6963 64.2567 31.1706 65.7459 30.1809 65.8499C28.4088 66.0365 27.6147 65.4696 27.6147 65.4696Z" fill="#915151"/>
<path d="M20.327 91.2124C19.4272 90.8931 19.6424 76.7406 20.4521 68.9216L36.3269 75.8507C36.2486 82.5071 35.3293 87.7569 36.1978 95.8665L20.327 91.2124Z" fill="#F95C43"/>
<path d="M30.9027 97.3162C26.979 96.0029 23.2431 94.5676 21.0485 92.0988C19.9688 91.5282 20.1057 90.5199 21.3536 89.8632C22.5976 89.203 24.4988 89.1312 25.5785 89.7017L35.4327 94.9192C36.5124 95.4898 36.3755 96.4981 35.1276 97.1548C33.8797 97.815 31.9785 97.8868 30.9027 97.3162Z" fill="#F95C43"/>
<path d="M33.0649 69.7254C29.4228 69.223 26.9622 71.3222 26.0938 66.5102C26.6258 66.2088 27.3104 66.3559 27.6664 66.826C28.2923 67.6549 29.6223 68.1788 31.0893 68.0137C31.5275 67.9635 31.9617 68.1501 32.2003 68.491L33.0649 69.7254Z" fill="#F95C43"/>
<path d="M33.6676 74.078C33.8319 76.0768 34.051 78.1113 34.7825 80.0096C35.4984 81.8648 36.5116 83.6733 37.5052 85.4172C38.1781 86.5942 39.2226 87.7676 40.7052 88.069C42.4186 88.4171 43.9717 87.6061 45.2705 86.6696C47.4455 85.0979 49.1589 82.9772 50.8059 80.9605C51.2831 80.3792 50.9076 79.457 50.2778 79.1197C49.5267 78.7178 48.7482 79.0192 48.2709 79.6041C46.9448 81.226 45.5286 82.8803 43.8621 84.251C43.7096 84.3766 43.557 84.4986 43.4005 84.617C43.334 84.6673 43.2636 84.7175 43.1971 84.7677C43.5062 84.5453 43.2362 84.7355 43.1736 84.7785C42.8959 84.9615 42.6064 85.1302 42.3013 85.2737C42.2426 85.3024 42.18 85.3275 42.1213 85.3562C41.8631 85.4782 42.4617 85.2558 42.1878 85.3311C42.0744 85.3634 41.9609 85.4029 41.8475 85.4316C41.781 85.4459 41.7145 85.4603 41.648 85.4747C41.3468 85.5428 41.7536 85.4029 41.7771 85.4603C41.7732 85.4567 41.4328 85.4675 41.4015 85.4675C41.0573 85.4782 41.7497 85.568 41.4289 85.4675C41.3741 85.4495 41.3116 85.4352 41.2529 85.4244C40.9673 85.367 41.3976 85.3742 41.3741 85.4782C41.3741 85.4747 41.1199 85.3527 41.0964 85.3419C41.0807 85.3347 40.9321 85.2558 40.936 85.2414C40.9399 85.2235 41.245 85.489 41.0221 85.2988C40.9164 85.2091 40.8108 85.1194 40.7169 85.0225C40.6817 84.9902 40.6504 84.9543 40.6152 84.9185C40.4822 84.7821 40.4275 84.8431 40.6504 84.9651C40.4235 84.8395 40.2084 84.3479 40.0871 84.1434C39.5942 83.3037 39.1561 82.4281 38.6984 81.5705C38.5028 81.2009 38.3072 80.8277 38.1194 80.451C38.0412 80.2931 37.9668 80.1388 37.8925 79.9809C38.0451 80.3038 37.9003 79.9952 37.8729 79.9342C37.8338 79.8445 37.7947 79.7548 37.7556 79.6615C37.4309 78.89 37.1883 78.0934 37.0123 77.2824C36.9575 77.0241 36.9106 76.7621 36.8676 76.5038C36.8558 76.4248 36.8402 76.3459 36.8284 76.2669C36.8754 76.5719 36.7972 76.048 36.7932 75.9942C36.7111 75.3591 36.6524 74.7204 36.5976 74.0852C36.539 73.3855 35.9639 72.7037 35.1307 72.7396C34.3874 72.7611 33.605 73.3245 33.6676 74.078Z" fill="#FFAA82"/>
<path d="M32.1897 74.0457C33.0777 80.9318 35.4445 85.3096 38.7227 87.538C40.4478 88.4135 42.0596 85.916 41.4024 84.4089C38.1359 81.7464 36.9897 77.591 36.6806 72.8508C36.2542 71.8891 35.0415 71.3688 33.8758 71.6487C32.6552 71.9394 31.9159 72.9944 32.1897 74.0457Z" fill="#F95C43"/>
<path d="M33.8168 62.2903C33.895 63.1192 33.4334 63.8369 32.784 63.8871C32.7136 63.8943 32.6432 63.8907 32.5728 63.8799C32.0133 63.7974 31.5361 63.2161 31.4696 62.4769C31.3913 61.648 31.853 60.9303 32.5023 60.8801C33.1517 60.8298 33.7385 61.4614 33.8168 62.2903Z" fill="#FFAA82"/>
<g opacity="0.5">
<path d="M141.349 123.777C142.867 124.538 142.902 125.819 141.439 126.64L132.52 131.653C131.057 132.475 128.643 132.529 127.129 131.768C125.619 131.011 125.576 129.726 127.039 128.905L135.958 123.892C137.422 123.066 139.839 123.016 141.349 123.777Z" fill="black"/>
</g>
<path d="M137.089 121.581C138.56 120.727 140.492 121.136 141.404 122.506C142.319 123.849 141.862 125.618 140.398 126.45L131.863 131.316C130.4 132.127 128.483 131.729 127.575 130.387C126.652 129.023 127.098 127.275 128.561 126.439L137.089 121.581Z" fill="#F95C43"/>
<path d="M134.42 124.103C134.999 124.387 135.586 124.9 136.04 125.575C136.951 126.917 137.002 128.395 136.149 128.879L140.409 126.454C141.873 125.618 142.326 123.852 141.415 122.51C140.503 121.139 138.571 120.73 137.1 121.584L132.852 124.006C133.274 123.766 133.845 123.82 134.42 124.103Z" fill="#E8E7D6"/>
<g opacity="0.5">
<path d="M156.584 123.059C158.101 123.82 158.137 125.101 156.674 125.923L147.754 130.936C146.291 131.757 143.878 131.811 142.364 131.05C140.854 130.293 140.811 129.009 142.274 128.187L151.193 123.174C152.652 122.349 155.07 122.298 156.584 123.059Z" fill="black"/>
</g>
<path d="M151.909 120.827C153.38 119.973 155.313 120.382 156.224 121.753C157.14 123.095 156.682 124.864 155.219 125.697L146.683 130.559C145.22 131.37 143.303 130.971 142.395 129.629C141.472 128.266 141.918 126.518 143.381 125.682L151.909 120.827Z" fill="#F59701"/>
<path d="M149.233 123.35C149.812 123.633 150.399 124.146 150.852 124.821C151.764 126.163 151.815 127.641 150.962 128.126L155.222 125.7C156.685 124.864 157.139 123.099 156.227 121.757C155.316 120.386 153.383 119.977 151.912 120.831L147.664 123.253C148.087 123.012 148.658 123.066 149.233 123.35Z" fill="#E8E7D6"/>
<path opacity="0.5" d="M119.379 121.473C119.379 124.387 114.015 126.752 107.4 126.752C100.785 126.752 95.4219 124.39 95.4219 121.473C95.4219 118.559 100.785 116.195 107.4 116.195C114.015 116.195 119.379 118.559 119.379 121.473Z" fill="black"/>
<path d="M112.732 97.083C112.431 96.9287 112.239 96.8641 112.239 96.8641L107.49 96.9215L102.741 96.8641C102.741 96.8641 102.553 96.9287 102.252 97.083C101.117 97.6499 98.4141 99.4118 98.4141 103.287C98.4141 107.751 98.5197 117.544 98.5392 119.259C98.5432 119.453 98.5745 119.643 98.6449 119.83C99.0752 120.956 101.008 124.778 107.47 124.778C107.478 124.778 107.482 124.778 107.49 124.778C107.498 124.778 107.502 124.778 107.509 124.778C113.976 124.778 115.908 120.956 116.335 119.83C116.405 119.647 116.44 119.456 116.44 119.259C116.46 117.544 116.566 107.751 116.566 103.287C116.566 99.4118 113.866 97.6499 112.732 97.083Z" fill="#598FD7"/>
<path d="M99.1641 108.038V118.104C99.1641 118.104 99.7235 123.407 107.63 123.407C115.536 123.407 115.817 118.376 115.817 118.376V108.49C115.817 108.49 114.206 105.315 107.755 105.315C101.304 105.311 99.1641 108.038 99.1641 108.038Z" fill="#6EAAEA"/>
<path opacity="0.5" d="M114.709 119.23C114.709 120.996 111.462 122.428 107.452 122.428C103.446 122.428 100.195 120.996 100.195 119.23C100.195 117.465 103.442 116.033 107.452 116.033C111.462 116.033 114.709 117.465 114.709 119.23Z" fill="black"/>
<path d="M109.024 98.5506V114.354C109.024 114.899 108.692 115.366 108.199 115.606V116.647C108.199 117.02 107.87 117.325 107.459 117.325C107.049 117.325 106.716 117.023 106.716 116.647V115.606C106.231 115.366 105.891 114.899 105.891 114.354V98.5506H109.024Z" fill="#485BA8"/>
<path opacity="0.5" d="M112.711 97.1835C112.711 98.4896 110.325 99.5482 107.383 99.5482C104.441 99.5482 102.055 98.4896 102.055 97.1835C102.055 97.1476 102.059 97.1153 102.059 97.0794C102.36 96.9251 102.552 96.8605 102.552 96.8605L112.609 96.9789C112.637 96.9861 112.664 96.9933 112.691 97.004C112.707 97.065 112.711 97.126 112.711 97.1835Z" fill="black"/>
<path d="M112.711 96.8354C112.711 98.1416 110.325 99.2001 107.383 99.2001C104.441 99.2001 102.055 98.1416 102.055 96.8354C102.055 95.5292 104.441 94.4707 107.383 94.4707C110.325 94.4707 112.711 95.5292 112.711 96.8354Z" fill="white"/>
<path d="M112.19 93.5054L112.069 96.7457C112.065 96.8426 112.026 96.9359 111.955 97.0076C111.517 97.4741 110.735 98.1595 108.532 98.3389C108.18 98.3676 107.797 98.382 107.37 98.382C104.526 98.382 103.149 97.1906 102.77 96.7995C102.695 96.7242 102.656 96.6273 102.656 96.5268L102.578 93.5054L102.895 93.2147L110.332 93.448L112.19 93.5054Z" fill="#E6E6EE"/>
<path opacity="0.5" d="M107.367 97.9442H107.321C107.242 97.9442 107.18 97.8868 107.18 97.815V96.1823C107.18 96.1105 107.242 96.0531 107.321 96.0531H107.367C107.446 96.0531 107.508 96.1105 107.508 96.1823V97.815C107.508 97.8868 107.446 97.9442 107.367 97.9442Z" fill="#598FD7"/>
<path opacity="0.5" d="M108.375 97.8186H108.328C108.25 97.8186 108.188 97.7612 108.188 97.6894V96.0567C108.188 95.985 108.25 95.9275 108.328 95.9275H108.375C108.454 95.9275 108.516 95.985 108.516 96.0567V97.6894C108.516 97.7612 108.454 97.8186 108.375 97.8186Z" fill="#598FD7"/>
<path opacity="0.5" d="M109.516 97.5997H109.469C109.391 97.5997 109.328 97.5423 109.328 97.4705V95.8378C109.328 95.7661 109.391 95.7086 109.469 95.7086H109.516C109.594 95.7086 109.657 95.7661 109.657 95.8378V97.4705C109.657 97.5423 109.594 97.5997 109.516 97.5997Z" fill="#598FD7"/>
<path opacity="0.5" d="M110.516 97.2229H110.469C110.391 97.2229 110.328 97.1655 110.328 97.0938V95.4611C110.328 95.3893 110.391 95.3319 110.469 95.3319H110.516C110.594 95.3319 110.657 95.3893 110.657 95.4611V97.0938C110.653 97.1655 110.59 97.2229 110.516 97.2229Z" fill="#598FD7"/>
<path opacity="0.5" d="M111.508 96.7529H111.461C111.383 96.7529 111.32 96.6954 111.32 96.6237V94.991C111.32 94.9192 111.383 94.8618 111.461 94.8618H111.508C111.586 94.8618 111.649 94.9192 111.649 94.991V96.6237C111.645 96.6954 111.582 96.7529 111.508 96.7529Z" fill="#598FD7"/>
<path opacity="0.5" d="M106.242 97.8186H106.196C106.117 97.8186 106.055 97.7612 106.055 97.6894V96.0567C106.055 95.985 106.117 95.9275 106.196 95.9275H106.242C106.321 95.9275 106.383 95.985 106.383 96.0567V97.6894C106.383 97.7612 106.321 97.8186 106.242 97.8186Z" fill="#598FD7"/>
<path opacity="0.5" d="M105.133 97.6177H105.086C105.008 97.6177 104.945 97.5602 104.945 97.4885V95.8558C104.945 95.784 105.008 95.7266 105.086 95.7266H105.133C105.211 95.7266 105.274 95.784 105.274 95.8558V97.4885C105.27 97.5602 105.207 97.6177 105.133 97.6177Z" fill="#598FD7"/>
<path opacity="0.5" d="M104.157 97.2947H104.11C104.031 97.2947 103.969 97.2373 103.969 97.1655V95.5328C103.969 95.4611 104.031 95.4036 104.11 95.4036H104.157C104.235 95.4036 104.297 95.4611 104.297 95.5328V97.1655C104.297 97.2373 104.235 97.2947 104.157 97.2947Z" fill="#598FD7"/>
<path opacity="0.5" d="M103.164 96.7529H103.117C103.039 96.7529 102.977 96.6954 102.977 96.6237V94.991C102.977 94.9192 103.039 94.8618 103.117 94.8618H103.164C103.243 94.8618 103.305 94.9192 103.305 94.991V96.6237C103.305 96.6954 103.243 96.7529 103.164 96.7529Z" fill="#598FD7"/>
<path opacity="0.5" d="M112.192 93.5054L112.071 96.7457C112.067 96.8426 112.028 96.9359 111.958 97.0076C111.519 97.4741 110.737 98.1595 108.535 98.3389C108.445 97.7899 108.918 97.2768 109.286 96.8103C110.045 95.845 110.416 94.6321 110.334 93.448L112.192 93.5054Z" fill="black"/>
<path d="M107.386 95.7553C110.041 95.7553 112.194 94.6966 112.194 93.3906C112.194 92.0846 110.041 91.0258 107.386 91.0258C104.731 91.0258 102.578 92.0846 102.578 93.3906C102.578 94.6966 104.731 95.7553 107.386 95.7553Z" fill="white"/>
<path d="M109.953 93.4121C109.953 94.1082 108.807 94.6752 107.387 94.6752C105.97 94.6752 104.82 94.1118 104.82 93.4121C104.82 92.716 105.97 92.149 107.387 92.149C108.803 92.149 109.953 92.716 109.953 93.4121Z" fill="#E6E6EE"/>
<path opacity="0.5" d="M108.738 93.4085C108.738 93.8176 108.132 94.1477 107.389 94.1477C106.642 94.1477 106.039 93.8176 106.039 93.4085C106.039 92.9994 106.645 92.6693 107.389 92.6693C108.136 92.6693 108.738 92.9994 108.738 93.4085Z" fill="black"/>
<path d="M108.958 93.8678C107.886 94.2482 106.834 94.2625 105.801 93.8714C105.692 93.8319 105.625 93.7315 105.625 93.6238V89.4147C105.625 88.6647 106.282 87.9363 107.096 87.8645C107.237 87.8501 107.381 87.8466 107.522 87.8537C108.43 87.886 109.146 88.5858 109.146 89.4183V93.6166C109.142 93.7279 109.071 93.8284 108.958 93.8678Z" fill="#D0D0D6"/>
<path d="M109.024 109.631V114.354C109.024 114.899 108.692 115.366 108.199 115.606V116.647C108.199 117.02 107.87 117.325 107.459 117.325C107.049 117.325 106.716 117.023 106.716 116.647V115.606C106.231 115.366 105.891 114.899 105.891 114.354V109.657C106.65 109.718 107.674 109.739 109.024 109.631Z" fill="#637BC6"/>
</g>
<defs>
<linearGradient id="paint0_linear_186_1237" x1="63.9478" y1="67.1833" x2="71.4109" y2="66.7491" gradientUnits="userSpaceOnUse">
<stop offset="0.0394" stop-color="white"/>
<stop offset="0.3172" stop-color="#FCFDFE"/>
<stop offset="0.5068" stop-color="#F3F7FB"/>
<stop offset="0.6701" stop-color="#E4EDF7"/>
<stop offset="0.8186" stop-color="#CEDEF0"/>
<stop offset="0.9556" stop-color="#B3CBE8"/>
<stop offset="1" stop-color="#A8C4E5"/>
</linearGradient>
<clipPath id="clip0_186_1237">
<rect width="166" height="134" fill="white"/>
</clipPath>
</defs>
</svg>
