<svg width="19" height="19" viewBox="0 0 19 19" fill="none" xmlns="http://www.w3.org/2000/svg">
<mask id="mask0_1_2304" style="mask-type:alpha" maskUnits="userSpaceOnUse" x="0" y="0" width="19" height="19">
<g clip-path="url(#clip0_1_2304)">
<g clip-path="url(#clip1_1_2304)">
<path d="M18.8776 5.80563L16.7839 12.3989C16.7142 12.625 16.5742 12.823 16.384 12.9638C16.1939 13.1047 15.9638 13.1811 15.7272 13.1818H7.64751C7.41631 13.183 7.19009 13.1147 6.99817 12.9858C6.80625 12.8569 6.6575 12.6733 6.57119 12.4588L3.4796 4.18185H1.69985C1.49725 4.17448 1.3054 4.08882 1.16468 3.94289C1.02395 3.79696 0.945312 3.60213 0.945312 3.39939C0.945312 3.19666 1.02395 3.00183 1.16468 2.8559C1.3054 2.70997 1.49725 2.62431 1.69985 2.61694H4.02809C4.19101 2.61891 4.34946 2.67048 4.48233 2.76478C4.6152 2.85908 4.71618 2.99163 4.77181 3.14478L7.96049 11.6149H15.3977L17.0607 6.33243H7.84274C7.73759 6.33625 7.63275 6.31884 7.53449 6.28124C7.43622 6.24363 7.34654 6.18661 7.27081 6.11358C7.19507 6.04054 7.13483 5.953 7.09368 5.85616C7.05254 5.75932 7.03133 5.65519 7.03133 5.54997C7.03133 5.44476 7.05254 5.34062 7.09368 5.24379C7.13483 5.14695 7.19507 5.0594 7.27081 4.98637C7.34654 4.91333 7.43622 4.85631 7.53449 4.81871C7.63275 4.78111 7.73759 4.7637 7.84274 4.76752H18.1339C18.2571 4.76941 18.3782 4.80055 18.487 4.85837C18.5958 4.9162 18.6893 4.99906 18.7599 5.10013C18.836 5.199 18.8865 5.31509 18.907 5.43814C18.9276 5.56119 18.9175 5.68741 18.8776 5.80563ZM8.03899 14.2189C7.74538 14.2194 7.46101 14.3216 7.23429 14.5082C7.00758 14.6948 6.85255 14.9541 6.79561 15.2422C6.73866 15.5302 6.78332 15.8291 6.92198 16.0879C7.06064 16.3467 7.28473 16.5495 7.55607 16.6616C7.82742 16.7738 8.12926 16.7884 8.41018 16.703C8.69111 16.6176 8.93374 16.4375 9.09678 16.1933C9.25981 15.9491 9.33316 15.656 9.30434 15.3638C9.27551 15.0716 9.14629 14.7984 8.93868 14.5908C8.69885 14.3541 8.37594 14.2206 8.03899 14.2189ZM15.063 14.2189C14.7694 14.2194 14.485 14.3216 14.2583 14.5082C14.0316 14.6948 13.8765 14.9541 13.8196 15.2422C13.7627 15.5302 13.8073 15.8291 13.946 16.0879C14.0846 16.3467 14.3087 16.5495 14.5801 16.6616C14.8514 16.7738 15.1532 16.7884 15.4342 16.703C15.7151 16.6176 15.9577 16.4375 16.1208 16.1933C16.2838 15.9491 16.3572 15.656 16.3283 15.3638C16.2995 15.0716 16.1703 14.7984 15.9627 14.5908C15.7228 14.3541 15.3999 14.2206 15.063 14.2189Z" fill="black"/>
</g>
</g>
</mask>
<g mask="url(#mask0_1_2304)">
<rect x="0.914062" y="0.689941" width="18" height="18" fill="#184363"/>
</g>
<defs>
<clipPath id="clip0_1_2304">
<rect width="18" height="18" fill="white" transform="translate(0.914062 0.689941)"/>
</clipPath>
<clipPath id="clip1_1_2304">
<rect width="18" height="14.1461" fill="white" transform="translate(0.914062 2.61694)"/>
</clipPath>
</defs>
</svg>
