<svg width="135" height="40" viewBox="0 0 135 40" fill="none" xmlns="http://www.w3.org/2000/svg">
<rect width="20" height="40" rx="4" fill="#DB4444"/>
<path d="M43.952 23.872H39.504L38.768 26H36.416L40.432 14.816H43.04L47.056 26H44.688L43.952 23.872ZM43.344 22.08L41.728 17.408L40.112 22.08H43.344ZM50.7971 14.16V26H48.5571V14.16H50.7971ZM55.6183 18.976V23.264C55.6183 23.5627 55.6876 23.7813 55.8263 23.92C55.9756 24.048 56.2209 24.112 56.5623 24.112H57.6023V26H56.1943C54.3063 26 53.3623 25.0827 53.3623 23.248V18.976H52.3063V17.136H53.3623V14.944H55.6183V17.136H57.6023V18.976H55.6183ZM67.4534 21.376C67.4534 21.696 67.432 21.984 67.3894 22.24H60.9094C60.9627 22.88 61.1867 23.3813 61.5814 23.744C61.976 24.1067 62.4614 24.288 63.0374 24.288C63.8694 24.288 64.4614 23.9307 64.8134 23.216H67.2294C66.9734 24.0693 66.4827 24.7733 65.7574 25.328C65.032 25.872 64.1414 26.144 63.0854 26.144C62.232 26.144 61.464 25.9573 60.7814 25.584C60.1094 25.2 59.5814 24.6613 59.1974 23.968C58.824 23.2747 58.6374 22.4747 58.6374 21.568C58.6374 20.6507 58.824 19.8453 59.1974 19.152C59.5707 18.4587 60.0934 17.9253 60.7654 17.552C61.4374 17.1787 62.2107 16.992 63.0854 16.992C63.928 16.992 64.68 17.1733 65.3414 17.536C66.0134 17.8987 66.5307 18.416 66.8934 19.088C67.2667 19.7493 67.4534 20.512 67.4534 21.376ZM65.1334 20.736C65.1227 20.16 64.9147 19.7013 64.5094 19.36C64.104 19.008 63.608 18.832 63.0214 18.832C62.4667 18.832 61.9974 19.0027 61.6134 19.344C61.24 19.6747 61.0107 20.1387 60.9254 20.736H65.1334ZM71.3284 18.512C71.6164 18.0427 71.9897 17.6747 72.4484 17.408C72.9177 17.1413 73.451 17.008 74.0484 17.008V19.36H73.4564C72.7524 19.36 72.219 19.5253 71.8564 19.856C71.5044 20.1867 71.3284 20.7627 71.3284 21.584V26H69.0884V17.136H71.3284V18.512ZM80.4691 17.008C81.5251 17.008 82.3785 17.344 83.0291 18.016C83.6798 18.6773 84.0051 19.6053 84.0051 20.8V26H81.7651V21.104C81.7651 20.4 81.5891 19.8613 81.2371 19.488C80.8851 19.104 80.4051 18.912 79.7971 18.912C79.1785 18.912 78.6878 19.104 78.3251 19.488C77.9731 19.8613 77.7971 20.4 77.7971 21.104V26H75.5571V17.136H77.7971V18.24C78.0958 17.856 78.4745 17.5573 78.9331 17.344C79.4025 17.12 79.9145 17.008 80.4691 17.008ZM85.5592 21.536C85.5592 20.64 85.7352 19.8453 86.0872 19.152C86.4499 18.4587 86.9353 17.9253 87.5433 17.552C88.1619 17.1787 88.8499 16.992 89.6073 16.992C90.2686 16.992 90.8446 17.1253 91.3353 17.392C91.8366 17.6587 92.2366 17.9947 92.5353 18.4V17.136H94.7913V26H92.5353V24.704C92.2473 25.12 91.8473 25.4667 91.3353 25.744C90.8339 26.0107 90.2526 26.144 89.5913 26.144C88.8446 26.144 88.1619 25.952 87.5433 25.568C86.9353 25.184 86.4499 24.6453 86.0872 23.952C85.7352 23.248 85.5592 22.4427 85.5592 21.536ZM92.5353 21.568C92.5353 21.024 92.4286 20.56 92.2153 20.176C92.0019 19.7813 91.7139 19.4827 91.3513 19.28C90.9886 19.0667 90.5993 18.96 90.1833 18.96C89.7673 18.96 89.3833 19.0613 89.0312 19.264C88.6793 19.4667 88.3913 19.7653 88.1673 20.16C87.9539 20.544 87.8473 21.0027 87.8473 21.536C87.8473 22.0693 87.9539 22.5387 88.1673 22.944C88.3913 23.3387 88.6793 23.6427 89.0312 23.856C89.3939 24.0693 89.7779 24.176 90.1833 24.176C90.5993 24.176 90.9886 24.0747 91.3513 23.872C91.7139 23.6587 92.0019 23.36 92.2153 22.976C92.4286 22.5813 92.5353 22.112 92.5353 21.568ZM99.587 18.976V23.264C99.587 23.5627 99.6563 23.7813 99.795 23.92C99.9443 24.048 100.19 24.112 100.531 24.112H101.571V26H100.163C98.275 26 97.331 25.0827 97.331 23.248V18.976H96.275V17.136H97.331V14.944H99.587V17.136H101.571V18.976H99.587ZM104.318 16.08C103.923 16.08 103.593 15.9573 103.326 15.712C103.07 15.456 102.942 15.1413 102.942 14.768C102.942 14.3947 103.07 14.0853 103.326 13.84C103.593 13.584 103.923 13.456 104.318 13.456C104.713 13.456 105.038 13.584 105.294 13.84C105.561 14.0853 105.694 14.3947 105.694 14.768C105.694 15.1413 105.561 15.456 105.294 15.712C105.038 15.9573 104.713 16.08 104.318 16.08ZM105.422 17.136V26H103.182V17.136H105.422ZM111.331 23.936L113.571 17.136H115.955L112.675 26H109.955L106.691 17.136H109.091L111.331 23.936ZM125.453 21.376C125.453 21.696 125.432 21.984 125.389 22.24H118.909C118.963 22.88 119.187 23.3813 119.581 23.744C119.976 24.1067 120.461 24.288 121.037 24.288C121.869 24.288 122.461 23.9307 122.813 23.216H125.229C124.973 24.0693 124.483 24.7733 123.757 25.328C123.032 25.872 122.141 26.144 121.085 26.144C120.232 26.144 119.464 25.9573 118.781 25.584C118.109 25.2 117.581 24.6613 117.197 23.968C116.824 23.2747 116.637 22.4747 116.637 21.568C116.637 20.6507 116.824 19.8453 117.197 19.152C117.571 18.4587 118.093 17.9253 118.765 17.552C119.437 17.1787 120.211 16.992 121.085 16.992C121.928 16.992 122.68 17.1733 123.341 17.536C124.013 17.8987 124.531 18.416 124.893 19.088C125.267 19.7493 125.453 20.512 125.453 21.376ZM123.133 20.736C123.123 20.16 122.915 19.7013 122.509 19.36C122.104 19.008 121.608 18.832 121.021 18.832C120.467 18.832 119.997 19.0027 119.613 19.344C119.24 19.6747 119.011 20.1387 118.925 20.736H123.133ZM130.48 26.144C129.755 26.144 129.104 26.016 128.528 25.76C127.952 25.4933 127.494 25.136 127.152 24.688C126.822 24.24 126.64 23.744 126.608 23.2H128.864C128.907 23.5413 129.072 23.824 129.36 24.048C129.659 24.272 130.027 24.384 130.464 24.384C130.891 24.384 131.222 24.2987 131.456 24.128C131.702 23.9573 131.824 23.7387 131.824 23.472C131.824 23.184 131.675 22.9707 131.376 22.832C131.088 22.6827 130.624 22.5227 129.984 22.352C129.323 22.192 128.779 22.0267 128.352 21.856C127.936 21.6853 127.574 21.424 127.264 21.072C126.966 20.72 126.816 20.2453 126.816 19.648C126.816 19.1573 126.955 18.7093 127.232 18.304C127.52 17.8987 127.926 17.5787 128.448 17.344C128.982 17.1093 129.606 16.992 130.32 16.992C131.376 16.992 132.219 17.2587 132.848 17.792C133.478 18.3147 133.824 19.024 133.888 19.92H131.744C131.712 19.568 131.563 19.2907 131.296 19.088C131.04 18.8747 130.694 18.768 130.256 18.768C129.851 18.768 129.536 18.8427 129.312 18.992C129.099 19.1413 128.992 19.3493 128.992 19.616C128.992 19.9147 129.142 20.144 129.44 20.304C129.739 20.4533 130.203 20.608 130.832 20.768C131.472 20.928 132 21.0933 132.416 21.264C132.832 21.4347 133.19 21.7013 133.488 22.064C133.798 22.416 133.958 22.8853 133.968 23.472C133.968 23.984 133.824 24.4427 133.536 24.848C133.259 25.2533 132.854 25.5733 132.32 25.808C131.798 26.032 131.184 26.144 130.48 26.144Z" fill="#DB4444"/>
</svg>
