<svg width="41" height="40" viewBox="0 0 41 40" fill="none" xmlns="http://www.w3.org/2000/svg">
<rect x="0.976562" width="40" height="40" rx="10" fill="#15A9E3"/>
<g clip-path="url(#clip0_6_5868)">
<path d="M23.9766 13.5H17.9766C15.2156 13.5 12.9766 15.739 12.9766 18.5V24.5C12.9766 27.261 15.2156 29.5 17.9766 29.5H23.9766C26.7376 29.5 28.9766 27.261 28.9766 24.5V18.5C28.9766 15.739 26.7376 13.5 23.9766 13.5ZM27.4766 24.5C27.4766 26.43 25.9066 28 23.9766 28H17.9766C16.0466 28 14.4766 26.43 14.4766 24.5V18.5C14.4766 16.57 16.0466 15 17.9766 15H23.9766C25.9066 15 27.4766 16.57 27.4766 18.5V24.5Z" fill="white"/>
<path d="M20.9766 17.5C18.7676 17.5 16.9766 19.291 16.9766 21.5C16.9766 23.709 18.7676 25.5 20.9766 25.5C23.1856 25.5 24.9766 23.709 24.9766 21.5C24.9766 19.291 23.1856 17.5 20.9766 17.5ZM20.9766 24C19.5986 24 18.4766 22.878 18.4766 21.5C18.4766 20.121 19.5986 19 20.9766 19C22.3546 19 23.4766 20.121 23.4766 21.5C23.4766 22.878 22.3546 24 20.9766 24Z" fill="white"/>
<path d="M25.2752 17.733C25.5696 17.733 25.8082 17.4944 25.8082 17.2C25.8082 16.9056 25.5696 16.667 25.2752 16.667C24.9808 16.667 24.7422 16.9056 24.7422 17.2C24.7422 17.4944 24.9808 17.733 25.2752 17.733Z" fill="white"/>
</g>
<defs>
<clipPath id="clip0_6_5868">
<rect width="16" height="16" fill="white" transform="translate(12.9766 13.5)"/>
</clipPath>
</defs>
</svg>
