<svg width="270" height="350" viewBox="0 0 270 350" fill="none" xmlns="http://www.w3.org/2000/svg">
<rect width="270" height="250" rx="4" fill="#F5F5F5"/>
<rect x="12" y="12" width="55" height="26" rx="4" fill="#DB4444"/>
<path d="M29.484 24.14V25.064H24.696V24.14H29.484ZM31.3294 22.508C31.3854 21.772 31.6694 21.196 32.1814 20.78C32.6934 20.364 33.3574 20.156 34.1734 20.156C34.7174 20.156 35.1854 20.256 35.5774 20.456C35.9774 20.648 36.2774 20.912 36.4774 21.248C36.6854 21.584 36.7894 21.964 36.7894 22.388C36.7894 22.884 36.6454 23.312 36.3574 23.672C36.0774 24.032 35.7094 24.264 35.2534 24.368V24.428C35.7734 24.556 36.1854 24.808 36.4894 25.184C36.7934 25.56 36.9454 26.052 36.9454 26.66C36.9454 27.116 36.8414 27.528 36.6334 27.896C36.4254 28.256 36.1134 28.54 35.6974 28.748C35.2814 28.956 34.7814 29.06 34.1974 29.06C33.3494 29.06 32.6534 28.84 32.1094 28.4C31.5654 27.952 31.2614 27.32 31.1974 26.504H32.2534C32.3094 26.984 32.5054 27.376 32.8414 27.68C33.1774 27.984 33.6254 28.136 34.1854 28.136C34.7454 28.136 35.1694 27.992 35.4574 27.704C35.7534 27.408 35.9014 27.028 35.9014 26.564C35.9014 25.964 35.7014 25.532 35.3014 25.268C34.9014 25.004 34.2974 24.872 33.4894 24.872H33.2134V23.96H33.5014C34.2374 23.952 34.7934 23.832 35.1694 23.6C35.5454 23.36 35.7334 22.992 35.7334 22.496C35.7334 22.072 35.5934 21.732 35.3134 21.476C35.0414 21.22 34.6494 21.092 34.1374 21.092C33.6414 21.092 33.2414 21.22 32.9374 21.476C32.6334 21.732 32.4534 22.076 32.3974 22.508H31.3294ZM38.4198 24.572C38.4198 23.196 38.6438 22.124 39.0918 21.356C39.5398 20.58 40.3238 20.192 41.4438 20.192C42.5558 20.192 43.3358 20.58 43.7838 21.356C44.2318 22.124 44.4558 23.196 44.4558 24.572C44.4558 25.972 44.2318 27.06 43.7838 27.836C43.3358 28.612 42.5558 29 41.4438 29C40.3238 29 39.5398 28.612 39.0918 27.836C38.6438 27.06 38.4198 25.972 38.4198 24.572ZM43.3758 24.572C43.3758 23.876 43.3278 23.288 43.2318 22.808C43.1438 22.32 42.9558 21.928 42.6678 21.632C42.3878 21.336 41.9798 21.188 41.4438 21.188C40.8998 21.188 40.4838 21.336 40.1958 21.632C39.9158 21.928 39.7278 22.32 39.6318 22.808C39.5438 23.288 39.4998 23.876 39.4998 24.572C39.4998 25.292 39.5438 25.896 39.6318 26.384C39.7278 26.872 39.9158 27.264 40.1958 27.56C40.4838 27.856 40.8998 28.004 41.4438 28.004C41.9798 28.004 42.3878 27.856 42.6678 27.56C42.9558 27.264 43.1438 26.872 43.2318 26.384C43.3278 25.896 43.3758 25.292 43.3758 24.572ZM45.7149 22.28C45.7149 21.736 45.8789 21.304 46.2069 20.984C46.5349 20.656 46.9549 20.492 47.4669 20.492C47.9789 20.492 48.3989 20.656 48.7269 20.984C49.0549 21.304 49.2189 21.736 49.2189 22.28C49.2189 22.832 49.0549 23.272 48.7269 23.6C48.3989 23.92 47.9789 24.08 47.4669 24.08C46.9549 24.08 46.5349 23.92 46.2069 23.6C45.8789 23.272 45.7149 22.832 45.7149 22.28ZM52.7229 20.624L47.8629 29H46.7829L51.6429 20.624H52.7229ZM47.4669 21.164C47.1949 21.164 46.9789 21.26 46.8189 21.452C46.6669 21.636 46.5909 21.912 46.5909 22.28C46.5909 22.648 46.6669 22.928 46.8189 23.12C46.9789 23.312 47.1949 23.408 47.4669 23.408C47.7389 23.408 47.9549 23.312 48.1149 23.12C48.2749 22.92 48.3549 22.64 48.3549 22.28C48.3549 21.912 48.2749 21.636 48.1149 21.452C47.9549 21.26 47.7389 21.164 47.4669 21.164ZM50.3109 27.344C50.3109 26.792 50.4749 26.356 50.8029 26.036C51.1309 25.708 51.5509 25.544 52.0629 25.544C52.5749 25.544 52.9909 25.708 53.3109 26.036C53.6389 26.356 53.8029 26.792 53.8029 27.344C53.8029 27.888 53.6389 28.324 53.3109 28.652C52.9909 28.98 52.5749 29.144 52.0629 29.144C51.5509 29.144 51.1309 28.984 50.8029 28.664C50.4749 28.336 50.3109 27.896 50.3109 27.344ZM52.0509 26.228C51.7789 26.228 51.5629 26.324 51.4029 26.516C51.2429 26.7 51.1629 26.976 51.1629 27.344C51.1629 27.704 51.2429 27.98 51.4029 28.172C51.5629 28.356 51.7789 28.448 52.0509 28.448C52.3229 28.448 52.5389 28.356 52.6989 28.172C52.8589 27.98 52.9389 27.704 52.9389 27.344C52.9389 26.976 52.8589 26.7 52.6989 26.516C52.5389 26.324 52.3229 26.228 52.0509 26.228Z" fill="#FAFAFA"/>
<circle cx="241" cy="29" r="17" fill="white"/>
<path d="M237 22C234.791 22 233 23.7396 233 25.8859C233 27.6185 233.7 31.7305 240.59 35.8873C240.714 35.961 240.856 36 241 36C241.144 36 241.286 35.961 241.41 35.8873C248.3 31.7305 249 27.6185 249 25.8859C249 23.7396 247.209 22 245 22C242.791 22 241 24.3551 241 24.3551C241 24.3551 239.209 22 237 22Z" stroke="black" stroke-width="1.5" stroke-linecap="round" stroke-linejoin="round"/>
<circle cx="241" cy="71" r="17" fill="white"/>
<path d="M250.26 69.962C250.734 70.582 250.734 71.419 250.26 72.038C248.767 73.987 245.185 78 241.003 78C236.821 78 233.239 73.987 231.746 72.038C231.516 71.7411 231.391 71.3759 231.391 71C231.391 70.6241 231.516 70.2589 231.746 69.962C233.239 68.013 236.821 64 241.003 64C245.185 64 248.767 68.013 250.26 69.962V69.962Z" stroke="black" stroke-width="1.5" stroke-linecap="round" stroke-linejoin="round"/>
<path d="M241 74C242.657 74 244 72.6569 244 71C244 69.3431 242.657 68 241 68C239.343 68 238 69.3431 238 71C238 72.6569 239.343 74 241 74Z" stroke="black" stroke-width="1.5" stroke-linecap="round" stroke-linejoin="round"/>
<path d="M12.912 272.88V284H11.088V276.384L7.696 284H6.432L3.024 276.384V284H1.2V272.88H3.168L7.072 281.6L10.96 272.88H12.912ZM23.2934 275.184V284H21.4694V282.96C21.1814 283.323 20.8027 283.611 20.3334 283.824C19.8747 284.027 19.384 284.128 18.8614 284.128C18.168 284.128 17.544 283.984 16.9894 283.696C16.4454 283.408 16.0134 282.981 15.6934 282.416C15.384 281.851 15.2294 281.168 15.2294 280.368V275.184H17.0374V280.096C17.0374 280.885 17.2347 281.493 17.6294 281.92C18.024 282.336 18.5627 282.544 19.2454 282.544C19.928 282.544 20.4667 282.336 20.8614 281.92C21.2667 281.493 21.4694 280.885 21.4694 280.096V275.184H23.2934ZM28.9 284.144C28.2067 284.144 27.5827 284.021 27.028 283.776C26.484 283.52 26.052 283.179 25.732 282.752C25.412 282.315 25.2413 281.829 25.22 281.296H27.108C27.14 281.669 27.316 281.984 27.636 282.24C27.9667 282.485 28.3773 282.608 28.868 282.608C29.38 282.608 29.7747 282.512 30.052 282.32C30.34 282.117 30.484 281.861 30.484 281.552C30.484 281.221 30.324 280.976 30.004 280.816C29.6947 280.656 29.1987 280.48 28.516 280.288C27.8547 280.107 27.316 279.931 26.9 279.76C26.484 279.589 26.1213 279.328 25.812 278.976C25.5133 278.624 25.364 278.16 25.364 277.584C25.364 277.115 25.5027 276.688 25.78 276.304C26.0573 275.909 26.452 275.6 26.964 275.376C27.4867 275.152 28.084 275.04 28.756 275.04C29.7587 275.04 30.564 275.296 31.172 275.808C31.7907 276.309 32.1213 276.997 32.164 277.872H30.34C30.308 277.477 30.148 277.163 29.86 276.928C29.572 276.693 29.1827 276.576 28.692 276.576C28.212 276.576 27.844 276.667 27.588 276.848C27.332 277.029 27.204 277.269 27.204 277.568C27.204 277.803 27.2893 278 27.46 278.16C27.6307 278.32 27.8387 278.448 28.084 278.544C28.3293 278.629 28.692 278.741 29.172 278.88C29.812 279.051 30.3347 279.227 30.74 279.408C31.156 279.579 31.5133 279.835 31.812 280.176C32.1107 280.517 32.2653 280.971 32.276 281.536C32.276 282.037 32.1373 282.485 31.86 282.88C31.5827 283.275 31.188 283.584 30.676 283.808C30.1747 284.032 29.5827 284.144 28.9 284.144ZM33.6389 279.552C33.6389 278.667 33.8202 277.883 34.1829 277.2C34.5562 276.517 35.0575 275.989 35.6869 275.616C36.3269 275.232 37.0309 275.04 37.7989 275.04C38.4922 275.04 39.0949 275.179 39.6069 275.456C40.1295 275.723 40.5455 276.059 40.8549 276.464V275.184H42.6949V284H40.8549V282.688C40.5455 283.104 40.1242 283.451 39.5909 283.728C39.0575 284.005 38.4495 284.144 37.7669 284.144C37.0095 284.144 36.3162 283.952 35.6869 283.568C35.0575 283.173 34.5562 282.629 34.1829 281.936C33.8202 281.232 33.6389 280.437 33.6389 279.552ZM40.8549 279.584C40.8549 278.976 40.7269 278.448 40.4709 278C40.2255 277.552 39.9002 277.211 39.4949 276.976C39.0895 276.741 38.6522 276.624 38.1829 276.624C37.7135 276.624 37.2762 276.741 36.8709 276.976C36.4655 277.2 36.1349 277.536 35.8789 277.984C35.6335 278.421 35.5109 278.944 35.5109 279.552C35.5109 280.16 35.6335 280.693 35.8789 281.152C36.1349 281.611 36.4655 281.963 36.8709 282.208C37.2869 282.443 37.7242 282.56 38.1829 282.56C38.6522 282.56 39.0895 282.443 39.4949 282.208C39.9002 281.973 40.2255 281.632 40.4709 281.184C40.7269 280.725 40.8549 280.192 40.8549 279.584ZM48.2906 284.144C47.5973 284.144 46.9733 284.021 46.4186 283.776C45.8746 283.52 45.4426 283.179 45.1226 282.752C44.8026 282.315 44.632 281.829 44.6106 281.296H46.4986C46.5306 281.669 46.7066 281.984 47.0266 282.24C47.3573 282.485 47.768 282.608 48.2586 282.608C48.7706 282.608 49.1653 282.512 49.4426 282.32C49.7306 282.117 49.8746 281.861 49.8746 281.552C49.8746 281.221 49.7146 280.976 49.3946 280.816C49.0853 280.656 48.5893 280.48 47.9066 280.288C47.2453 280.107 46.7066 279.931 46.2906 279.76C45.8746 279.589 45.512 279.328 45.2026 278.976C44.904 278.624 44.7546 278.16 44.7546 277.584C44.7546 277.115 44.8933 276.688 45.1706 276.304C45.448 275.909 45.8426 275.6 46.3546 275.376C46.8773 275.152 47.4746 275.04 48.1466 275.04C49.1493 275.04 49.9546 275.296 50.5626 275.808C51.1813 276.309 51.512 276.997 51.5546 277.872H49.7306C49.6986 277.477 49.5386 277.163 49.2506 276.928C48.9626 276.693 48.5733 276.576 48.0826 276.576C47.6026 276.576 47.2346 276.667 46.9786 276.848C46.7226 277.029 46.5946 277.269 46.5946 277.568C46.5946 277.803 46.68 278 46.8506 278.16C47.0213 278.32 47.2293 278.448 47.4746 278.544C47.72 278.629 48.0826 278.741 48.5626 278.88C49.2026 279.051 49.7253 279.227 50.1306 279.408C50.5466 279.579 50.904 279.835 51.2026 280.176C51.5013 280.517 51.656 280.971 51.6666 281.536C51.6666 282.037 51.528 282.485 51.2506 282.88C50.9733 283.275 50.5786 283.584 50.0666 283.808C49.5653 284.032 48.9733 284.144 48.2906 284.144ZM58.1975 275.04C58.8695 275.04 59.4668 275.184 59.9895 275.472C60.5228 275.76 60.9388 276.187 61.2375 276.752C61.5468 277.317 61.7015 278 61.7015 278.8V284H59.8935V279.072C59.8935 278.283 59.6962 277.68 59.3015 277.264C58.9068 276.837 58.3682 276.624 57.6855 276.624C57.0028 276.624 56.4588 276.837 56.0535 277.264C55.6588 277.68 55.4615 278.283 55.4615 279.072V284H53.6375V272.16H55.4615V276.208C55.7708 275.835 56.1602 275.547 56.6295 275.344C57.1095 275.141 57.6322 275.04 58.1975 275.04ZM64.9561 274.016C64.6255 274.016 64.3481 273.904 64.1241 273.68C63.9001 273.456 63.7881 273.179 63.7881 272.848C63.7881 272.517 63.9001 272.24 64.1241 272.016C64.3481 271.792 64.6255 271.68 64.9561 271.68C65.2761 271.68 65.5481 271.792 65.7721 272.016C65.9961 272.24 66.1081 272.517 66.1081 272.848C66.1081 273.179 65.9961 273.456 65.7721 273.68C65.5481 273.904 65.2761 274.016 64.9561 274.016ZM65.8521 275.184V284H64.0281V275.184H65.8521ZM71.9231 274V272.336H75.2511V284H73.4111V274H71.9231ZM77.7569 278.016C77.7569 276.171 78.0662 274.731 78.6849 273.696C79.3142 272.651 80.3915 272.128 81.9169 272.128C83.4422 272.128 84.5142 272.651 85.1329 273.696C85.7622 274.731 86.0769 276.171 86.0769 278.016C86.0769 279.883 85.7622 281.344 85.1329 282.4C84.5142 283.445 83.4422 283.968 81.9169 283.968C80.3915 283.968 79.3142 283.445 78.6849 282.4C78.0662 281.344 77.7569 279.883 77.7569 278.016ZM84.2849 278.016C84.2849 277.152 84.2262 276.421 84.1089 275.824C84.0022 275.227 83.7782 274.741 83.4369 274.368C83.0955 273.984 82.5889 273.792 81.9169 273.792C81.2449 273.792 80.7382 273.984 80.3969 274.368C80.0555 274.741 79.8262 275.227 79.7089 275.824C79.6022 276.421 79.5489 277.152 79.5489 278.016C79.5489 278.912 79.6022 279.664 79.7089 280.272C79.8155 280.88 80.0395 281.371 80.3809 281.744C80.7329 282.117 81.2449 282.304 81.9169 282.304C82.5889 282.304 83.0955 282.117 83.4369 281.744C83.7889 281.371 84.0182 280.88 84.1249 280.272C84.2315 279.664 84.2849 278.912 84.2849 278.016ZM88.0069 278.016C88.0069 276.171 88.3162 274.731 88.9349 273.696C89.5642 272.651 90.6415 272.128 92.1669 272.128C93.6922 272.128 94.7642 272.651 95.3829 273.696C96.0122 274.731 96.3269 276.171 96.3269 278.016C96.3269 279.883 96.0122 281.344 95.3829 282.4C94.7642 283.445 93.6922 283.968 92.1669 283.968C90.6415 283.968 89.5642 283.445 88.9349 282.4C88.3162 281.344 88.0069 279.883 88.0069 278.016ZM94.5349 278.016C94.5349 277.152 94.4762 276.421 94.3589 275.824C94.2522 275.227 94.0282 274.741 93.6869 274.368C93.3455 273.984 92.8389 273.792 92.1669 273.792C91.4949 273.792 90.9882 273.984 90.6469 274.368C90.3055 274.741 90.0762 275.227 89.9589 275.824C89.8522 276.421 89.7989 277.152 89.7989 278.016C89.7989 278.912 89.8522 279.664 89.9589 280.272C90.0655 280.88 90.2895 281.371 90.6309 281.744C90.9829 282.117 91.4949 282.304 92.1669 282.304C92.8389 282.304 93.3455 282.117 93.6869 281.744C94.0389 281.371 94.2682 280.88 94.3749 280.272C94.4815 279.664 94.5349 278.912 94.5349 278.016ZM97.9689 275.152C97.9689 274.373 98.1929 273.765 98.6409 273.328C99.0995 272.88 99.6862 272.656 100.401 272.656C101.116 272.656 101.697 272.88 102.145 273.328C102.604 273.765 102.833 274.373 102.833 275.152C102.833 275.931 102.604 276.544 102.145 276.992C101.697 277.44 101.116 277.664 100.401 277.664C99.6862 277.664 99.0995 277.44 98.6409 276.992C98.1929 276.544 97.9689 275.931 97.9689 275.152ZM107.729 272.864L101.345 284H99.5529L105.937 272.864H107.729ZM100.401 273.76C99.7289 273.76 99.3929 274.224 99.3929 275.152C99.3929 276.091 99.7289 276.56 100.401 276.56C100.721 276.56 100.966 276.448 101.137 276.224C101.318 275.989 101.409 275.632 101.409 275.152C101.409 274.224 101.073 273.76 100.401 273.76ZM104.481 281.696C104.481 280.917 104.705 280.309 105.153 279.872C105.612 279.424 106.198 279.2 106.913 279.2C107.617 279.2 108.193 279.424 108.641 279.872C109.1 280.309 109.329 280.917 109.329 281.696C109.329 282.475 109.1 283.088 108.641 283.536C108.193 283.984 107.617 284.208 106.913 284.208C106.198 284.208 105.612 283.984 105.153 283.536C104.705 283.088 104.481 282.475 104.481 281.696ZM106.897 280.304C106.225 280.304 105.889 280.768 105.889 281.696C105.889 282.624 106.225 283.088 106.897 283.088C107.569 283.088 107.905 282.624 107.905 281.696C107.905 280.768 107.569 280.304 106.897 280.304ZM129.836 272.88L126.54 284H124.476L122.14 275.584L119.66 284L117.612 284.016L114.46 272.88H116.396L118.7 281.936L121.196 272.88H123.244L125.564 281.888L127.884 272.88H129.836ZM135.901 275.04C136.573 275.04 137.17 275.184 137.693 275.472C138.226 275.76 138.642 276.187 138.941 276.752C139.25 277.317 139.405 278 139.405 278.8V284H137.597V279.072C137.597 278.283 137.399 277.68 137.005 277.264C136.61 276.837 136.071 276.624 135.389 276.624C134.706 276.624 134.162 276.837 133.757 277.264C133.362 277.68 133.165 278.283 133.165 279.072V284H131.341V272.16H133.165V276.208C133.474 275.835 133.863 275.547 134.333 275.344C134.813 275.141 135.335 275.04 135.901 275.04ZM149.811 279.376C149.811 279.707 149.79 280.005 149.747 280.272H143.011C143.065 280.976 143.326 281.541 143.795 281.968C144.265 282.395 144.841 282.608 145.523 282.608C146.505 282.608 147.198 282.197 147.603 281.376H149.571C149.305 282.187 148.819 282.853 148.115 283.376C147.422 283.888 146.558 284.144 145.523 284.144C144.681 284.144 143.923 283.957 143.251 283.584C142.59 283.2 142.067 282.667 141.683 281.984C141.31 281.291 141.123 280.491 141.123 279.584C141.123 278.677 141.305 277.883 141.667 277.2C142.041 276.507 142.558 275.973 143.219 275.6C143.891 275.227 144.659 275.04 145.523 275.04C146.355 275.04 147.097 275.221 147.747 275.584C148.398 275.947 148.905 276.459 149.267 277.12C149.63 277.771 149.811 278.523 149.811 279.376ZM147.907 278.8C147.897 278.128 147.657 277.589 147.187 277.184C146.718 276.779 146.137 276.576 145.443 276.576C144.814 276.576 144.275 276.779 143.827 277.184C143.379 277.579 143.113 278.117 143.027 278.8H147.907ZM159.542 275.184L154.134 288.144H152.246L154.038 283.856L150.566 275.184H152.598L155.078 281.904L157.654 275.184H159.542ZM174.659 272.88L170.483 284H168.371L164.179 272.88H166.131L169.427 282.128L172.739 272.88H174.659ZM175.576 279.552C175.576 278.667 175.758 277.883 176.12 277.2C176.494 276.517 176.995 275.989 177.624 275.616C178.264 275.232 178.968 275.04 179.736 275.04C180.43 275.04 181.032 275.179 181.544 275.456C182.067 275.723 182.483 276.059 182.792 276.464V275.184H184.632V284H182.792V282.688C182.483 283.104 182.062 283.451 181.528 283.728C180.995 284.005 180.387 284.144 179.704 284.144C178.947 284.144 178.254 283.952 177.624 283.568C176.995 283.173 176.494 282.629 176.12 281.936C175.758 281.232 175.576 280.437 175.576 279.552ZM182.792 279.584C182.792 278.976 182.664 278.448 182.408 278C182.163 277.552 181.838 277.211 181.432 276.976C181.027 276.741 180.59 276.624 180.12 276.624C179.651 276.624 179.214 276.741 178.808 276.976C178.403 277.2 178.072 277.536 177.816 277.984C177.571 278.421 177.448 278.944 177.448 279.552C177.448 280.16 177.571 280.693 177.816 281.152C178.072 281.611 178.403 281.963 178.808 282.208C179.224 282.443 179.662 282.56 180.12 282.56C180.59 282.56 181.027 282.443 181.432 282.208C181.838 281.973 182.163 281.632 182.408 281.184C182.664 280.725 182.792 280.192 182.792 279.584ZM191.476 275.04C192.169 275.04 192.788 275.184 193.332 275.472C193.887 275.76 194.319 276.187 194.628 276.752C194.937 277.317 195.092 278 195.092 278.8V284H193.284V279.072C193.284 278.283 193.087 277.68 192.692 277.264C192.297 276.837 191.759 276.624 191.076 276.624C190.393 276.624 189.849 276.837 189.444 277.264C189.049 277.68 188.852 278.283 188.852 279.072V284H187.028V275.184H188.852V276.192C189.151 275.829 189.529 275.547 189.988 275.344C190.457 275.141 190.953 275.04 191.476 275.04ZM198.347 274.016C198.016 274.016 197.739 273.904 197.515 273.68C197.291 273.456 197.179 273.179 197.179 272.848C197.179 272.517 197.291 272.24 197.515 272.016C197.739 271.792 198.016 271.68 198.347 271.68C198.667 271.68 198.939 271.792 199.163 272.016C199.387 272.24 199.499 272.517 199.499 272.848C199.499 273.179 199.387 273.456 199.163 273.68C198.939 273.904 198.667 274.016 198.347 274.016ZM199.243 275.184V284H197.419V275.184H199.243ZM203.462 272.16V284H201.638V272.16H203.462ZM207.68 272.16V284H205.856V272.16H207.68ZM209.467 279.552C209.467 278.667 209.648 277.883 210.011 277.2C210.384 276.517 210.886 275.989 211.515 275.616C212.155 275.232 212.859 275.04 213.627 275.04C214.32 275.04 214.923 275.179 215.435 275.456C215.958 275.723 216.374 276.059 216.683 276.464V275.184H218.523V284H216.683V282.688C216.374 283.104 215.952 283.451 215.419 283.728C214.886 284.005 214.278 284.144 213.595 284.144C212.838 284.144 212.144 283.952 211.515 283.568C210.886 283.173 210.384 282.629 210.011 281.936C209.648 281.232 209.467 280.437 209.467 279.552ZM216.683 279.584C216.683 278.976 216.555 278.448 216.299 278C216.054 277.552 215.728 277.211 215.323 276.976C214.918 276.741 214.48 276.624 214.011 276.624C213.542 276.624 213.104 276.741 212.699 276.976C212.294 277.2 211.963 277.536 211.707 277.984C211.462 278.421 211.339 278.944 211.339 279.552C211.339 280.16 211.462 280.693 211.707 281.152C211.963 281.611 212.294 281.963 212.699 282.208C213.115 282.443 213.552 282.56 214.011 282.56C214.48 282.56 214.918 282.443 215.323 282.208C215.728 281.973 216.054 281.632 216.299 281.184C216.555 280.725 216.683 280.192 216.683 279.584Z" fill="#184363"/>
<path d="M8.704 312.832C8.704 313.365 8.57067 313.867 8.304 314.336C8.048 314.805 7.664 315.2 7.152 315.52C6.65067 315.84 6.05333 316.032 5.36 316.096V317.392H4.32V316.096C3.31733 316 2.50667 315.685 1.888 315.152C1.26933 314.619 0.96 313.915 0.96 313.04H2.912C2.944 313.456 3.07733 313.803 3.312 314.08C3.54667 314.347 3.88267 314.517 4.32 314.592V311.072C3.60533 310.891 3.024 310.709 2.576 310.528C2.128 310.336 1.744 310.037 1.424 309.632C1.11467 309.227 0.96 308.672 0.96 307.968C0.96 307.083 1.26933 306.352 1.888 305.776C2.50667 305.189 3.31733 304.848 4.32 304.752V303.456H5.36V304.752C6.29867 304.837 7.05067 305.136 7.616 305.648C8.192 306.149 8.51733 306.843 8.592 307.728H6.64C6.608 307.397 6.48 307.104 6.256 306.848C6.032 306.581 5.73333 306.4 5.36 306.304V309.76C6.07467 309.931 6.656 310.112 7.104 310.304C7.552 310.485 7.93067 310.779 8.24 311.184C8.54933 311.579 8.704 312.128 8.704 312.832ZM2.816 307.872C2.816 308.309 2.944 308.651 3.2 308.896C3.46667 309.141 3.84 309.339 4.32 309.488V306.256C3.86133 306.309 3.49333 306.475 3.216 306.752C2.94933 307.029 2.816 307.403 2.816 307.872ZM5.36 314.592C5.82933 314.517 6.19733 314.331 6.464 314.032C6.73067 313.723 6.864 313.355 6.864 312.928C6.864 312.501 6.73067 312.171 6.464 311.936C6.208 311.691 5.84 311.493 5.36 311.344V314.592ZM11.3343 307.216C11.3983 306.224 11.7769 305.451 12.4703 304.896C13.1743 304.341 14.0703 304.064 15.1583 304.064C15.9049 304.064 16.5503 304.197 17.0943 304.464C17.6383 304.731 18.0489 305.093 18.3263 305.552C18.6036 306.011 18.7423 306.528 18.7423 307.104C18.7423 307.765 18.5663 308.331 18.2143 308.8C17.8623 309.269 17.4409 309.584 16.9503 309.744V309.808C17.5796 310 18.0703 310.352 18.4223 310.864C18.7743 311.365 18.9503 312.011 18.9503 312.8C18.9503 313.429 18.8063 313.989 18.5183 314.48C18.2303 314.971 17.8036 315.36 17.2383 315.648C16.6729 315.925 15.9956 316.064 15.2063 316.064C14.0543 316.064 13.1049 315.771 12.3583 315.184C11.6223 314.587 11.2276 313.733 11.1743 312.624H12.9343C12.9769 313.189 13.1956 313.653 13.5903 314.016C13.9849 314.368 14.5183 314.544 15.1903 314.544C15.8409 314.544 16.3423 314.368 16.6943 314.016C17.0463 313.653 17.2223 313.189 17.2223 312.624C17.2223 311.877 16.9823 311.349 16.5023 311.04C16.0329 310.72 15.3076 310.56 14.3263 310.56H13.9103V309.056H14.3423C15.2063 309.045 15.8623 308.901 16.3103 308.624C16.7689 308.347 16.9983 307.909 16.9983 307.312C16.9983 306.8 16.8329 306.395 16.5023 306.096C16.1716 305.787 15.7023 305.632 15.0943 305.632C14.4969 305.632 14.0329 305.787 13.7023 306.096C13.3716 306.395 13.1743 306.768 13.1103 307.216H11.3343ZM28.2583 305.744L23.8103 316H21.9703L26.4663 305.936H20.5463V304.384H28.2583V305.744ZM29.8194 310.016C29.8194 308.171 30.1287 306.731 30.7474 305.696C31.3767 304.651 32.454 304.128 33.9794 304.128C35.5047 304.128 36.5767 304.651 37.1954 305.696C37.8247 306.731 38.1394 308.171 38.1394 310.016C38.1394 311.883 37.8247 313.344 37.1954 314.4C36.5767 315.445 35.5047 315.968 33.9794 315.968C32.454 315.968 31.3767 315.445 30.7474 314.4C30.1287 313.344 29.8194 311.883 29.8194 310.016ZM36.3474 310.016C36.3474 309.152 36.2887 308.421 36.1714 307.824C36.0647 307.227 35.8407 306.741 35.4994 306.368C35.158 305.984 34.6514 305.792 33.9794 305.792C33.3074 305.792 32.8007 305.984 32.4594 306.368C32.118 306.741 31.8887 307.227 31.7714 307.824C31.6647 308.421 31.6114 309.152 31.6114 310.016C31.6114 310.912 31.6647 311.664 31.7714 312.272C31.878 312.88 32.102 313.371 32.4434 313.744C32.7954 314.117 33.3074 314.304 33.9794 314.304C34.6514 314.304 35.158 314.117 35.4994 313.744C35.8514 313.371 36.0807 312.88 36.1874 312.272C36.294 311.664 36.3474 310.912 36.3474 310.016Z" fill="#DB4444"/>
<g opacity="0.5">
<path d="M60.704 312.832C60.704 313.365 60.5707 313.867 60.304 314.336C60.048 314.805 59.664 315.2 59.152 315.52C58.6507 315.84 58.0533 316.032 57.36 316.096V317.392H56.32V316.096C55.3173 316 54.5067 315.685 53.888 315.152C53.2693 314.619 52.96 313.915 52.96 313.04H54.912C54.944 313.456 55.0773 313.803 55.312 314.08C55.5467 314.347 55.8827 314.517 56.32 314.592V311.072C55.6053 310.891 55.024 310.709 54.576 310.528C54.128 310.336 53.744 310.037 53.424 309.632C53.1147 309.227 52.96 308.672 52.96 307.968C52.96 307.083 53.2693 306.352 53.888 305.776C54.5067 305.189 55.3173 304.848 56.32 304.752V303.456H57.36V304.752C58.2987 304.837 59.0507 305.136 59.616 305.648C60.192 306.149 60.5173 306.843 60.592 307.728H58.64C58.608 307.397 58.48 307.104 58.256 306.848C58.032 306.581 57.7333 306.4 57.36 306.304V309.76C58.0747 309.931 58.656 310.112 59.104 310.304C59.552 310.485 59.9307 310.779 60.24 311.184C60.5493 311.579 60.704 312.128 60.704 312.832ZM54.816 307.872C54.816 308.309 54.944 308.651 55.2 308.896C55.4667 309.141 55.84 309.339 56.32 309.488V306.256C55.8613 306.309 55.4933 306.475 55.216 306.752C54.9493 307.029 54.816 307.403 54.816 307.872ZM57.36 314.592C57.8293 314.517 58.1973 314.331 58.464 314.032C58.7307 313.723 58.864 313.355 58.864 312.928C58.864 312.501 58.7307 312.171 58.464 311.936C58.208 311.691 57.84 311.493 57.36 311.344V314.592ZM63.1423 313.568V312.192L68.5183 304.48H70.7263V311.984H72.2143V313.568H70.7263V316H68.9343V313.568H63.1423ZM69.0143 306.336L65.2383 311.984H69.0143V306.336ZM73.7256 310.016C73.7256 308.171 74.035 306.731 74.6536 305.696C75.283 304.651 76.3603 304.128 77.8856 304.128C79.411 304.128 80.483 304.651 81.1016 305.696C81.731 306.731 82.0456 308.171 82.0456 310.016C82.0456 311.883 81.731 313.344 81.1016 314.4C80.483 315.445 79.411 315.968 77.8856 315.968C76.3603 315.968 75.283 315.445 74.6536 314.4C74.035 313.344 73.7256 311.883 73.7256 310.016ZM80.2536 310.016C80.2536 309.152 80.195 308.421 80.0776 307.824C79.971 307.227 79.747 306.741 79.4056 306.368C79.0643 305.984 78.5576 305.792 77.8856 305.792C77.2136 305.792 76.707 305.984 76.3656 306.368C76.0243 306.741 75.795 307.227 75.6776 307.824C75.571 308.421 75.5176 309.152 75.5176 310.016C75.5176 310.912 75.571 311.664 75.6776 312.272C75.7843 312.88 76.0083 313.371 76.3496 313.744C76.7016 314.117 77.2136 314.304 77.8856 314.304C78.5576 314.304 79.0643 314.117 79.4056 313.744C79.7576 313.371 79.987 312.88 80.0936 312.272C80.2003 311.664 80.2536 310.912 80.2536 310.016ZM83.9756 310.016C83.9756 308.171 84.285 306.731 84.9036 305.696C85.533 304.651 86.6103 304.128 88.1356 304.128C89.661 304.128 90.733 304.651 91.3516 305.696C91.981 306.731 92.2956 308.171 92.2956 310.016C92.2956 311.883 91.981 313.344 91.3516 314.4C90.733 315.445 89.661 315.968 88.1356 315.968C86.6103 315.968 85.533 315.445 84.9036 314.4C84.285 313.344 83.9756 311.883 83.9756 310.016ZM90.5036 310.016C90.5036 309.152 90.445 308.421 90.3276 307.824C90.221 307.227 89.997 306.741 89.6556 306.368C89.3143 305.984 88.8076 305.792 88.1356 305.792C87.4636 305.792 86.957 305.984 86.6156 306.368C86.2743 306.741 86.045 307.227 85.9276 307.824C85.821 308.421 85.7676 309.152 85.7676 310.016C85.7676 310.912 85.821 311.664 85.9276 312.272C86.0343 312.88 86.2583 313.371 86.5996 313.744C86.9516 314.117 87.4636 314.304 88.1356 314.304C88.8076 314.304 89.3143 314.117 89.6556 313.744C90.0076 313.371 90.237 312.88 90.3436 312.272C90.4503 311.664 90.5036 310.912 90.5036 310.016Z" fill="black"/>
<path d="M52 310.72H93.2716V311.52H52V310.72Z" fill="black"/>
</g>
<path d="M16.673 340.172C17.7437 339.362 17.1709 337.655 15.8284 337.655H13.3992C12.7853 337.655 12.243 337.255 12.0617 336.669L11.3375 334.326C10.9309 333.011 9.0691 333.011 8.66246 334.326L7.93832 336.669C7.75699 337.255 7.21469 337.655 6.60078 337.655H4.12961C2.79142 337.655 2.21592 339.353 3.27822 340.167L5.39469 341.788C5.85885 342.143 6.05314 342.75 5.88196 343.309L5.11296 345.821C4.71416 347.123 6.22167 348.17 7.30301 347.342L9.14861 345.928C9.65097 345.543 10.349 345.543 10.8514 345.928L12.6807 347.329C13.7636 348.159 15.2725 347.108 14.8696 345.805L14.09 343.283C13.9159 342.72 14.113 342.108 14.5829 341.753L16.673 340.172Z" fill="#FFAD33"/>
<path d="M36.673 340.172C37.7437 339.362 37.1709 337.655 35.8284 337.655H33.3992C32.7853 337.655 32.243 337.255 32.0617 336.669L31.3375 334.326C30.9309 333.011 29.0691 333.011 28.6625 334.326L27.9383 336.669C27.757 337.255 27.2147 337.655 26.6008 337.655H24.1296C22.7914 337.655 22.2159 339.353 23.2782 340.167L25.3947 341.788C25.8588 342.143 26.0531 342.75 25.882 343.309L25.113 345.821C24.7142 347.123 26.2217 348.17 27.303 347.342L29.1486 345.928C29.651 345.543 30.349 345.543 30.8514 345.928L32.6807 347.329C33.7636 348.159 35.2725 347.108 34.8696 345.805L34.09 343.283C33.9159 342.72 34.113 342.108 34.5829 341.753L36.673 340.172Z" fill="#FFAD33"/>
<path d="M56.673 340.172C57.7437 339.362 57.1709 337.655 55.8284 337.655H53.3992C52.7853 337.655 52.243 337.255 52.0617 336.669L51.3375 334.326C50.9309 333.011 49.0691 333.011 48.6625 334.326L47.9383 336.669C47.757 337.255 47.2147 337.655 46.6008 337.655H44.1296C42.7914 337.655 42.2159 339.353 43.2782 340.167L45.3947 341.788C45.8588 342.143 46.0531 342.75 45.882 343.309L45.113 345.821C44.7142 347.123 46.2217 348.17 47.303 347.342L49.1486 345.928C49.651 345.543 50.349 345.543 50.8514 345.928L52.6807 347.329C53.7636 348.159 55.2725 347.108 54.8696 345.805L54.09 343.283C53.9159 342.72 54.113 342.108 54.5829 341.753L56.673 340.172Z" fill="#FFAD33"/>
<path d="M76.673 340.172C77.7437 339.362 77.1709 337.655 75.8284 337.655H73.3992C72.7853 337.655 72.243 337.255 72.0617 336.669L71.3375 334.326C70.9309 333.011 69.0691 333.011 68.6625 334.326L67.9383 336.669C67.757 337.255 67.2147 337.655 66.6008 337.655H64.1296C62.7914 337.655 62.2159 339.353 63.2782 340.167L65.3947 341.788C65.8588 342.143 66.0531 342.75 65.882 343.309L65.113 345.821C64.7142 347.123 66.2217 348.17 67.303 347.342L69.1486 345.928C69.651 345.543 70.349 345.543 70.8514 345.928L72.6807 347.329C73.7636 348.159 75.2725 347.108 74.8696 345.805L74.09 343.283C73.9159 342.72 74.113 342.108 74.5829 341.753L76.673 340.172Z" fill="#FFAD33"/>
<path d="M96.673 340.172C97.7437 339.362 97.1709 337.655 95.8284 337.655H93.3992C92.7853 337.655 92.243 337.255 92.0617 336.669L91.3375 334.326C90.9309 333.011 89.0691 333.011 88.6625 334.326L87.9383 336.669C87.757 337.255 87.2147 337.655 86.6008 337.655H84.1296C82.7914 337.655 82.2159 339.353 83.2782 340.167L85.3947 341.788C85.8588 342.143 86.0531 342.75 85.882 343.309L85.113 345.821C84.7142 347.123 86.2217 348.17 87.303 347.342L89.1486 345.928C89.651 345.543 90.349 345.543 90.8514 345.928L92.6807 347.329C93.7636 348.159 95.2725 347.108 94.8696 345.805L94.09 343.283C93.9159 342.72 94.113 342.108 94.5829 341.753L96.673 340.172Z" fill="#FFAD33"/>
<path opacity="0.5" d="M112.354 347.758C111.449 346.881 110.744 345.761 110.24 344.398C109.745 343.035 109.498 341.575 109.498 340.016C109.498 338.42 109.759 336.922 110.282 335.522C110.805 334.113 111.565 332.96 112.564 332.064H114.538V332.246C113.511 333.226 112.727 334.402 112.186 335.774C111.654 337.146 111.388 338.56 111.388 340.016C111.388 341.435 111.64 342.807 112.144 344.132C112.657 345.448 113.385 346.591 114.328 347.562V347.758H112.354ZM117.805 342.13C117.88 342.541 118.048 342.858 118.309 343.082C118.58 343.297 118.939 343.404 119.387 343.404C119.966 343.404 120.386 343.166 120.647 342.69C120.908 342.205 121.039 341.393 121.039 340.254C120.824 340.553 120.521 340.786 120.129 340.954C119.746 341.122 119.331 341.206 118.883 341.206C118.286 341.206 117.744 341.085 117.259 340.842C116.783 340.59 116.405 340.221 116.125 339.736C115.845 339.241 115.705 338.644 115.705 337.944C115.705 336.908 116.013 336.087 116.629 335.48C117.245 334.864 118.085 334.556 119.149 334.556C120.474 334.556 121.408 334.981 121.949 335.83C122.5 336.679 122.775 337.958 122.775 339.666C122.775 340.879 122.668 341.873 122.453 342.648C122.248 343.423 121.888 344.011 121.375 344.412C120.871 344.813 120.18 345.014 119.303 345.014C118.612 345.014 118.024 344.883 117.539 344.622C117.054 344.351 116.68 344.001 116.419 343.572C116.167 343.133 116.022 342.653 115.985 342.13H117.805ZM119.289 339.61C119.774 339.61 120.157 339.461 120.437 339.162C120.717 338.863 120.857 338.462 120.857 337.958C120.857 337.407 120.708 336.983 120.409 336.684C120.12 336.376 119.723 336.222 119.219 336.222C118.715 336.222 118.314 336.381 118.015 336.698C117.726 337.006 117.581 337.417 117.581 337.93C117.581 338.425 117.721 338.831 118.001 339.148C118.29 339.456 118.72 339.61 119.289 339.61ZM126.569 342.13C126.643 342.541 126.811 342.858 127.073 343.082C127.343 343.297 127.703 343.404 128.151 343.404C128.729 343.404 129.149 343.166 129.411 342.69C129.672 342.205 129.803 341.393 129.803 340.254C129.588 340.553 129.285 340.786 128.893 340.954C128.51 341.122 128.095 341.206 127.647 341.206C127.049 341.206 126.508 341.085 126.023 340.842C125.547 340.59 125.169 340.221 124.889 339.736C124.609 339.241 124.469 338.644 124.469 337.944C124.469 336.908 124.777 336.087 125.393 335.48C126.009 334.864 126.849 334.556 127.913 334.556C129.238 334.556 130.171 334.981 130.713 335.83C131.263 336.679 131.539 337.958 131.539 339.666C131.539 340.879 131.431 341.873 131.217 342.648C131.011 343.423 130.652 344.011 130.139 344.412C129.635 344.813 128.944 345.014 128.067 345.014C127.376 345.014 126.788 344.883 126.303 344.622C125.817 344.351 125.444 344.001 125.183 343.572C124.931 343.133 124.786 342.653 124.749 342.13H126.569ZM128.053 339.61C128.538 339.61 128.921 339.461 129.201 339.162C129.481 338.863 129.621 338.462 129.621 337.958C129.621 337.407 129.471 336.983 129.173 336.684C128.883 336.376 128.487 336.222 127.983 336.222C127.479 336.222 127.077 336.381 126.779 336.698C126.489 337.006 126.345 337.417 126.345 337.93C126.345 338.425 126.485 338.831 126.765 339.148C127.054 339.456 127.483 339.61 128.053 339.61ZM132.784 347.758V347.562C133.727 346.591 134.45 345.448 134.954 344.132C135.468 342.807 135.724 341.435 135.724 340.016C135.724 338.56 135.454 337.146 134.912 335.774C134.38 334.402 133.601 333.226 132.574 332.246V332.064H134.548C135.547 332.96 136.308 334.113 136.83 335.522C137.353 336.922 137.614 338.42 137.614 340.016C137.614 341.575 137.362 343.035 136.858 344.398C136.364 345.761 135.664 346.881 134.758 347.758H132.784Z" fill="black"/>
</svg>
